<?xml version="1.0" encoding="utf-8"?>
<!-- Generator: Adobe Illustrator 24.0.3, SVG Export Plug-In . SVG Version: 6.00 Build 0)  -->
<svg version="1.1" id="Layer_1" xmlns="http://www.w3.org/2000/svg" xmlns:xlink="http://www.w3.org/1999/xlink" x="0px" y="0px"
	 viewBox="0 0 275.2 267.7" style="enable-background:new 0 0 275.2 267.7;" xml:space="preserve">
<g>
	<path d="M125.1,267.5c-2.2-0.3-4.4-0.6-6.6-1c-3.2-0.7-6.4-1.7-9.7-2.2c-8.4-1.4-15.1-6-22.1-10.4c-2.1-1.4-4.9-1.9-7.5-2.4
		c-6.1-1.3-12.3-2.3-18.4-3.5c-0.8-0.2-1.4-1-2.2-1.5c-3.4,1.8-18.9-4-20.2-8.1c-0.5,0.8-0.9,1.5-1.2,1.9c-1.8-1-3.5-1.9-5.2-2.9
		c-0.7-0.4-1.7-0.7-2.1-1.4c-1.7-2.8-4.8-3.6-7-5.5c-2.7-2.2-5.1-4.9-7.1-7.8c-2.4-3.6-4.2-7.6-6.2-11.4c-1.2-2.2-1.8-4.4-1.3-6.9
		c0.3-1.6,0.1-3.3,0-5c-0.1-3.1-0.2-6.1-0.4-9.1c-0.1-1.3-0.2-2.7-0.9-3.8c-9.7-16.8-9.6-33.5,0-50.2c1.9-3.2,3.6-6.6,5.9-9.6
		c2.7-3.4,6-6.4,8.9-9.6c2-2.2,3.9-4.5,5.9-6.7c0.2-0.2,0.2-0.6,0.3-0.6c5.1-2.3,7.7-8.2,13.7-9.2c0.5-0.1,1.1-0.5,1.4-0.9
		c4.1-4.7,9.4-7.6,15.1-9.9c2.7-1.1,3.7-2.8,3.5-5.6c-0.3-4.5,0.3-9.2-1.7-13.5c-0.4-0.8,0.3-2,0.1-2.9c-0.5-1.8-1.3-3.5-2-5.2
		c-0.3-0.8-0.6-1.5-0.7-2.3c-0.3-2.7-0.4-5.5-0.9-8.2c-0.4-2.1-2-2.6-3.8-1.7c-3.5,1.8-7.3,2.2-11.2,2.1c-7.3-0.3-14.7,0.1-21.8-2
		c-3.6-1.1-4.5-3.7-1.9-6.6c3.8-4.2,7.5-8.7,11.8-12.4c3-2.6,7-4.1,10.4-6.2c1.8-1.1,3.4-2.5,4.8-4.1c2.3-2.6,5.4-3,8.8-3.5
		c-0.4-0.6-0.7-1.1-1.2-1.9c3.3-0.3,5.3-2.4,7.5-4.4c1.4-1.3,3.4-2,5.1-3c0.9-0.5,1.7-1.2,2.7-1.7c0.6-0.3,1.3-0.2,1.9-0.4
		c1-0.2,2.4-0.1,2.8-0.7c2-2.8,4.5-2.7,7.5-1.5c-3.3,1.7-6.4,3.4-9.6,5C60,13.9,50.7,21.2,41.2,28.1c-4.4,3.2-8.9,6.4-13,10
		c-2,1.8-3.1,4.6-4.6,7.1c-0.8,1.4-0.4,2.4,1.2,2.7c8.9,1.9,17.7,2.1,26.3-1.2c0.9-0.4,1.8-1.3,2.3-2.3c2.2-4.3,4.3-8.8,6.6-13.1
		c0.3-0.5,1.7-0.9,2.3-0.7c0.5,0.2,1,1.4,1,2.1c-0.3,3.6-0.8,7.3-1.2,10.9c-0.1,0.9,0.2,1.8,0.3,2.7c0.2,0.1,0.5,0.2,0.7,0.3
		c3.3-4.9,6.7-9.7,9.9-14.7c1.3-2,2.4-3.8,4.9-4.1c0.7-0.1,1.9-0.1,2.2,0.3c0.4,0.5,0.3,1.6,0,2.3c-1,2.5-2.2,4.8-3.3,7.3
		c-1.2,2.6-2.2,5.2-3.4,7.8c-0.8,1.7-1.8,2.9-4.1,2.2c-0.6-0.2-2,0.6-2.3,1.3c-2.6,5.1-3.8,10.4-3.1,16.2c0.4,3,0.8,5.9,1.2,8.9
		c0.2,1.4,0.7,2.3,2.4,1.9c10.9-2.7,22.1-3,33.2-3.1c3.2,0,6.1-0.7,9.1-1.9c7-2.8,14.2-5.2,21.4-7.5c1.8-0.6,3.8-0.6,5.7-0.5
		c10.6,0.8,21.2,1.6,31.8,2.6c3,0.3,6.3,0.6,9,1.8c9.6,4.2,19.2,8.7,28.6,13.5c2.3,1.2,3.9,3.7,5.8,5.7c1.7,1.7,3.2,3.5,5,5.2
		c1.9,1.8,3.9,3.6,6,5.3c1.6,1.3,3.1,2.8,4.9,3.8c5.5,3.2,11,6.2,16.6,9.2c4,2.2,7.1,5,9.4,9.3c2.5,4.8,5.9,9.1,9,13.5
		c2.9,4.2,5.3,8.7,6.6,13.6c0.4,1.4,0.9,2.8,1.5,4.2c1.3,3.2,1.3,3.4-2.3,4.3c0.7,0.4,1.2,0.7,1.7,0.8c1.5,0.4,2.8,0.9,1.8,2.9
		c-0.2,0.4,0,1,0.2,1.4c0.8,2,1.7,4.1,2.6,6.1c0,3.5,0,7,0,10.5c-0.7,1.1-1.3,2.3-1.9,3.3c1,4.3,0.4,8-2.2,11.6
		c-0.8,1.2-1.6,2.5-1.9,3.9c-0.8,3.8-1.9,7.4-5.2,9.8c-0.4,0.3-0.8,1-0.8,1.5c0.2,2.5-0.9,3.9-3.5,4.4c0.4,2.8-1.3,4.3-3.2,5.8
		c-3.1,2.6-6,5.5-9.1,8.1c-2.3,2-4.6,3.8-7,5.7c-0.4,0.3-1.1,0.3-1.7,0.4c-2,0.4-4,0.8-6,1.2c-1.5,0.3-3,1-4.4,0.8
		c-4.4-0.6-7.4,1.3-10.4,4.2c-4.6,4.5-9.1,9-14.1,13.1c-2.9,2.4-6.4,4.2-9.9,5.7c-5.8,2.6-11.7,4.8-17.6,7c-1.8,0.7-3.6,1.2-5.5,1.5
		c-7.1,1.1-14.3,2-21.4,3C141.5,267.5,133.3,267.5,125.1,267.5z M213.7,144.2c1.9-1.4,3-0.6,3.9,1.2c0.3,0.6,0.9,1,1.2,1.6
		c1.2,1.8,2.3,3.6,3.4,5.4c0.2,0.3,0.4,0.8,0.7,1c2.3,1.1,3,3.2,3.6,5.4c2.6,8.8,4.7,7.9,10.6,7c9.4-1.3,17,4.7,18.1,14
		c0.3,2.8,0.8,5.6,1.1,8.4c0.1,0.6-0.1,1.3-0.4,1.8c-0.7,1.7-1.5,3.3-2.2,4.9c-3.2,7.1-7.7,12.8-16,14.3c-1.3,0.2-2.9,1-3.5,2
		c-3.1,5.5-5.9,11.1-9.1,17.2c1,0,1.9,0.2,2.7,0c2.8-0.6,5.6-1.5,8.5-2.1c4.9-1.1,9.1-3.4,12.2-7.3c4.7-6,9.6-12,13.5-18.5
		c3-5,5.5-10.7,6.6-16.3c1.2-6.3,1-12.9,0.5-19.3c-0.9-10-3.8-19.6-9.7-28c-3-4.3-5.8-8.8-8.6-13.1c-4.8-7.3-11-12.6-19.8-14.5
		c-1.4-0.3-2.9-1-3.9-2c-5.4-5.1-10.7-10.5-16.1-15.7c-2.5-2.4-4.9-5.1-7.8-6.9c-5.2-3.2-10.6-5.9-16.1-8.5
		c-12.8-6-26.8-6.7-40.5-7.7c-13.7-1-26.5,3-38,10.7c-0.7,0.5-1.3,1.3-1.7,2.1c-1,2.4-2.9,3.6-5.3,4c-1.9,0.3-3.8,0.5-5.7,0.5
		c-13.7,0-26.3,4.3-38.2,10.5c-14.4,7.5-26.4,18.1-37,30.4c-10.7,12.4-17,26.3-14.6,43.2c0.6,4.4,1.8,8.3,5.2,11.5
		c1.4,1.3,2.3,3.7,2.4,5.7c0.3,3.7,0.3,7.5-0.3,11.2c-1.4,9.6,4.2,16.9,8,24.8c0.1,0.2,0.6,0.2,0.9,0.4c4.1,2.8,8.2,5.6,12.2,8.5
		c0.6,0.4,0.8,1.3,1.4,1.8c1.3,1,2.7,2,4.2,2.6c1.6,0.6,3.5,0.3,5.1,1c5,2.3,10.1,3.8,15.6,4c2.4,0.1,4.6,0.4,5.1,2.6
		c1.8-0.1,3.3-0.5,4.7-0.2c1.5,0.3,3,1.2,4.5,1.9c1.1-1.2,1-2.3-0.3-3.6c-1.2-1.2-2.5-2.5-3.4-4c-1.4-2.4-2.5-5.1-3.8-7.6
		c-1.6-3-4-4.6-7.5-4.9c-7.8-0.6-13.9-4-17.2-11.4c-1.8-4-3.5-8.2-4.1-12.4c-0.8-6.2,0.1-12.6,2.9-18.2c3.8-7.6,15.8-10.2,22.8-5.5
		c1.9,1.2,3.3,0.8,4.4-1c0.6-1,1-2.1,1.6-3.1c2.8-4.6,5.5-9.3,8.4-13.8c0.8-1.2,2.4-1.9,3.6-2.9c0.6-0.5,1.5-1.1,1.7-1.8
		c2.2-6.7,6.9-10.9,13.4-13.1c3.1-1,6.5-1.6,9.7-2.4c8.2-2.1,16.4-4,25-4.4c0.9,0,2.2-0.9,2.4-1.7c1.3-4.7,2.9-9.4,3.3-14.2
		c0.3-3.2-1-6.5-1.9-9.7c-0.5-1.9-0.8-3.5,1-4.6c1.9-1.2,3.7-0.5,5.1,1.1c3.2,3.5,5.4,7.6,6.3,12.3c0.8,4.3,1.7,8.5,2.4,12.7
		c0.2,1.3,0.8,1.8,2.1,1.9c6.3,0.1,12.7,0.1,19,0.5c7.7,0.5,15.5,0.8,23.1,2C202,136.7,209.1,137.8,213.7,144.2z M143.8,125.5
		c-0.2,0-0.5,0.1-0.7,0.1c-0.2,0.5-0.4,1-0.6,1.5c-1.2,4.1-2.2,8.3-3.6,12.4c-0.9,2.6-2.6,3.2-5.2,2.1c-2.9-1.2-5.8-1.3-8.8-0.4
		c-6.1,1.9-12.2,3.9-18.3,5.8c-1,0.3-2.2,0.5-3.1,0.2c-3.2-1.1-5.8-0.1-8,2.1c-2,2.1-4.1,4.2-5.9,6.4c-9.5,11.3-17.9,23.2-21.8,37.7
		c-2.3,8.3-3.2,16.4-0.3,25c7.7,23,23.3,37.1,46.6,42.9c12.2,3,24.6,3,37,1.8c22.7-2.1,43.5-8.7,60.2-25.2c2.3-2.3,4.2-4.7,4.7-8
		c0.1-0.6,0.5-1.5,0.9-1.6c3.4-0.6,5-3.3,6.4-5.9c2.8-5.2,5.2-10.7,7.6-16.2c0.7-1.6,1.5-3.5,1.5-5.2c0-5.2,0.1-10.5-0.6-15.7
		c-1.4-9.4-5.5-18-9.8-26.3c-5-9.7-13.3-15.5-23.9-17.5c-6.5-1.2-13.2-1.5-19.8-2.3c-8.8-1.2-17.5-1.7-26.3,0
		c-3.9,0.8-6.8-1.9-6.8-5.9c0-1.1,0.2-2.2,0-3.2C144.8,128.5,144.3,127,143.8,125.5z M44.9,192.6c-0.1,6.3,2.4,16.1,4.8,20.8
		c2.2,4.4,5.7,7.3,10.5,8.4c2.3,0.5,3.2-0.2,2.8-2.6c-0.4-2.2-1.3-4.3-1.6-6.5c-0.4-3-0.6-6.1-0.5-9.1c0.1-2.4,0.7-4.9,1.1-7.3
		c0.7-3.8,1.4-7.6,2-11.5c0.1-0.8,0.2-2-0.3-2.5c-3.9-3.7-11.1-5.8-15,0.6C46.6,186.4,45.7,190.5,44.9,192.6z M236.4,205.7
		c3,0.2,5-1,6.7-3c3.9-4.8,5.6-10.5,6-16.6c0.4-5.8-1-11.1-4.8-15.5c-2.5-2.9-6-3.1-9.6-0.6c-2.9,2-3.2,4-1.2,7.8
		c3.1,5.7,3.8,11.8,3.5,18.1C236.8,199,236.6,202.3,236.4,205.7z"/>
	<path d="M91.5,0.1c6.8-0.8,12.3,2.2,17,6.6c5,4.7,9,10,11.8,16.7c4.3,10.2,9.9,20,14.9,29.9c0.5,0.9,1,1.7,1.4,2.6
		c0.6,1.2,1.2,2.6-0.4,3.5c-1.6,0.8-3.6,0.9-4.4-0.9c-3.2-6.6-6.2-13.4-9.3-20.1c-0.2-0.5-0.3-1-0.5-1.4c-2.6-5.2-5.4-10.3-7.6-15.6
		c-2.4-5.6-6.1-10.3-10-14.9c-2.8-3.2-7.1-3.3-10.9-4.4C92.6,1.9,91.8,1.4,91,1C91.2,0.7,91.3,0.4,91.5,0.1z"/>
	<path d="M83.7,117c-2.3,1-4.1,1.5-5.8,2.5c-1.7,0.9-1.6,2,0.1,2.9c2.7,1.5,5.3,3,8.1,4.4c0.9,0.5,2,0.7,3.1,0.8
		c3.7,0.5,5.7,3.7,4.9,6.4c-2.3,0.6-4.1,1.2-6,1.5c-2,0.4-4.1,0.5-6.1,0.9c-3.9,0.6-4.2,0.9-5.1,4.7c-0.4,1.9-1.5,2.2-3.3,2.1
		c-2-0.1-4.1,0.2-6.1,0.6c-0.4,0.1-0.7,0.9-1.1,1.4c0.4,0.3,0.8,0.7,1.3,0.8c3.8,1.4,4.1,1.8,2.7,5.3c-0.8,2.1-2.1,2.8-4.3,2.1
		c-2.6-0.8-5-2.5-7.9-1.2c-0.3,0.1-0.8-0.4-1.2-0.7c-2.3-1.6-4.6-3.2-6.9-4.8c-1.8-1.2-3.3-0.7-4.6,0.8c-0.7,0.8-1.2,1.9-2.1,2.4
		c-0.9,0.5-2.4,0.9-3.2,0.5c-0.6-0.2-1-2.1-0.7-2.9c1.5-4.4,1.6-4.4-2.9-6.5c-1-0.5-2-1.1-3.3-1.9c-0.8,3.1-1.6,6-2.2,9
		c-0.4,1.7-1.2,2.8-3,2.7c-2-0.1-2.1-1.6-1.9-3.1c0.4-3.5,0.6-6.9,3.1-9.8c0.5-0.6-0.1-2.2-0.7-3.6c4.7-1.9,6.5-6.9,9.8-10.9
		c-0.6-0.6-1.4-1.2-1.8-2c-0.5-0.9-1.1-2.1-0.8-2.8c0.3-0.7,1.6-1.3,2.5-1.5c0.9-0.2,1.9,0.4,2.9,0.4c1.3,0,2.6-0.3,3.9-0.4
		c0.9-0.1,1.9,0,2.6,0c1.1-1.4,2.1-2.9,3.4-4.2c1.3-1.3,0.9-2.2,0-3.4c-1.6-2.1-1.5-3.9,0.3-5c0.8-0.5,2.1-0.2,3.1,0
		c1.2,0.3,2.3,0.9,3.4,1.3c1.1,0.5,2.2,1,3.5,1.5c-0.1-1.9,0.9-2.6,2.7-3c1.6-0.4,3-1.7,4.7-2.1c1.2-0.3,2.8-0.1,3.9,0.5
		c1.9,1,1.7,2.1-0.3,3c-1.7,0.7-3.3,1.6-5,2.3c-1.8,0.8-2,2-1.3,3.7c1.5,3.4,5,4.7,8.3,2.9c2.3-1.3,4.5-2.7,6.8-4.2
		c2.2-1.5,7.7-0.5,8.9,1.9c0.3,0.6,0,2-0.5,2.7c-1.3,1.8-2.8,3.5-4.3,5.1c-0.4,0.4-1.1,0.5-1.7,0.5c-0.2,0-0.4-0.9-0.4-1.5
		C83.3,118.7,83.5,118.3,83.7,117z M54.9,125.4c0.2,0.2,0.5,0.3,0.7,0.5c2.6-1.6,5.2-3.1,7.7-4.8c1.3-0.9,0.4-1.6-0.5-2.3
		c-1.5-1.2-2.8-2.6-4.3-3.7c-0.6-0.4-1.6-1-2-0.7c-1.8,1.2-3.5,2.7-5.2,4c-0.8,0.6-1.7,1-2.8,1.7c0.2,1.2,0.2,1.2,2.2,1.3
		C53.3,121.4,55.1,122.2,54.9,125.4z M37.4,133.5c0.9,0.7,1.6,1.1,2.2,1.7c2.2,2,4.5,1.7,6.6,0.1c1.6-1.2,2.7-2.9,4-4.4
		c-1.7-1.4-3.4-3.1-5.3-4.2c-0.6-0.4-2.3,0.1-2.9,0.8C40.4,129.2,39.1,131.3,37.4,133.5z M60.8,141.9c0.2,0.2,0.4,0.4,0.6,0.6
		c0.4-0.6,1.1-1.2,1.2-1.9c0.6-4.1-2.2-6.3-6.1-4.8c-1.1,0.4-2.2,1.1-3.2,1.9c-1.7,1.3-1.8,3.3,0,4.3c1.3,0.7,3.1,0.7,4.6,0.7
		C58.9,142.7,59.9,142.2,60.8,141.9z M75.9,130.5c-1.8-1.6-3.3-3.3-5-4.6c-0.8-0.5-2.2-0.5-3.2-0.2c-1.3,0.4-2.5,1.2-3.6,2
		c-0.3,0.2-0.4,1.4-0.1,1.8C67,133.5,71.5,134,75.9,130.5z"/>
	<path d="M181.8,181.6c-0.8,0.3-1.4,0.5-1.8,0.8c-9.2,6.4-19.4,7.3-30.1,5.8c-4.3-0.6-8.6-1.7-12.9-2.8c-1.7-0.5-3.2-1.7-4.6-2.8
		c-2.1-1.6-2.7-1.5-4.4,0.7c-2.9,3.8-5.8,7.5-8.8,11.1c-0.5,0.7-1.5,1.4-2.3,1.3c-1.1-0.1-2.5-0.6-3.2-1.5c-0.4-0.5-0.2-2.1,0.3-2.9
		c2.3-3.5,4.7-6.9,7.3-10.2c2.2-2.8,3-5.9,2.9-9.3c0-2.9-2.8-5.6-6.1-5.8c-2.4-0.2-4.8,0.3-7.2,0.2c-1,0-2.1-0.5-3.1-0.8
		c0.4-1.1,0.6-2.4,1.4-3.1c1-0.9,2.5-1.5,3.8-1.7c6.9-1.3,14.8,3.1,17.3,9.8c2.3,6.1,6,10.7,12.8,11.9c3.3,0.6,3.8,0.3,4.2-3.1
		c0.4-3.9,0.6-7.8,1.5-11.6c1.5-6.4,5.9-10.2,10.8-10c7.8,0.2,14.5,6.3,15.5,14.1c0.1,0.9,0,1.9,0.3,2.7c0.3,0.9,0.9,2,1.5,2.2
		c0.7,0.2,2.2-0.2,2.6-0.8c0.9-1.3,1.8-2.9,1.9-4.4c0.1-5.6,2-10.2,6-14c2-1.9,3.9-3.8,6-5.6c3.7-3.1,7.7-3,11.9-1.2
		c1.6,0.7,3.1,1.5,4.7,2.2c4.2,1.8,6.9,5.2,9,9c0.1,0.2,0.3,0.5,0.5,0.5c3.2,0.9,2.5,3.1,1.8,5.4c-0.3,1,0,2.1-0.1,3.1
		c-0.1,0.7-0.3,1.5-0.7,1.8c-0.3,0.2-1.3,0-1.7-0.4c-1.3-1.4-2.4-2.8-2.2-5.2c0.4-5.2-3.2-8.4-7.2-10.5c-8.4-4.5-12.4-2.4-19.1,6.5
		c-1.2,1.7-1.7,3.9-2.3,6c-0.6,2-0.1,3.7,1.7,5.1c1.8,1.4,1.6,1.9-0.3,3.3c-0.9,0.6-1.9,2-1.8,2.8c0.5,3.3,1.5,6.6,2.1,9.9
		c0.2,1-0.1,2.1-0.1,3.2c-1-0.3-2.1-0.4-2.8-0.9c-2.7-1.9-3.8-4.8-4.4-7.9C182.4,183.7,182.1,182.8,181.8,181.6z M157.3,178
		c0.2-1.5,0.3-3.1,0.6-4.6c0.3-1.6,1.1-2.6,2.9-2.4c1.7,0.2,2.4,1.3,2.4,2.9c0,2.1,0,4.2,0.1,6.2c0,1.8,0.9,2.7,2.7,2.3
		c2.9-0.6,5.2-3.9,4.6-6.7c-0.5-2.5-1.1-5-1.9-7.5c-1.3-4.3-4.9-7-8.5-6.7c-3.4,0.3-7.2,4.7-7.5,8.7c-0.2,3.5-0.4,7-0.6,10.5
		c-0.1,2.2,0.9,3.2,3.1,3.2c2.2-0.1,2.6-1.4,2.4-3.2C157.5,179.7,157.4,178.9,157.3,178z"/>
	<path d="M158.1,204.2c-5.4-0.3-9.2,2.4-12,6.7c-0.7,1.1-1.4,2.3-2.3,3.2c-1.3,1.3-2.9,1.1-4.3,0.1c-1.5-1.1-0.7-2.4,0.1-3.5
		c4.2-6.6,10-10.1,18-9.2c2.8,0.3,5.7,0.4,8.4,0.9c7.1,1.2,11.4,6,12.2,13.1c0.1,0.7,0.4,1.3,0.4,1.9c0.1,1,0.3,2.8,0,2.9
		c-1.3,0.5-3,0.9-4.3,0.5c-1-0.3-2.3-2-2.2-2.9c0.7-4.2-0.6-7.5-3.5-10.4C165.6,204.5,161.9,204.3,158.1,204.2z"/>
</g>
</svg>
