<svg xmlns="http://www.w3.org/2000/svg" viewBox="0 0 220.43 228.4"><defs><style>.cls-1{fill:#1c1c1b;}</style></defs><g id="레이어_2" data-name="레이어 2"><g id="Layer_1" data-name="Layer 1"><path class="cls-1" d="M69.78,132.39c2.45-3.91,3.47-8.44,7.28-11.31,1.7-1.28,3.37-2.06,5.35-1.56,2.66.68,3.87-.25,4.85-2.78a37.34,37.34,0,0,1,7.56-11.65c5.22-5.68,11-6.4,17.28-2.06,1.93,1.33,3.41,1.48,5.14-.13,8.16-7.63,17.44-5.22,24.47.19,3.9,3,5.43,6.15,3.26,11-1.33,3-2.23,6.24,2.14,8.75,3.23,1.86,2.9,6.07,2.64,9.61a11.28,11.28,0,0,1-.61,2.24c-1.29,4.33-3.52,8.6,1.62,12.33a4.91,4.91,0,0,1,1.44,6c-.76,1.66.3,2.37,2,2.3,12.05-.54,19.91,5.75,25.52,15.71,2.92,5.19,1.3,8-4.59,8.38a59,59,0,0,0-8.37,1.48c-2.39.51-4.64,1-7.18.19-1.41-.43-4.52-.56-2.9,2.9s3.66,7-1.09,10.08c-3.94,2.59-10.09,3.47-13.87.82-2.6-1.82-5.27-3.55-7.26-6.31-3.3-4.58-12.41-3.67-15.51,1a57.12,57.12,0,0,1-29.69,23c-12.64,4.34-25.16,6.63-38.38,3.52-3.38-.79-7-.77-10.38-1.38-1.31-.24-1.57.38-2,1.19-.77,1.48-1.56,2.94-2.33,4.42-3.19,6.13-6.88,7.22-12.53,3.33C14.24,217.14,5.52,210,.69,199.24c-.74-1.67-1.28-2.79.54-4.32,2.23-1.88,2.6-5.47,6.06-6.56,1-.3.15-2.41-.36-3.54C1.09,171.88,1.79,159,6.75,146c2.79-7.35,5.22-14.82,9.7-21.36A155.11,155.11,0,0,1,31,107.09c1.78-1.92,3.16-3.93,6.23-3,.9.26,1.87.44,2.33,1.22,3.22,5.37,8.63,8.45,13.08,12.51,5.5,5,11.35,9.72,17.11,14.61m-4.84,81.43c9.08,1.11,17.55-3,26.09-6.25,9.81-3.78,16.54-11.37,22.17-20,.87-1.34,2.15-3,1.28-4.68-2.2-4.21-3.79-8.79-7.85-11.88-3.7-2.82-7.17-5.94-10.59-9.1-9.12-8.43-18.22-16.92-28.1-24.45s-19-15.87-28.08-24.3c-2.49-2.31-3.92-2.69-5.76-.41-4.35,5.4-8.38,11.07-12.67,16.52C15.84,136.39,14,145.1,11,153.25c-4.48,12-3,23.64,2.68,34.86a42,42,0,0,0,21.14,20.37c9.46,4.11,19.39,5.46,30.15,5.34m59.8-60.17,1.07.45c2.28-1.49,2.8-4.07,3.66-6.42,1.22-3.34,3.22-5.83,6.84-6.74,1.57-.4,2.41-1.4,3.29-2.9,1.84-3.13,2.16-6.62,3.25-9.92.73-2.22.46-3.85-2.53-4.48-4.56-1-5.4-3.08-3.57-7.18.63-1.42,1.24-2.85,1.73-4.32.77-2.34,1.81-4.92-.26-7-2.25-2.2-4.85-3.55-8.4-2.83-5.58,1.13-9.61,4.26-13,8.53-1.12,1.41-2.29,3.14-4.44,2.52s-3.14-2.56-3.42-4.75a11.66,11.66,0,0,1-.09-1.56c0-1.94-1-2.81-2.9-2.83-2.14,0-4.29.22-5.82,1.73-4.78,4.71-8.35,10.18-9.52,16.94-.21,1.24.13,2.61-1.49,3.27s-2.69-.39-3.7-1.39-2.27-2.12-4.08-1.61c-4.3,1.2-7.6,11.21-4.5,14.4,5.85,6,12.86,10.78,18.31,17.24.91,1.08,1.79,1.21,2.69-.32,4.39-7.56,8.71-15.14,15-21.37,3.87-3.8,8.75-4.68,13.35-1.78,3.16,2,4,7.34,2.1,11.86-1.4,3.39-2.4,6.94-3.59,10.42m33.18,21.15c4.31.25,9-1,13.66-2,2.19-.48,3.08-1.35,1.55-3.77-3.94-6.24-12.75-8.53-18.95-4.36-3.44,2.32-6.13,1-8.82-1s-3.51-4.4-2.27-7.53c.76-1.93,1.53-3.86,2.12-5.85.41-1.39.71-3.09-1.63-3-3.69.19-8.56,4.75-9.32,8.58-.57,2.84-6.31,6.82-8.85,6.12-3.93-1.08-7.41-6.45-7.09-10.55.36-4.53,3-8.24,4.36-12.38.45-1.37,1.48-3,.26-3.81s-2.53.61-3.61,1.61c-6.17,5.71-10.32,12.8-14.23,20.13-1.95,3.67-1.06,6,2.1,8.22a32.66,32.66,0,0,1,10.69,12.56,2.91,2.91,0,0,0,3.39,1.82c3.88-.39,7.32,1,10.8,2.58a25,25,0,0,1,9.43,7.19c2.21,2.71,5,2.09,8.92-.74,2.79-2,.85-3.45-.16-5.13-3.37-5.6-1.72-8.63,4.76-8.76.78,0,1.56,0,2.89,0M11.6,192.94c-2.38-.15-4.46,5-3.42,7A44.81,44.81,0,0,0,24,217.53c1.51,1,2.92,3.11,4.82.46,2.58-3.59,2.76-6.59.29-8.21-6.17-4.07-12.14-8.34-16.06-14.86a21.77,21.77,0,0,0-1.45-2"/><path class="cls-1" d="M70.33,12c4.84.31,9.4,1.27,12.69,5.31,1.56,1.91,4,2.33,6,3.57A180.17,180.17,0,0,1,115.52,41a15.84,15.84,0,0,0,5.11,3.46c3.18,1.14,3.46,3.45,2.73,5.92-1.44,4.89-3.64,9.39-7.61,12.88C107.47,70.59,98.54,77.06,90,84a20.21,20.21,0,0,1-8.25,4c-2.28.56-4.1.15-5.08-1.58-3.75-6.6-9.2-12-12.92-18.63-4.64-8.31-8.38-17.1-13.41-25.21-1.15-1.86-2.16-2.44-4.2-2.44-4.65,0-8.25-1.81-10.13-6.43-1.28-3.12.67-5.65,1.52-8.2C39.94,18.41,42,11,48.51,6.09,52,3.5,55.64,1.25,59.85.33,68-1.45,72.89,4.15,70.33,12M62.57,35.29c1.74,1.38,3.8,1.57,4.88,3.15C74.84,49.3,85.12,57.65,93.15,68c1.59,2.06,1.77,3.33.08,5.06-1.9,2-3.55,1-5-.51-8.87-8.87-17.57-17.89-26-27.22-1.79-2-3.66-3.92-5.5-5.88.82,4.81,4.21,8.08,6,12.18C67.37,62.54,74.29,72,81.41,81.44c1.86,2.46,3.27,2,5,.22,5-5.2,10.87-9.46,15.83-14.77,3.29-3.52,6.6-7.29,11-9.67s4.36-7.21.4-10.57C103,37.6,91.22,30.14,79.91,22c-1.61-1.17-3.47-1.22-4.41.42s-3.74,2.95-1.37,5.26A87,87,0,0,0,90.05,40.42c5.66,3.39,9.82,8.78,15.94,11.51a2,2,0,0,1,1,3,2.63,2.63,0,0,1-3.34,1.25c-.72-.26-1.39-.69-2.13-.9-5.33-1.53-8.56-6.13-13-8.89-6.29-3.88-12-8.54-18.54-12.21-3.91-2.2-5.07-1.9-7.35,1.12M46,17.36c-1.22,3.76-2.43,7.05-3.34,10.43-.69,2.6-.14,5.13,2.62,6.18,2.46.93,3.19-1,4.52-2.86C53.09,26.39,55.9,21,60.88,17.76c3.22-2.08,5.93-3.26,4.41-8.21-1.14-3.7-3.09-5.79-7-4.71C51.56,6.74,48.79,12.31,46,17.36m7.86,18.89c6.08-3,10.79-7.59,15.65-11.94a5.62,5.62,0,0,0,2.16-4c0-1.15.38-2.39-.79-3.21s-2.13-.12-3.2.43c-7.7,4-10.52,11.52-13.82,18.72"/><path class="cls-1" d="M212.55,205.82c1.25,2.23,3.83,2.86,5,5.06.64,1.23,1.26,2.32.63,3.6-.8,1.64-2.48,1-3.47.63-3.11-1.21-4.2-.52-4.78,2.93-.74,4.44-4,7.08-8.34,8.36-3.32,1-6.46,2.08-10.12,2-8.59-.18-17.51-11.48-17.65-17.72-.23-10.42,8-16.51,18-16.54a18.67,18.67,0,0,1,6.83,1.21c3,1.2,4.32-.11,5.28-2.59.5-1.28.57-3,2.64-2.69,1.83.3,2.54,1.62,2.72,3.33a6.76,6.76,0,0,1,.2,1.15c-.18,4,1.51,4.06,4.3,2.15,2.1-1.45,4.34-2.3,6,.54s.3,4.87-2.51,6.15c-1.52.69-3,1.55-4.62,2.43m-12.06,13.79c4.7-2.45,5.16-3.94,2.95-8.92a88.11,88.11,0,0,1-3.81-9.3,4,4,0,0,0-3.65-2.94c-5.74-.76-14.83,4.6-17,10.05a7.69,7.69,0,0,0,1.7,8.92c5.42,5.48,12,6.27,19.82,2.19"/><path class="cls-1" d="M209.88,86.25a11,11,0,0,1-.5,2.32,16,16,0,0,0,1.41,15.51c2.06,3.19-.08,5.13-1.32,7.31s-3.37,1-5.23.66a20.67,20.67,0,0,1-6.86-3.08c-3.4-2.1-7.55-2.57-11.53-2.6-12.86-.09-22-6.44-29.2-16.53-1.92-2.7-1.42-5.94-2.26-8.88a46.74,46.74,0,0,0-9.16-17.76c-2.65-3.13.36-5.52,1.31-8s3.15-1.49,5-.78c1.57.6,3.26,1,4.38,2.41,2.79,3.44,6.2,2.77,9.87,1.82,5-1.29,9.77-3.3,15-3.86,8.31-.88,17.92,4.19,22.28,11.53,3,5.11,5.77,10.21,6.74,16.16a19.57,19.57,0,0,1,.07,3.8m-6.73-.1c.76-9.74-3-16.78-8.63-22.77-1.86-2-5-4.77-8.61-1.6a4,4,0,0,1-3.66.56c-2.63-1.6-4.55.07-6.86.61-4.46,1-8.6,3.92-13.62,2.23-3-1-5.93-1.72-7.8-4.61-.62-1-2.44-2.26-2.89-.73s-1.88,3.21,0,5.26c2.78,3,5.76,6,7.07,10.06,1.36,4.25,3.16,8.35,4.15,12.74,1.35,6,8,12,14,12.3,8.49.48,16.79,1.38,24.09,6.35a2.69,2.69,0,0,0,3.58-.24,2.56,2.56,0,0,0,.62-3.18c-2.62-5.85-4-11.8-1.47-17"/><path class="cls-1" d="M178.87,73.57c-.64,1.84-.69,4.63-4.05,4.26-2.43-.27-4.56-1.72-3.94-4.22.49-2-.39-5.5,3.38-5.56,2.45,0,4.83,2.81,4.61,5.52"/><path class="cls-1" d="M183.21,89.34c-.64,1.85-.7,4.63-4.06,4.26-2.42-.27-4.56-1.72-3.94-4.21.49-2-.38-5.51,3.39-5.57,2.44,0,4.83,2.81,4.61,5.52"/></g></g></svg>