<svg xmlns="http://www.w3.org/2000/svg" viewBox="0 0 95.84 87.44"><g id="레이어_2" data-name="레이어 2"><g id="레이어_1-2" data-name="레이어 1"><path d="M89.91,7.87a8.12,8.12,0,0,1,4.76,0c.57.16,1.27.12,1.16,1a1.44,1.44,0,0,1-1.12,1.42c-2.39.65-4.48,2.17-7,2.39a1.29,1.29,0,0,0-1.24.85c-.16.65.28,1.07.75,1.48.94.83,1.88,1.67,2.73,2.58.51.54,1.27,1.29.52,2-.6.58-1.36,0-1.92-.47-1.12-1-2.25-2-3.35-3-1.65-1.53-2.32-1.53-3.59.33S79.31,20.21,78.13,22c-.31.48-.78,1.47-1.43.73-.5-.55-1.56-1.17-.92-2.32.85-1.54,2.11-2.83,2.62-4.65-1-.5-1.59.33-2.21.75a1.75,1.75,0,0,1-2.89-.79c-.48-1.14.71-1.55,1.55-1.8,1.31-.4,2.06-1.55,3.13-2.25.85-.56-.14-1.08-.75-1.12a5.53,5.53,0,0,1-3.57-1.9.89.89,0,0,1-.35-1,.88.88,0,0,1,1.17-.45c.93.33,1.84.74,2.77,1.08a.72.72,0,0,0,.89-.2c.23-.36-.1-.6-.32-.83C77.09,6.5,76.3,5.81,75.64,5c-.46-.56-.85-1.38-.31-2,.71-.79,1.29,0,1.81.47.76.72,1.5,1.46,2.36,2.29.1-1.49-1.18-2.28-1.45-3.48-.11-.49-.59-1.06.12-1.37s1,.31,1.19.78c.71,1.54,1.38,3.11,2.28,5.16a32.56,32.56,0,0,0,.48-5.38c0-.51-.28-1.35.51-1.49.63-.11.93.65,1.34,1,.16.16.16.49.22.74.14.63,0,1.6.71,1.69S86,2.71,86.16,2s.38-1,1.07-.81a1,1,0,0,1,.63,1.29c-.14.64-.37,1.26-.53,1.89S87,5.63,87.67,6a1,1,0,0,0,1.51-.5c.53-1.2,1.85-1.13,2.72-1.79.56-.42,1.19,0,1.55.46s-.07,1-.48,1.29c-1,.82-2,1.62-3.06,2.43"/><path d="M61.05,29.12l7.29,3.34c.61.28,1.7.28,1.24,1.31-.35.81-1.32.83-2.1.51-1.58-.64-3.14-1.36-4.69-2.09a5.28,5.28,0,0,0-2.61-.63c.37,1.58,1.85,2.6,2,4.22,0,.65.24,1.3.28,1.95,0,.44,0,1-.6,1.11s-.75-.22-1-.56a19.18,19.18,0,0,1-2-4.25c-.2-.6-.5-1.43-1.16-1.49-.89-.08-.73.91-1,1.47-.51,1.21-1,2.46-1.47,3.66-.24.55-.69,1.12-1.37.7s-.23-.93.09-1.35a4.26,4.26,0,0,0,.86-2.19c.1-1.2,1.29-2.75.33-3.48s-2.64.17-4,.51c-.89.22-2.1,1.47-2.55.33s1.23-1.31,2.15-1.68,2.31-.39,2.33-1.38c0-.8-1.45-.5-2.2-.82s-1.76,0-1.6-1c.12-.76,1.08-.41,1.72-.44,1.22-.06,2.86.89,3.55-.15s-.79-2.33-1.13-3.57c-.21-.75-1.37-1.54-.44-2.23s1.57.44,2.22,1a5.51,5.51,0,0,1,1.09,1.85c.2.38.49.89,1,.87s.53-.66.67-1.07a3.92,3.92,0,0,1,1.06-2.08c.26-.21.55-.41.89-.25s.27.54.19.86c-.29,1.29-.61,2.56-.87,3.86-.23,1.14.08,1.73,1.35,1.15l.56-.22c.71-.28,1.67-.44,1.94.24s-.77.85-1.27,1.19c-.31.21-.79.2-.82.77"/><path d="M83.17,56.65,83,56.58c-1-.32-2.46-.62-2.11-1.86.39-1.41,1.78-.6,2.7-.31a7.23,7.23,0,0,1,2.92,1.07c.78.67,1.45.18,1.92-.61.69-1.2,1.41-2.38,2.11-3.57.32-.54.74-1,1.42-.69s.4,1,.21,1.41a32.12,32.12,0,0,1-1.94,3.84c-.55.88-.8,1.41.47,1.8a6.16,6.16,0,0,1,1.85,1.11c.49.38,1.18.8.72,1.6s-1,.48-1.58.29l-.18-.06c-3.88-1.24-4.6-.9-6.44,2.79-.29.57-.26,1.94-1.39,1.39-.89-.43-.59-1.52-.2-2.31a13.72,13.72,0,0,1,1.06-1.66c1.77-2.6,1.61-3.1-1.35-4.16"/><path d="M90.26,39.24c-.62-.22-1.06-.35-1.48-.55-1.34-.61-1.88-.29-1.54,1.22a5.79,5.79,0,0,1,0,1.38c0,.48-.16,1-.76,1s-.7-.42-.83-.9c-.66-2.47-.67-2.47-2.84-1a5.84,5.84,0,0,1-1,.59c-.37.16-.81.78-1.16.17s.37-.71.72-.95c.8-.58,1.64-1.11,2.42-1.71,1-.77,1.61-1.56-.21-2.07a4.74,4.74,0,0,1-.74-.29c-.43-.19-.93-.39-.76-1s.61-.45,1-.39c1.45.2,3-.67,4.37.9.57.68,1.45-.79,2.32-1.05a4.2,4.2,0,0,0,1.23-1,.8.8,0,0,1,1.33.2c.42.64,0,1-.53,1.22-.82.37-2.16.5-2.05,1.53s1.44,1.38,2.36,1.84c.35.18.73.3,1.09.46s.6.36.47.75a.76.76,0,0,1-.79.48,4.87,4.87,0,0,1-2.61-.83"/><path d="M31.53,60.65c-2.1-1.15-2.74-3.11-3.29-5C27.8,54,27.9,52.48,30,52c.59-.13,1.15-.46.85-1.08s-1-1.17-1.57-.49A1.6,1.6,0,0,1,27,50.6c-.75-1.48-2.28-1.2-3.4-1.58-1.79-.62-.93-3.3-3-3.45-1.15-3.57-3.41-6.83-2.82-10.9.21-1.45,1.72-3.12-.25-4.51-.09-.06-.05-.52.08-.65,1.43-1.43.64-3.69,1.95-5.17.2-.23.74-.51.3-.91a.92.92,0,0,0-1.25.08c-1.14.87-1.94,2.07-3,3S12.78,28.84,12.52,30c-.59,2.54-3.25,3.45-3.74,6-.54,2.86-2.26,5.4-3.29,8.18-2.21,6-2.05,12.06-1.27,18.19A19.83,19.83,0,0,0,8.63,72.1c3.69,4.71,8.11,8.39,13.95,10.32a28.49,28.49,0,0,0,13.91,1.11A24.14,24.14,0,0,0,49,77.64c2-1.84,4.37-3.33,6.54-5,2.86-2.21,4.7-5.29,6.7-8.2.59-.85,1.62-1.93.68-3.47a3.28,3.28,0,0,1-2.38,3c-.84.28-.25-1.2-1-1.52,0,1.56-1.76,3.66-2.16,3-1.06-1.65-1.43-.07-2,.23S54,67,53.32,67c-3.94,0-7.88,1.62-11.8,0-1.65-.67-3.78-.38-5-1.63-1.6-1.62-2.68-1.08-4.13,0a6.21,6.21,0,0,1-6.75.05c-1.73-1-2.26-.12-2.73.86A11.22,11.22,0,0,1,20.2,69.6c-1.09,1-2.29.3-3-.6s-.22-1.81.89-2.16c.78-.24.95-.87,1.3-1.47a11.66,11.66,0,0,0,1.5-4.61c.24-2,.38-3.71-1.22-5a3.64,3.64,0,0,0-4.88.2c-.82.68-1.3.53-1.63-.52-.27-.85-.63-1.94.14-2.33,1.06-.54,2.26-1.21,3.63-.74a9.52,9.52,0,0,1,6.67,7.06,3.77,3.77,0,0,0,3.56,3.22c1.81.2,2.72-1.4,4.33-2m5,26.43c-4.61,1.11-8.88-.57-13.13-1.71a26.45,26.45,0,0,1-9-5C9.36,76.55,5.06,72,2.38,66.21,1.24,63.75.87,61,.28,58.39c-.9-4,.64-7.82.7-11.74,0-2.17,1.14-4.43,2.15-6.45,2-4,4.26-8,6.51-11.89,1.18-2.07,3.5-3,5.13-4.6a48.75,48.75,0,0,1,17.74-11.4c.87-.31,2-.53,3-.79,1.79-.45,1.93,2.09,3.54,2,0,1.12-.94.92-1.47,1a14.89,14.89,0,0,0-8.9,3.64c-7.38,6.36-9.16,14.34-6.82,23.46a11.79,11.79,0,0,0,2.79,4.84c1.88,2.07,4.39,1.13,6.57,1.11a8.54,8.54,0,0,0,4.6-1.93,3.53,3.53,0,0,1,.57-.38c.7-.33-1.08-2.48.92-1.53,1,.46,2.52,1.7,1.85,3.35s-1.27,3.73-3.06,4.74c-1.19.68-1.06,2.16-2.33,3-.74.47-.52.88-1.61.38-.67-.3-.63,1.3-.47,1.94.6,2.47,6,6.88,8.46,6.75,6-.3,12.07,0,17.65-3.2,4.1-2.35,7.09-5.66,9.91-9.26.55-.7.67-2.43,1.88-1.72A3.22,3.22,0,0,1,71.42,53c-.71,3.13-1.68,6.16-3.91,8.59a4.41,4.41,0,0,0-1.35,2.51C65.82,67,63,68.77,62.68,71.65c0,.25-.38.65-.59.65-2.61,0-2.89,2.74-4.45,3.76C52,79.73,47.38,85,40.53,86.63a20.73,20.73,0,0,1-4,.45"/></g></g></svg>