<svg xmlns="http://www.w3.org/2000/svg" viewBox="0 0 100.02 64.34"><g id="레이어_2" data-name="레이어 2"><g id="레이어_1-2" data-name="레이어 1"><path d="M68.39,40.12a5.91,5.91,0,0,0-3.71-6.4c-1.42-.69-2.93-.48-4.37-.7a6.38,6.38,0,0,0-5.24,1.35c-1.32,1-3,1.86-3.32,3.82-.25,1.31-1.8,2-2,3.4-.52,4-2.29,7.79-1.74,12,.15,1.12.21,1.65,1.43,1.48a6.55,6.55,0,0,1,1.4,0A2.64,2.64,0,0,0,54,52.48a17.09,17.09,0,0,1,2.57-8.7c.65-1.15,1.82-1.3,2.51-.14a2.23,2.23,0,0,1,.33,2.47c-.87,1.28-.63,2.91-1.59,4.2a2.39,2.39,0,0,0,.16,2.82c.61.71,1.67.27,2.12-.11,2-1.7,5.8-1.23,5.94-5.12,0-.68.81-1.4,1.37-2a1.56,1.56,0,0,0,.55-1.2c0-1.65.63-3.23.47-4.59M45.82,55c-1.56-3.54-1.14-6.69-.43-10,.59-2.75,1.93-5.14,2.82-7.72.18-.54,1.25-.94,0-1.4.4-1,.78-2.32,1.72-2.7,1.51-.62,2.3-2.12,3.64-2.68,2.36-1,4.55-2.41,7.59-1.39a18.73,18.73,0,0,1,4.76,2.18,8.74,8.74,0,0,1,3.75,4.66c.41,1.34,1.74,2.18,2,3.66.06.38.91.25,1.14-.36a6.7,6.7,0,0,1,3-3.12c.24-.15.62-.51.58-.61-.9-2,1-1.64,1.78-2.11a15,15,0,0,0,2.31-1.61,9.14,9.14,0,0,1,4.11-1.69,23.23,23.23,0,0,1,10.25-.56c2.37.45,3.62,2.41,5,4.09.53.63-.1,1.21-.59,1.64-.64.56-.83-.14-1.23-.45-2-1.52-4.19-2.5-6.83-1.9-1,.22-1.91-.15-3,.18a22.62,22.62,0,0,0-8.81,4.57c-3.61,3.22-4.16,7.55-3.06,12.06a25.43,25.43,0,0,0,2.52,6.17A2.46,2.46,0,0,0,80.1,57a15.79,15.79,0,0,1,2,.82c.7.38,1.81.81,1.37,1.74s-1.47.43-2.27,0c-1-.49-2.2-.45-2.87-1.54.78,1.75,2.41,2.67,3.61,4,.39.42,1,.72.65,1.46a1.39,1.39,0,0,1-1.59.82,4.33,4.33,0,0,1-2-.58,15.6,15.6,0,0,1-7.09-9.17c-.65-2.28-1-2.41-2.82-.88a13.64,13.64,0,0,1-7,3.23,14.91,14.91,0,0,0-3.44,1.31c-1.59.66-3.39.06-4.95.81-3.34,1.6-6.71.52-9.88-.26a20.89,20.89,0,0,1-8.08-4c-1.08-.87-2.9-.87-3.3-2.38-.26-1-1-1.18-1.56-1.76s-.79-.39-1.13.14c-1.36,2.19-2.89,4.46-5,5.76-1.82,1.11-3.07,3.55-6,2.94-1.68-.35-3.53.73-5.28-.4-.55-.37-1.26-.44-1.08-1.28s.91-.45,1.44-.43a12.1,12.1,0,0,0,7.18-2.1c2.27-1.39,3.67-3.32,5.32-5.2.86-1,.66-2.11,1.16-3.1,1.67-3.35,1.72-7,1.14-10.53a8,8,0,0,0-4-5.33,14.79,14.79,0,0,0-12.6-1.85,8.47,8.47,0,0,0-6.36,7.86c-.09,1,0,1.63-1.23.89a.68.68,0,0,0-.93.22c-1,1.21-1.87.45-2.78-.08-.61-.36-.88-.83-.35-1.43,2.21-2.52,2.57-6.28,5.63-8.22.14-.09.24-.4.33-.39,1.74.22,2.64-1.5,4.1-1.78,3.83-.73,7.7-1,11.37.71,4.13,1.87,7.82,4.52,9.41,8.8,1,2.7,2,5.78.82,8.86a2,2,0,0,0,.39,2.13c1.79,2,3,4.3,5.48,5.8s5,1.81,8,2.36"/><path d="M67.64,21.87c.17-.08.45-.12.58-.29,1.63-2.12,4.25-3.26,5.6-5.64.25-.44.77-.87.42-1.42s-.94-.32-1.45-.18c-2.08.53-5.65,5-5.56,7,0,.25,0,.47.41.5m-3.9,1.69a16.59,16.59,0,0,1,6-10.57c2.31-1.87,6.54-.21,7.17,2.68C77.22,17,75.81,17.9,75.1,19a8.49,8.49,0,0,1-3.9,3.32c-.6.24-.9,1-1.23,1.66-.61,1.17-1.37,2.19-2.81.86-.39-.35-.78-.3-1,.19s-.15,1.34-1,1a2.13,2.13,0,0,1-1.31-1.55,5.06,5.06,0,0,1-.07-.88"/><path d="M79.42,22l2.24.16c2.76.22,4.45-.6,5.47-2.64.57-1.16.18-1.94-1.1-1.77s-3.13-.08-4,1.63a1.84,1.84,0,0,1-1.3.83A1.54,1.54,0,0,0,79.42,22m5.83,2.38c-2.25.8-4.67.28-7.1-.18a.84.84,0,0,0-.67.14c-1.46,1.73-1.88,0-2.56-.77-.93-1-.2-1.79.52-2.37a70.67,70.67,0,0,0,5.14-5.1c1.91-1.87,6.25-1.32,7.77.89,2.19,3.19,2,4.38-1.43,7.14a1.4,1.4,0,0,1-1.67.25"/><path d="M88.05,1.27c-2,.86-4.11,1.68-5.23,3.91-.38.75-.5,1.61-1.46,2.07A1.23,1.23,0,0,0,81,8.94c.41.5,1,0,1.44-.17a61.75,61.75,0,0,0,6.95-3.36c1.09-.6,2-1.26,1.58-2.74s-1.75-1.08-2.91-1.4m-9.82,9a6.69,6.69,0,0,1,.83-3C80.84,4.56,82.88,2,86,.65c2.72-1.15,5.07-.92,6.4,1.87.84,1.76.52,2.92-1.22,3.93a14.21,14.21,0,0,1-2.5,1.31c-2.53.84-4.61,2.46-6.87,3.78a5.64,5.64,0,0,1-1.47.55c-1.59.42-2.19-.07-2.15-1.79"/><path d="M8.76,38.67a13.51,13.51,0,0,1,.56-2.36,2.52,2.52,0,0,1,1.21-1.41c.71-.2.68,1,.94,1.11,2.6,1.18.68,3,.69,4.45,0,.82-.58,1.24-1.3,1.47-.95.29-.76-.67-1.1-1a4.38,4.38,0,0,1-1-2.23"/><path d="M15.57,45.43c0,.06,0,.29.07.52.06.94,0,2.21-.8,2.46-1.16.34-1.73-.95-2.26-1.82a6.71,6.71,0,0,1-.43-1.67c-.19-.71-.75-1.44,0-2.12a2.32,2.32,0,0,1,2.57-.54,2,2,0,0,1,.78,2.31,3.8,3.8,0,0,0,0,.86"/><path d="M99.57,47.34c-.34.88.1,2.4-1.66,2.28-1.42-.09-2.85-1.47-2.56-2.59s.31-2.34,1.84-2.34c1,0,2.44,1.7,2.38,2.65"/><path d="M93.9,41.2c-.24.74-.29,1.77-1.19,2s-1.12-.85-1.68-1.29c-1.59-1.24-.26-2.81-.56-4.19-.13-.62.77-.46,1.26-.27A4.29,4.29,0,0,1,93.9,41.2"/><path d="M2.82,43.76c.11-.53.15-1.18.83-1.37a1.12,1.12,0,0,1,1.41.71c.58,1.15,1.53,2.1.82,3.65-.31.69-.56,1-1.26,1.1a1.16,1.16,0,0,1-1.29-1.14,14.59,14.59,0,0,0-.51-3"/><path d="M83.52,48.11a13.11,13.11,0,0,1,.57-2.36,2.49,2.49,0,0,1,1.2-1.42c.71-.2.68,1,.95,1.11,2.59,1.18.67,3,.68,4.45,0,.82-.57,1.25-1.3,1.47-.94.29-.75-.67-1.1-1a4.47,4.47,0,0,1-1-2.22"/></g></g></svg>