<svg xmlns="http://www.w3.org/2000/svg" viewBox="0 0 183.1 229.33"><defs><style>.cls-1{fill:#1c1c1b;}</style></defs><g id="레이어_2" data-name="레이어 2"><g id="Layer_1" data-name="Layer 1"><path class="cls-1" d="M161.19,113.91A19.94,19.94,0,0,1,172,109.17c1.44-.23,3-1,3.64,1.06.5,1.6.52,3-1.08,4.34-4.71,3.9-7.86,9.46-13.4,12.54-1,.56-2.2,1.71-1.92,3.18.3,1.65,1.72,2.14,3.2,2.59,3,.89,5.92,1.83,8.78,3,1.7.71,4.18,1.61,3.22,4-.76,1.93-3,1.43-4.8.89-3.55-1.09-7.1-2.19-10.63-3.36-5.25-1.75-6.77-1.07-7.74,4.42-.93,5.28-1.32,10.65-2.12,16-.22,1.4-.27,4.1-2.49,3.11-1.67-.74-4.7-1-4.43-4.3.34-4.32,1.86-8.53,1.17-13.13-2.73-.14-3.24,2.35-4.23,3.94-2.09,3.38-5,3.32-7.3,1.16s0-4.21,1.66-5.65c2.54-2.23,3-5.57,4.74-8.25,1.35-2.12-1.41-2.27-2.83-1.74-3.48,1.3-6.71.56-10-.63-1-.36-1.83-.89-1.83-2a2.15,2.15,0,0,1,2.18-2.21c2.43-.21,4.88-.21,7.31-.39a1.81,1.81,0,0,0,1.83-1.36c.15-1-.85-1.26-1.59-1.54-2.39-.93-4.88-1.67-7.18-2.8-1.6-.78-3.32-2.23-2.7-4.16.79-2.49,2.89-1.31,4.54-.76,2.45.83,4.88,1.75,7.64,2.74-1.28-3.44-5-3.94-6.8-6.37-.74-1-2.4-1.77-1.13-3.18,1.12-1.25,2.5-.31,3.47.52,3.18,2.75,6.27,5.6,10.4,9.32-1.62-5.05-2.47-9-4.39-12.62-.6-1.13-2-2.75-.37-3.87,1.3-.91,2.74.51,4.08,1,.52.18.86.92,1.24,1.44.95,1.26,1.66,3.58,3.33,3.08s1.65-2.84,1.33-4.6c-.26-1.45-.19-2.72,1.59-2.92,1.57-.17,2.43.86,2.73,2.26.33,1.58.45,3.21.73,4.81s.61,3.11,2.39,3.26a2.54,2.54,0,0,0,2.89-2.66c0-3.25,3-4.45,4.31-6.81.83-1.53,2.68-1.22,4-.56,1.59.82.82,2.24.24,3.4-1.45,2.88-3,5.73-4.43,8.6"/><path class="cls-1" d="M145.68,12c1.42-4.07-1.36-7.72-.56-12,3.62,2.3,3.2,6.15,4.65,9,.86,1.68.9,4.4,3.13,4.45,1.77,0,1.64-2.55,2.11-4,.6-1.84,2.31-2.73,3-4.4.57-1.36,1.43-3,3.09-2.55,2,.49,2.21,2.43,2.48,4.31.34,2.38-1.74,5.6.41,6.9,2.41,1.45,5.65-.32,8.5-.75,2.38-.36,4.59-1.6,7.1-1.61,1.31,0,2.75-.38,3.27,1.28a2.8,2.8,0,0,1-1,3.5c-3,1.91-4.85,5.36-8.38,6.64-3.14,1.13-2.76,2.68-.61,4.52a17.68,17.68,0,0,1,2.13,2,4.34,4.34,0,0,1,.82,5c-1,1.89-2.75.89-4.34.62a29.09,29.09,0,0,1-7-2.6c.9,4.79,1.75,9.35,2.59,13.9.26,1.42.89,3.26-1,3.74-2.35.58-2.62-1.82-2.76-3.17-.4-3.74-1.08-7.29-3.39-10.62-1.07,5,.2,9.91-1.08,14.63-.38,1.41-.4,3.23-2.37,3.13-1.78-.09-2.17-1.75-2.4-3.23-.65-4.17-1.46-8.33-1.79-12.53-.2-2.55-.95-4.48-3.32-5.44s-3.42,1.12-4.7,2.51A7.31,7.31,0,0,1,142.49,37c-1.19.63-2.48,2.22-3.85.63-1.1-1.28.26-2.46.94-3.46,2.07-3.08,4.29-6.05,7.17-10.05-4,1-6.76-1.28-9.86.55-1.06.61-2.88.06-4.32-.17-1.11-.18-2.3-.6-2.47-2-.21-1.66,1.1-2.34,2.31-2.71,2.33-.7,4.74-1.12,7.1-1.7s3-1.73,1-3.62c-1.3-1.22-2.53-2.54-3.75-3.86-.81-.89-1.37-1.92-.48-3.06a2.27,2.27,0,0,1,3.44-.44c2,1.53,3.9,3.2,6,4.93"/><path class="cls-1" d="M18.5,200.09c1.49-6.41,3-12.85,4.46-19.31.38-1.62-.16-4.25,2.56-3.67,2.13.47,2.67,2.8,2.29,4.84-.78,4.16-1.73,8.29-2.72,12.4a13,13,0,0,0-.24,6.63c3.65-1.69,5.37-5.77,9.25-6.82,1.56-.42,3-1.24,4.59-1.65,1.05-.27,2.36-.47,3,.9.47,1.06-.15,1.91-.87,2.59A46.82,46.82,0,0,1,31.5,203c-1.36.77-3.21,1.93-3,3.54.25,2.21,2.57,1.32,4,1.6,3.19.62,6.41,1.06,9.59,1.74,1.46.31,3,1.1,2.38,3s-2.15,1-3.33.46a10.45,10.45,0,0,0-5.71-1c-3,.37-7.32-1.75-8.6,1s1.74,6.29,3.21,9.33c1,2,4.6,4.34,2.07,6s-3.77-2.33-5.12-4.36-2.12-5.4-4.52-4.95c-1.93.36-.5,3.75-.89,5.74-.31,1.59.87,4.26-1.65,4.37-1.88.08-1.53-2.42-1.92-4-.75-2.91.73-7.35-2.13-8.5-3.12-1.26-5.26,3.07-8.08,4.52-1.71.87-3,4.07-5.17,2.17-2.27-2,.26-4,1.41-5.9C5,216,6.57,215.2,8,214.1c.84-.67,1.93-1.63,1.63-2.83-.37-1.44-1.87-1-2.93-1.08C4.72,210,2.72,210,1.1,208.65c-.63-.53-1.28-1.11-1.06-2,.26-1.06,1.19-.92,2-.9,3.26.06,6.52.2,9.78.19,2.87,0,4.14-1.06,2.12-3.85-.29-.4-.53-.82-.8-1.23-1.05-1.58-1.92-3.82-.4-4.84,1.67-1.11,2.43,1.46,3.51,2.5.66.64.88,1.82,2.26,1.59"/><path class="cls-1" d="M84.92,65.73c2.29.86,4.17,2.74,6.85,3,1,.12,1.94.65,1.78,1.88a1.75,1.75,0,0,1-2.2,1.43c-2.9-.37-5.81-.8-8.66-1.42-2.35-.51-3.61,0-3.06,2.61.72,3.46.77,7.13,2.8,10.24.6.93,1.64,1.93.34,3-1.12.88-2.14,0-3.1-.62a6.56,6.56,0,0,1-2.4-3c-3-6.43-6.19-8-13.18-6.64-1.38.27-2.7.46-3.42-1-.87-1.74.69-2.14,1.76-2.85,2-1.36,3.94-2.84,6.13-4.41-2.16-2.27-5-2.46-7.36-3.7-.76-.4-1.47-.88-1.17-1.86s1.25-.82,2-.65c1.27.27,2.51.68,3.79.9,3.52.61,5.5-.6,4.68-4.46-.56-2.62,0-4.25,3-4.14,2.67.09,5.87-.58,6.45,3.44a23.89,23.89,0,0,1,0,2.93c0,1-.14,2.08.89,2.61,1.23.63,1.65-.57,2.28-1.24s1-1.43,1.69-1.67c1.81-.64,4.44-2,5.44-.26,1.41,2.48-2,2-3.08,3-.81.75-2,1.18-2.24,2.81"/><path class="cls-1" d="M32.16,133h-.48c-2.6.11-6.24.66-6.5-2.52-.29-3.6,3.64-2.92,6-3,2.53-.12,5-1,7.69,0,2.38.88,3.53-.82,3.93-3.06.59-3.37,1.25-6.72,1.87-10.07.28-1.54.83-3,2.69-2.82s1.77,1.92,1.7,3.1a81,81,0,0,1-1.23,10.55c-.52,2.52-.66,4,2.62,3.79a15.16,15.16,0,0,1,5.24,1c1.45.48,3.43.86,3,3.11-.32,1.86-1.91,2-3.43,2l-.49,0c-10,.43-11.43,1.84-12.56,11.95-.18,1.58,1.06,4.74-2,4.41-2.42-.25-2.66-3-2.43-5.19a34.18,34.18,0,0,1,1.05-4.75C40.74,134,39.94,133,32.16,133"/><path class="cls-1" d="M100.47,191.48c-1.63,0-2.77.07-3.91,0-3.62-.28-4.6.91-2.54,4.15a13,13,0,0,1,1.17,3.18c.35,1.16.44,2.35-.91,2.92s-2-.38-2.7-1.38c-3.64-5.16-3.66-5.14-7.48,0a17,17,0,0,1-1.88,2.25c-.73.68-1.23,2.5-2.57,1.38s.27-2,.86-2.82c1.38-2,2.87-4,4.17-6,1.69-2.66,2.41-5-2.26-4.63a14.29,14.29,0,0,1-2,0c-1.14-.08-2.49-.13-2.57-1.62-.06-1.13,1-1.56,2-1.77,3.55-.78,6.42-4.13,10.9-1.62,1.92,1.08,2.7-3.07,4.5-4.41,1-.72,1.41-2.15,2-3.28.84-1.48,2-1.61,3.24-.67,1.53,1.13.81,2.32-.18,3.28-1.6,1.56-4.59,3-3.45,5.29s4.49,2,7,2.28c1,.11,2,.05,2.93.12s1.69.34,1.71,1.35a1.84,1.84,0,0,1-1.41,1.79,12.13,12.13,0,0,1-6.76.3"/></g></g></svg>