<svg xmlns="http://www.w3.org/2000/svg" viewBox="0 0 150 84.5"><g id="레이어_2" data-name="레이어 2"><g id="레이어_1-2" data-name="레이어 1"><path d="M131.43,53.93a6.09,6.09,0,0,0-.11-.64c-.38-1.28-1.66-1.35-2.54-2-.13.6-.71.81-1,1.25s.07.56.36.75c.67.41,1.32.84,1.95,1.31.31.24.4.92.91.72s.23-1,.45-1.43M109,42.3a3.81,3.81,0,0,1-.8.13,2.37,2.37,0,0,0-2.18,1,.63.63,0,0,0,.3.94c.85.4,1.71.86,2.66.26a3.36,3.36,0,0,0,.42-.22c.42-.37,1.18-.73,1-1.31A1.47,1.47,0,0,0,109,42.3m-34-24a14.26,14.26,0,0,0,5.81-2.71.8.8,0,0,0,.18-.89c-.12-.44-.45-.36-.76-.36-1,0-1.87-.12-2.37,1.09-.22.54-.71,1.39-1.56.51.2,1.18-.47,1.35-1.39,1.24a6.87,6.87,0,0,0-.08.78c0,.31.19.33.17.34M85.75,78.4c1.63.17,2.2-2,4-1.55.19.05,1.11-.19,1.18-.85s-.68-.75-1-.79A30.56,30.56,0,0,0,85.53,75a.94.94,0,0,0-.2,1.87c.94.32.83.92.42,1.57m37.53-24.34a.4.4,0,0,0,.49-.29c.67-1.82,1.72-3.51,1.88-5.48a2.44,2.44,0,0,1,.56-1.77c.78-.68.06-1.89,1-2.47-.15,0-.35-.16-.45-.1a4.13,4.13,0,0,0-1.59,2.21c-.44,1-.31,2.5-1,3.13-1.14,1-1.1,2.36-1.61,3.54-.33.76.09,1.09.76,1.23M99.9,33c-.61.71-1,.49-1.42,0s-.8-1-1.22-1.46a1.13,1.13,0,0,0-1.57-.22c-.5.32-.63,1.14-.33,1.39.82.69.48,1.55.61,2.36s.47,1.66,1.09,1.84a1.66,1.66,0,0,0,1.79-1A9,9,0,0,0,99.9,33m5.49,5.37c.46-.05.92.09,1.37-.2.74-.47,1.68-.72,1.58-1.91s-1.07-1-1.81-1.3c-1.71-.72-3,.82-4.5.76-.22,0-.32.41-.14.51,1.2.66,1.83,2.28,3.5,2.14m-2.14,3.45a23.07,23.07,0,0,0-1.71-2.06c-.68-.67-.77.37-1.17.53a2.45,2.45,0,0,1-.89.19,3.06,3.06,0,0,0-2.89,2.92c0,.5.23.88.79.64a15.8,15.8,0,0,1,4.85-1c.53-.06.67-.7,1-1.19M104,27.34c-1.61,0-2.89.84-4.22,1.56-.34.18-.62.42-.38.89,1.16,2.32,1.78,2.51,4,1.17a7.26,7.26,0,0,1,1.5-.79c1-.29.84-1,.66-1.57A1.56,1.56,0,0,0,104,27.34m9.53,6.33c-2.13,0-4.26,2.76-3.61,4.74.1.3.62.76.76.7,1.63-.7,3.43-1.17,4.45-2.83a1.7,1.7,0,0,0-1.6-2.61m-20-9.8c-1.16,0-1.84.77-2.71,1.06a1,1,0,0,0-.45,1.83c1,.91,1.84,2.32,3.64,1.37,1.08-.57,2.54-2,2.29-2.95-.33-1.25-1.5-1.1-2.46-1.22a1.19,1.19,0,0,1-.31-.09M120.05,64a3.84,3.84,0,0,1,1.27-1.47,6.25,6.25,0,0,0,3-3.63,2.73,2.73,0,0,0-2-3.29c-.76-.18-2.72,1.16-2.73,2,0,2.09-.42,4.23.53,6.37m10.24-3a12.87,12.87,0,0,0,4-2.06c1.93-1.29,3.65-2.52,3.6-5.35-.05-2.33.32-4.68,0-7-.13-1-.53-1.16-1.53-.87-1.48.44-2.91,1-4.37,1.52-1,.34-1.94.85-2.15,1.93s.91,1.12,1.53,1.49a4.66,4.66,0,0,1,2.12,5.2,9.43,9.43,0,0,1-3.25,5.16M99.91,44.81a2.36,2.36,0,0,1-2.84,2.64c-.34,0-.69-.11-.84.23-.52,1.23-1.7,1.9-2.37,3.07a3,3,0,0,0-.09,2.45c.17.92,1.08.72,1.72.78,2.33.23,4.67.34,7,.62,1.84.23,3.76-.2,5.52.71.47.25.72-.31,1.09-.46,2-.85,2.62-3.06,4.23-4.29a1.27,1.27,0,0,0,.28-1.48c-.35-.6-.91-.19-1.41,0A3.24,3.24,0,0,1,108.42,48a5.66,5.66,0,0,0-4.64-2.45,9.69,9.69,0,0,0-2.74,0c-.77.24-.63-.69-1.13-.67M130.6,34.13c0,1.75,1.41,1.51,2.27,1.89,1.08.48,1.52-.44,1.83-1.24.69-1.84,1.32-3.71,2-5.57a3.73,3.73,0,0,1,1-1.45c.9-.91,2.17-.65,3.08-1.4a39.63,39.63,0,0,0,3.08-3.14,15.52,15.52,0,0,0,3.95-5.53c.12-.35.49-.67.24-1s-.83-.26-1.3-.25c-3.55,0-6.78,1.57-10.22,2.15-4.13.7-8.21,1.68-12.31,2.55a2.81,2.81,0,0,0-2.14,1.14c-1.46,2.52-.12,4.93,2.79,5.14.53,0,1.35-.14,1.53.45.3,1,1.15.32,1.17.29,1.27-1.38,2.11.09,2.94.57.55.31,1.28,1.26-.09,1.78-.34.13-.68.41-.33.67a2,2,0,0,1,.54,3M107.88,74.86c4.26-1.72,7.74-4.45,11.52-6.62a24.11,24.11,0,0,0,4.08-2.3,10.52,10.52,0,0,1,4.23-2.55,2.86,2.86,0,0,0,1.32-1c.15-.17.26-.61.16-.73a.65.65,0,0,0-.83-.18c-.61.3-1.25.58-1.85,0-.31.35-1.07-.07-1.14.7s-.86,1.07-.86,1.85c0,.48-.53.75-.75.43-.62-.91-.62,0-.79.23-.94,1.12-2.12,2.11-3.53,1.89-1.2-.19-1.87-1.35-1.91-2.75s-.13-2.75-.29-4.11c-.28-2.36-.54-4.69,1.19-6.56-2.09-.21-3.7.83-5.16,2.08a35,35,0,0,1-3.2,2.51c-.23.16-.49.29-.44.58.38,2-.48,3.9-.77,5.84-.51,3.55-.3,7.16-1,10.77m-63-23.71a.86.86,0,0,1,1-.45,34.43,34.43,0,0,0,7.13,1.08,2.44,2.44,0,0,1,1.48.41c.54.54.74.48,1.21-.07s1.4-.12,2.06,0-.22.81.27,1.3c.07-.4.17-.75.6-.78a41.66,41.66,0,0,0,4.76-.4c1.29-.23,2.37.58,3.55.48,2.47-.22,4.93-.92,7.4.11a11.6,11.6,0,0,1-4.77-3c-.66-.72-1.88-.91-2.23-2.16a1.42,1.42,0,0,0-1.79-.12c-.43.38-.91.7-1.34,1.08-.23.2-.44.3-.7.12s-.45-.41-.3-.67c.51-.95.33-2.62,2.34-2.1-.83-.91-1.48-1.66-2.17-2.37-1.09-1.12-1.85-.95-3,.12A8.16,8.16,0,0,0,58,48a.91.91,0,0,1-.84.81c-.48,0-.62-.35-.79-.67-.57-1.12.45-5,1.93-5.22,1.15-.2.23-1.46,1.07-1.65a1.36,1.36,0,0,0-1.16-.89,10.2,10.2,0,0,0-3.37-.19,4.32,4.32,0,0,0-2.91,1.67,49.55,49.55,0,0,1-3.17,4c-.07-.47-.21-.75-.13-1a9.77,9.77,0,0,1,1.71-3.68c1.27-1.36,1.2-1.73-.5-2.56A11.75,11.75,0,0,1,47,37a6.5,6.5,0,0,0-9.42.87c-.23.28-.39.61-.8.72A2.76,2.76,0,0,0,35,40.67c-.55,1.62.33,2.93.8,4.31.37,1.12.86,2.34,2,2.78a39.8,39.8,0,0,0,6,1.87c.89.21,1.52.22,1.14,1.52M23.58,37.57A14,14,0,0,1,24.63,36c.26-.31.69-.61,1.12-.33a2,2,0,0,1,.95,1.22c.08.43-.39.52-.68.75-1.36,1.11-3.08.92-4.55,1.46-2.38.86-3.91.18-5.46-1.5a2.57,2.57,0,0,0-2.69-.74,8.63,8.63,0,0,1-5.43-.08,4.47,4.47,0,0,0-2.47-.41,1,1,0,0,0-.91.78.79.79,0,0,0,.41.81,5.61,5.61,0,0,0,5.79.7c1.46-.66,1.93-.45,2.2,1.2a3.39,3.39,0,0,0,3.45,3.06c.56,0,1.08-.16,1.67-.13,1.66.09,3.37-.13,4.44-1.7.64-.93,1.26-.91,1.92-.16,1,1.19,2.09-.2,3.13.06-.49-1.3,1.09-1.65,1.18-2.64.1-1.2.68-.92,1.35-.59a17.49,17.49,0,0,0,2.82,1.18c1.19.34,1.27-.73,1.48-1.24.45-1.09-.57-.52-.92-.59-2-.4-3.52-1.7-5.29-2.54-.35-.17-.65-.62-.32-.91,1.09-.94.14-1.88.05-2.78s-1-1.57-1.52-2.06a6.69,6.69,0,0,0-5.77-2c-.4.06-1,.22-1.11-.31-.33-1.28-1.26-2.38-.75-3.91a2.4,2.4,0,0,0-2.41-3.14,7.55,7.55,0,0,1-1.58,0,4.79,4.79,0,0,0-5,1.48,1.4,1.4,0,0,1-2.52-.54c-.09-.3.07-.38-.35-.33a7.6,7.6,0,0,0-4.53,2.51A1.5,1.5,0,0,0,2,24c.41,2.4,2.18,3.39,4.05,4.3.4.19.8.24.79.81s-.41.65-.84.77-1,.4-1.5.5c-1.27.25-1.08,1.12-.56,1.76s1,1.34,2,1.43a14.18,14.18,0,0,1,3.21,1c1.49.51,1.35,1,2.7.21.29-.17.53-.34.8,0,.65.8.81.79,1.36-.12.23-.39.34-1.19.87-.89.88.51,2.08.67,2.51,1.82C17.88,37,18.52,38,20.28,37.1c.54-.27,1.57.1,1.86-.26,1.5-1.81.85.45,1.44.73M70.47,27.51c-3.13.1-5.39,1.93-7.53,4a5.15,5.15,0,0,0-1,1.42c-.54,1.26-.5,2.72-.91,4.1-.26.91-.5,2.38,1,3.14a17,17,0,0,1,5.12,4.37,21.28,21.28,0,0,0,8.06,6.5,2.2,2.2,0,0,1,1.38,1.17c.76,1.69,2.85.15,3.81,1.5,1.15-1.4,2.25-.19,3.28.16,1.4.48,2.31.08,2.33-1.37a5,5,0,0,1,1.78-3.94c1.16-1,2.26-2.1,3.32-3.22a11.64,11.64,0,0,0,3.37-7.78c0-2.35-1.7-4.31-2.75-6.35-.74-1.43-2.42-2.24-3.93-3.06a11.35,11.35,0,0,0-6.06-1.68,11.56,11.56,0,0,0-4.06,1c-2.31,1-4.74.36-7.16.06M88.18,68.42c.2-1.07.84-1.29,1.82-1.23,2.86.16,4.24,2.19,5.3,4.45.45,1,1,1.19,1.76.93a4,4,0,0,1,2.73,0c1.94,1.07,4,.26,5.94.77a.48.48,0,0,0,.66-.46,33.6,33.6,0,0,0,.58-5.53,26.62,26.62,0,0,1,.65-6.5c.33-1.61-.07-2.16-1.64-2.26-2.54-.16-5.08-.39-7.61-.61-.57-.06-1.16-.4-1.69-.3-3.37.65-6.77.11-10.15.37-.81.06-1.93,0-2.22-.53-.68-1.31-2,.22-2.61-.88-2.5.57-4.91-.28-7.36-.54-1.84-.2-3.65-1-5.53-.16a.94.94,0,0,1-.58,0c-.28-1.52-1.29-.55-2-.58s-1.33.25-2-.31a1.57,1.57,0,0,0-1.52-.14,14,14,0,0,1-3.81.29,43.26,43.26,0,0,1-6.74-.55c-1.06-.22-2,.42-3-.06a11.54,11.54,0,0,0-5.12-1.08c-.92,0-2.66-.25-2.52,1.57.29,3.55-.32,7-.76,10.48-.12,1-.36,2.09.36,3,.53.64,4.93.19,5.32-.55,1.2-2.28,3.6-2.13,5.44-2.3A5.18,5.18,0,0,1,56.62,68c1.24,2,3,2.27,5,2a1.45,1.45,0,0,1,1,.14,3,3,0,0,0,2.61.36c1.63-.39,3.3-.72,4.83.37a1.23,1.23,0,0,0,.84.19c2.93-.08,5.83-1.21,8.79-.31a.9.9,0,0,0,.76-.14c1.26-1.37,3.55-.81,4.61-2.73.41-.76,1.71-.73,2.62-.75.54,0,.2.82.43,1.27M69.42,16a6.38,6.38,0,0,1,3.48,3.21,3.1,3.1,0,0,0-.4-2.1A1.49,1.49,0,0,1,73.38,15c1.87-.64,2.35-2.73,4-3.65.51-.29-.18-1.25-.51-1.84s-.88-1.27-.08-2c1.13,1.2,2.45,2.27,2.37,4.2,0,.44.26.43.67.51a2.92,2.92,0,0,1,2.42,2.18c.09,1.27.79,2.95-.77,4-.15.11-.19.69-.46.25-1.14-1.87-1.84-.18-2.34.43s-.88,1-1.74,1.06-1.63.26-1,1.45c.15.25.05.64.1.95.26,1.85.72,2.12,2.38,1.43,1.23-.51,1.77-.3,3.14.3.64.28,1.45-.45,2.3-.41,1.33.07,1.34,0,1.65,1.35,1.7-1.76,2.51,0,3.55.89A3.24,3.24,0,0,1,92.52,22c3,.06,3.62.3,5.08,2.2A34.26,34.26,0,0,0,99.39,20c.35-1.4,1.75-2.08,2.78-3a3.8,3.8,0,0,0,1.21-1.25,7.48,7.48,0,0,1,3.33-3.3c.8-.5,3.15,0,3.74.82a1.16,1.16,0,0,1,.33,1.18c-.27.61-.76.23-1.1.12a3.15,3.15,0,0,0-2.28.08,1.51,1.51,0,0,0-.57,2.54,9.31,9.31,0,0,1,1.46,2.47c.42,1,.66,1.82-.36,2.56-.86.62-1.69,1.17-2.59,0a3.45,3.45,0,0,0-1.06-.64c-.66-.38-.61-1.78-1.4-1.43A5.94,5.94,0,0,0,101,22.31a8,8,0,0,0-.8,1.75c-.21.54-.34,1.11-.55,1.83.7-.27,1.36-.25,2.07-.56,2.66-1.19,5.34.74,5.52,3.87,0,.57.24,1.33,0,1.69-.63.82-.08.94.37,1.44,1.11,1.22,1.9.46,2.77-.24,2-1.57,4.26-1.49,5.8.19a4.54,4.54,0,0,1,.18,6.4c-.49.55-.75,1.3-1.67,1.26-.3,0-.34.38-.36.63s.19.36.42.37c2.88.13,5.81.35,8.6-.47,1-.32,1.45-2,1.83-3a36.69,36.69,0,0,1,2.15-4.78c1-1.91.83-2.51-1.21-2.68a10,10,0,0,1-6.11-2.8c-.82-.76-1.3-4.23-.68-5.35a5.57,5.57,0,0,1,4.92-2.93,16.15,16.15,0,0,0,4-1.14,11.43,11.43,0,0,1,2.71-.43A25.35,25.35,0,0,0,136.1,16a4.29,4.29,0,0,1,1-.31c2.2,0,4.16-1.09,6.28-1.5,1.44-.28,2.93.14,4.37-.28a.62.62,0,0,1,.43.11c1.75,1.16,2.34,5,1.19,6.83-.87,1.36-2.15,2.45-2.61,4.08-.09.34-.17.49-.62.45-1.25-.11-1.44,1.28-2.14,1.9-.88.77-.74,1-1.12,1.43-.82,1-2.16.84-3.15,1.61-.73.56-1.26,1.13-1.17,1.84.24,2-1.09,3.39-1.57,5.08-.32,1.08-2,1.25-3.33,1.33-.28,0-.89.07-.82.16.81,1.1-1,1.69-.48,2.61.27.49.85.27,1.3.11,1.67-.6,3.09.42,4.52.88,1.11.35,1.13,1.92,1.17,3,.18,3.76.64,7.52.09,11.3a3.49,3.49,0,0,1-2,3.15c-2,.9-3.47,2.69-5.51,3.58a1.46,1.46,0,0,0-.74,1.17c-.58,2.87-2.81,4.44-5,5.83-.86.56-2.46.16-3.66-.12a2.06,2.06,0,0,0-1.88.31c-2.85,2.09-6.08,3.53-9,5.57-1.14.8-2.47,1.48-3.68,2.28-.57.37-1.43.59-1.62-.18a2.21,2.21,0,0,0-2.49-1.87c-1.83.19-3.45-.92-5.29-.59-.43.08-1.35,1-1.61-.33A3,3,0,0,0,95.11,77,6,6,0,0,1,94,79.29a.91.91,0,0,0-.24.41c-.41,3-3,3.1-5,4-1.07.49-2,1-3.28.63A17.92,17.92,0,0,1,82,82.4c-.82-.51-.2-1.2.27-1.81A1.87,1.87,0,0,1,80,78.77c0-1.24-.35-2.43-.34-3.68,0-1-.45-1.83-1.83-1.4a3.7,3.7,0,0,1-2.61-.15,3.91,3.91,0,0,0-2.67.07,2.84,2.84,0,0,1-2.11,0,9.6,9.6,0,0,0-4.16-.07c-1.24.22-1.39-.46-1.92-.93-1,.85-1.9,1.58-3.35,1s-2,0-2.06,1.54c-.06,3.31-.57,3.9-3.57,5.3a31,31,0,0,1-3.49,1.35c-2.32.77-5.32-.78-6.27-3.28-.56-1.48-1.57-2.81-2-4.4-.07-.26-.31-.55-.25-.75.79-2.52-1-1.87-2.15-1.76-1.37.13-1.92-.45-2.19-1.75a19.64,19.64,0,0,1,.21-8.53,15.15,15.15,0,0,0,.19-6c-.2-1.1.18-2.09,0-3.14s1-.38,1.23-1.07a8.4,8.4,0,0,0-2-.69c-3-.24-3.78-2.47-4.7-4.81-.49-1.25-.35-3-2.28-3.44-1.22-.29-3.36.11-4,1.24-.94,1.62-2.73,1.82-3.8.35-.35-.49-.53-.33-.86-.12-2.19,1.34-4.64,1.31-7.08,1.49A3.15,3.15,0,0,1,12.59,43c-.86-1.85-1-2-2.92-1.43-2.8.86-6.39-1.47-6.8-4.4,0-.21-.19-.54-.1-.62,1.9-1.86-.29-3-.85-4.25s-.83-2.08.22-3.09c.86-.83-.05-1.42-.5-1.85A4.1,4.1,0,0,1,0,23.75a4.9,4.9,0,0,1,1.61-3.33c1.82-1.63,3.78-3.09,6.62-1.94.81.32,2.38-.44,3.17-1.18.58-.54.62-1.06,1.21-.17,1.16-.88,2.62.6,3.9-.61.56-.54,1.91.31,2.25.94.49.92,1.26,1.57,1.77,2.43s1.14,1.4.29,2.42a1.21,1.21,0,0,0,.36,1.78c.66.33.53.84.61,1.33.42-.68.62-1.6,1.8-.79a20.29,20.29,0,0,1,4,3,6.91,6.91,0,0,1,2.14,6c0,.2,0,.52.21.54,1.82.13,3.18,1.66,5,1.7a2.13,2.13,0,0,0,1.44-.49C38.21,33.4,40.67,33.48,43,33a4.34,4.34,0,0,1,3.56.93,20.26,20.26,0,0,0,7.26,3.56c1.44.34,2.93-.13,4.32.54.49.23.41-.41.44-.62.25-1.83,1.19-3.47,1.23-5.38,0-1.75,2.78-4.49,4.47-4.78.1,0,.29.06.3,0,.54-1.3,1.68-1.44,2.85-1.8A8.63,8.63,0,0,1,70,24.7a1.27,1.27,0,0,0,1.21-1.79c-.34-1.07-1.24-1.72-1.78-2.64-.26-.44-.62-1-.11-1.24a1,1,0,0,1,1.3.65c.37,1.62,2.2,2.64,1.77,4.6,0,.22.22.8.72.62a.76.76,0,0,0,.44-1.06c-.63-1.9-1.3-3.74-2.92-5.06a2.86,2.86,0,0,1-1.45-2.51Z"/><path d="M47.11,9.57c3,1.17,5.3,3.74,8.59,2-.88-1.29-6.25-2.74-8.59-2m10,2.63c.87.27,1.82-.5,2.59.17.34.28.49,1,1.07.52s.15-.92-.13-1.4a10.94,10.94,0,0,0-4.45-4c-.79-.43-.9-1.87-2.52-1.38a13.06,13.06,0,0,1,4.57,5.4c-.2.49-1,0-1.13.73m12,4.07c-1.38-.55-1.64-2.26-3-3-.73-.37-.46-1.8-.34-2.64A13.26,13.26,0,0,0,64.88,4c-.22-.56-.36-1.26-1.2-1.32s-.69.8-.93,1.24c-1,1.94-.55,3.57.35,5.59.57,1.29,2,3,1,4.8-.85,1.49-1.26,2-1.55,1.92-.87-.1-1.75-.2-2.61-.36a4.11,4.11,0,0,0-3.15.73,4.76,4.76,0,0,1,2.81.59c1.62.82,3.21.52,4.81.6a2.75,2.75,0,0,1,1.06.18c.76.36,1.57.85,1.18,1.76-.31.74-1.19.47-1.83.21-2-.8-3.45.34-5,1.33,1.93-.57,3.81,1,5.82-.11.69-.37,1.57-.58,2.33-.93.47-.21.84-.36,1.06.38.18.56.4.86-.33,1.23a8.68,8.68,0,0,1-5.62,1,13.28,13.28,0,0,0-3.15-.09c-.81.06-1.58.07-1.76-.87a1.74,1.74,0,0,1,1.15-2.16c.31-.1.61-.13.83-.47-1.79-.66-3.56-1.34-5.36-2-.81-.28-1.46-.65-1.43-1.65,0-.3.07-.87.43-.63,1.15.76,2-.66,3-.37a.5.5,0,0,0,.59-.43c0-.4-.33-.51-.64-.53a10.13,10.13,0,0,0-2.06,0,8.94,8.94,0,0,1-7.35-2.55c-.61-.54-1.65-.28-2-1.41-.31-.92-.25-1.73.64-2a7.53,7.53,0,0,1,6.22.46c.4.22,1,.4,1.3-.08s0-.91-.32-1.27c-.63-.68-1.22-1.32-.86-2.41.14-.43-.33-.75-.62-1.06a.83.83,0,0,1-.2-1.14c.35-.55.77-.22,1.12-.09,1.7.66,2.93,2,4.36,3.08s2.9,2.22,4.31,3.5c-1-2.24-.56-4.37.15-6.48A9.8,9.8,0,0,1,62.08,1c.72-1.48,2-1.15,2.45-.36.65,1.21,2.19,1.62,2.38,3.31.09.8.85,1.64.68,2.77.63-.21,1.22-.44,1.81-.61s1.23,0,1.08-1c0-.11.48-.91,1-.78a1.33,1.33,0,0,1,.87,1.25c0,.36-.21.82-.07,1.09.31.61.68,1.39,1.21,1.6s.58-.84,1.06-1.17.4-1.58,1.26-.87c.68.56.59,1.39-.25,2A16.46,16.46,0,0,0,71,14.23c-.4.8-1.56.77-1.6,1.81l-.28.23"/><path d="M74.23,36.17c1.27.26,1.15-1.1,1.84-1.09s1.66.61,1.86.38c1.78-2.12,3.5-1.25,5.37-.21a7.82,7.82,0,0,0,2.23.39,1,1,0,0,1,.87,1.54c-.31.8-.87.43-1.42.19-.89-.4-1.82-.71-2.73-1.07a2.38,2.38,0,0,0-1.68-.19,51.3,51.3,0,0,0-7.1,2.64,1.67,1.67,0,0,0-.53.32c-.31.35-.52,1.29-1.06.48-.38-.57-.8-1.63-.07-2.21s1.87-.64,2.42-1.17"/><path d="M130.68,26.66c-.93.5-1.87-.28-2.92-.23-1.57.06-2.49-1.2-2.41-2.82.06-1.15.77-1.6,1.9-1.7a7.73,7.73,0,0,0,1.95-.34c1.2-.46,2.5.16,3.55-.38s2.54-.33,3.63-1.15a2.28,2.28,0,0,1,2-.28,1.73,1.73,0,0,0,1.78-.28c1-.88,1.5-.16,2,.54s.18,1.28-.44,1.87a18.54,18.54,0,0,1-9.4,4.74,4.1,4.1,0,0,1-.76.11,6.61,6.61,0,0,1-.89-.08"/></g></g></svg>