<?xml version="1.0" encoding="utf-8"?>
<!-- Generator: Adobe Illustrator 25.0.0, SVG Export Plug-In . SVG Version: 6.00 Build 0)  -->
<svg version="1.1" id="레이어_1" xmlns="http://www.w3.org/2000/svg" xmlns:xlink="http://www.w3.org/1999/xlink" x="0px"
	 y="0px" viewBox="0 0 917.9 200.2" style="enable-background:new 0 0 917.9 200.2;" xml:space="preserve">
<g id="레이어_2_1_">
	<g id="레이어_1-2">
		<path d="M82.9,182.8C74,192,62,197.1,48.2,197.1c-13.3,0.1-26.1-5.6-35-15.5C0.3,167.3,0,149.8,0,131.7v-23.8h20.1
			c3.7,14.1,10.9,21,22.7,21c8.6,0,14.3-3.7,14.3-10.3c0-6.9-4.6-10.6-16.1-15.5C17.8,93,2.6,80.9,2.6,51.9C2.6,21.8,21.5,0,48.8,0
			c13.8,0,26.4,5.4,34.4,14.4c9.2,10,12.1,19.8,12.1,45v24.4h-21C71.7,72.9,66,68,56.5,68c-7.7,0-12,3.2-12,9.5
			c0,8.6,10.6,11.2,22.7,16.1c21.2,8.9,30.4,26.4,30.4,49.1C97.6,159.2,92.1,173.3,82.9,182.8"/>
		<path d="M155.4,93c-16.1,0-27.6,12.3-27.6,27c0,16.1,12.1,27.8,26.4,27.8s27.8-11.8,27.8-26.7C182,105.9,170.3,93,155.4,93
			 M177.5,194.3v-18.7h-1.7c-4.9,15.5-14.6,22.4-30.1,22.4c-21.8,0-32.4-14.9-32.4-41V80.1c0-25.2,11.8-38.7,32.7-38.7
			c14.6,0,25,8.3,29.8,23h1.7V45h18.1v149.2L177.5,194.3z"/>
		<rect x="214.9" y="2.9" width="18.1" height="191.4"/>
		<path d="M292.1,93c-16.1,0-27.5,12.3-27.5,27c0,16.1,12,27.8,26.4,27.8s27.8-11.8,27.8-26.7C318.8,105.9,307,93,292.1,93
			 M314.2,194.3v-18.7h-1.7c-4.9,15.5-14.6,22.4-30.1,22.4c-21.8,0-32.4-14.9-32.4-41V80.1c0-25.2,11.8-38.7,32.7-38.7
			c14.6,0,25,8.3,29.9,23h1.7V45h18.1v149.2L314.2,194.3z"/>
		<path d="M389.6,93c-14.9,0-26.7,12.9-26.7,28.1c0,14.9,13.5,26.7,27.8,26.7s26.4-11.8,26.4-27.8C417.2,105.3,405.7,93,389.6,93
			 M413.7,194.3v-18.7h-1.4c-4.6,15.2-14.9,22.4-30.4,22.4c-21.2,0-32.4-14.1-32.4-41.9V80.3c0-24.7,11.5-39,32.4-39
			c14.6,0,25.8,8,30.4,22.9h1.4V2.9h18.1v191.4L413.7,194.3z"/>
		<path d="M535.1,185c-9.1,9.4-21.7,14.6-34.7,14.4c-13.3,0.1-26.1-5.6-35-15.5c-12.9-14.3-13.2-31.8-13.2-49.9v-23.8h20.1
			c3.7,14.1,10.9,21,22.7,21c8.6,0,14.3-3.7,14.3-10.3c0-6.9-4.6-10.6-16.1-15.5c-23.2-10-38.5-22.1-38.5-51.1
			c0-30.1,18.9-51.9,46.2-51.9c13.8,0,26.4,5.4,34.4,14.4c9.2,10,12,19.8,12,45V86h-20.9c-2.6-10.9-8.3-15.8-17.8-15.8
			c-7.8,0-12,3.2-12,9.5c0,8.6,10.6,11.2,22.7,16.1c21.2,8.9,30.4,26.4,30.4,49.1C549.7,161.5,544.3,175.5,535.1,185"/>
		<path d="M604.2,94.7c-12.6,0-21.8,7.8-25.8,19.5h51.4C626.3,101.2,616.8,94.7,604.2,94.7 M632.1,189.3
			c-8.6,8.6-19.5,10.9-27.8,10.9c-10,0.1-19.6-3.6-27-10.3c-10.9-9.5-13.2-25.5-13.2-39.6V92.1c0-27.8,14.1-48.5,39-48.5
			c25.5,0,41.6,16.4,41.6,48.5v36.2h-66.2c2.6,12.3,12.3,20.7,26.7,20.7c9.5,0,16.9-2.9,25.2-10h14.3V152
			C644.7,164.6,643.2,178.1,632.1,189.3"/>
		<rect x="662.2" y="5.1" width="18.1" height="191.4"/>
		<rect x="702.8" y="5.1" width="18.1" height="191.4"/>
		<path d="M777.9,94.7c-12.6,0-21.8,7.8-25.8,19.5h51.4C800,101.2,790.5,94.7,777.9,94.7 M805.8,189.3c-8.6,8.6-19.5,10.9-27.8,10.9
			c-10,0.1-19.6-3.6-27-10.3c-10.9-9.5-13.2-25.5-13.2-39.6V92.1c0-27.8,14.1-48.5,39-48.5c25.5,0,41.6,16.4,41.6,48.5v36.2h-66.2
			c2.6,12.3,12.3,20.7,26.7,20.7c9.5,0,16.9-2.9,25.2-10h14.3V152C818.4,164.6,817,178.1,805.8,189.3"/>
		<path d="M899.6,139.1v-12c0-14.9-1.7-20.4-6-25.2c-4.2-4.4-10-6.9-16.1-6.9c-15.5,0-23.5,10.6-23.5,32.4v69.2h-18.1V47.3H854V66
			h1.4c6.3-15.5,15.8-22.4,30.1-22.4c9.5,0,16.9,3.2,21.8,8c7.8,7.8,10.6,14.9,10.6,33.3v54.2L899.6,139.1z"/>
	</g>
</g>
</svg>
