<svg xmlns="http://www.w3.org/2000/svg" viewBox="0 0 273.12 73.37"><g id="레이어_2" data-name="레이어 2"><g id="레이어_1-2" data-name="레이어 1"><path d="M273.12,56.43V0h-8V18.81c0,6.6-.77,9.79-3.3,12.43a10,10,0,0,1-7.48,3.08,10.26,10.26,0,0,1-6.82-2.53c-2.42-2.2-3.74-4.18-3.74-10.56V0h-8.14V23.54c0,11.55,7.59,19.25,18.7,19.25,4.51,0,7.26-.88,10.45-3.52v4.18c0,4.07-1.21,5.72-6.71,5.72H237.81v24.2h20c5.28,0,9.13-1.43,11.88-4.73,2.53-3,3.41-5.83,3.41-12.21M221.75,29.15c0,2.75-2,4.07-6.38,4.07H202.83V24.64h12.54c5.17,0,6.38,1.65,6.38,4.51M230.22,20c0-10.34-1.43-13.31-4.73-16.28C223.07,1.54,219.77,0,214.82,0h-20V73.37h8V40.15h9.24c3.85,0,5.94.77,7.37,2.42,2.2,2.42,2.64,3.63,2.64,8.14V73.37h8V49.17c0-5.72-1.21-9.79-6.05-11.88,5.72-3.08,6.16-5.61,6.16-17.27M189.08,73.37V49.17H166.42V39.93h20V33h-20V24.2h21.12V0H158.39V73.37ZM154.44,0h-8L144.1,37.29c-.33,5.72-1.65,11.55-7.81,11.55-7,0-8.14-6.38-8.47-11.55L125.73,0h-7.92l4,73.37h28.16ZM113.85,0h-8V73.37h8ZM101.31,73.37V49.17H85.8V0h-8V73.37Zm-29.26,0V49.17H49.39V39.93h20V33h-20V24.2H70.51V0H41.36V73.37Zm-44.44-37c0,5.17-1.43,7.37-3.19,9.24-1.21,1.21-3.85,3.19-11.55,3.19H8V24.2H14c5.28,0,8.25.77,10.45,3.19,2.09,2.2,3.19,5.17,3.19,9m7.59,16V21.23c0-8-1.54-12.43-5.39-15.95C25.19,1.1,20,0,13.86,0H0V73.37H13.86c6.82,0,11.77-1.21,16.06-5.5,3.19-3.19,5.28-7.48,5.28-15.51"/></g></g></svg>