<svg xmlns="http://www.w3.org/2000/svg" viewBox="0 0 281.22 468.33"><g id="레이어_2" data-name="레이어 2"><g id="레이어_1-2" data-name="레이어 1"><path d="M68,235.39c2-.54,3.2-.25,2.71,2.34-.25,1.33,1,2.79-.22,4.14-.21.25-.25.85-.44.89-3.36.58-1.85,2.75-1.25,4.32a38.64,38.64,0,0,1,1.31,5.35c.5,2.2-.43,4.35-.17,6.64.33,2.93-.07,5.62,2.57,8.11,3.46,3.26,7.09,6.51,9.28,11,1.19,2.44,3.47,4.17,4.92,6.56,1.77,2.91,2.12,6,2.36,9.74-3-1.93-1-6.3-4.33-7.66-.65,1.95,0,4.13,0,6.24a71.9,71.9,0,0,1-.85,11.7c-.38,2.3-2.35,4.79-.78,7.37-1.72.64-.57,3.45-2.81,3.72-.21,0-.59.27-.57.34.82,3.92-3,5.53-4.14,8.43-.74,1.88-3.06,1.86-3.75,3.3-1.34,2.79-4.17,3.87-6.25,5.69s-5.3,2-7.81,3.28c-3,1.53-6.19,2-9.27,3-.16.05-.4.17-.49.11-2.23-1.74-4,.44-6,.78a8.53,8.53,0,0,1-4,0c-1.69-.5-3.47.07-5.14-.18a24.3,24.3,0,0,1-6.62-1.9,39.71,39.71,0,0,0-8.7-2.9c-.31-.07-.76-.31-.82-.56-.88-3.48-4.41-3.87-6.72-5.59-1.86-1.39-2.53-3.59-4.3-4.94a1,1,0,0,1,0-1.39,1.23,1.23,0,0,1,1.47,0,2.17,2.17,0,0,1,.91.89c1.51,3.29,5,3.93,7.61,5.67a20.26,20.26,0,0,1,2,1.56c2.65,2.3,5.85,3,9.22,3.77A101,101,0,0,0,37.31,337c3.82.44,7.42-.4,10.95-1.17,5.35-1.18,10.76-2.47,15.48-5.57,2.75-1.8,5.42-3.6,7.4-6.33,2.35-3.23,5.64-5.63,7.23-9.6,2.89-7.2,4.37-14.47,3.48-22.2-.13-1.13-.73-2.41.52-3.38.11-.08.23-.37.17-.44-2.19-3-2.07-6.93-4.16-9.91-.55-.78-1.78-1-2.57-1.69a23.65,23.65,0,0,1-3.87-4.47c-1.15-1.56-2.19-3.2-4.35-4-2.44-.9-1.34-3.72-1.43-5.49-.11-2.52-1.18-5.31.82-7.77.89-1.09-1.33-2.49-.11-3.83-1.74-1.45-1-3.92-2.28-5.54-.2-.25-.28-1.29-1.11,0s-.95,2.54-1.49,3.64c-1.58,3.19.48,6.31-.47,9.36a16.11,16.11,0,0,1-.62,2c-.27.6-.5,1.58-1.31,1.37s-.82-1.17-.67-2a3.26,3.26,0,0,0,.12-2.24c-1.11.91-.91,2.1-1.24,3.08s-.15,2.52-1.46,3.18c-.81.4-1.56,1.35-2.58.76-.85-.48-.31-1.44-.33-2.15-.06-2.14.81-4.57.42-6.28a22.24,22.24,0,0,1-.43-7c.18-1.82-.35-2.51-2-3.12-.76,5.13-1.84,10.2-.71,15.35a5.47,5.47,0,0,1,0,2.73c-.61,2.41.65,6.25,2.61,7.54a2.21,2.21,0,0,0,2.86-.31c1.51-1.52,3.3-3,2.79-5.51-.19-1,.33-1.21,1.06-1.43,1.12-.34,1,.52,1.22,1.16a18,18,0,0,1,1.09,4.45c0,1.45-1.21,3.3-2.43,4.31-2.57,2.12-7.52.8-9.82-1.74a12.66,12.66,0,0,1-3.33-10.23c.21-2.18-.68-4.05-1.38-6-.28-.76-.29-1.77-1.4-2,.14,1.05-1.3,1.35-1.15,2.37.09.61.31,1.19-.56,1.84-1.53-2.74-.81-5.69-.88-8.47,0-.61-.43-1.92.71-2.5.43-.22.93-.66.39-1.22a1.43,1.43,0,0,0-.92-.38c-.75,0-.67.69-.74,1.15-.57,3.76-1.06,7.53-1.67,11.28-.48,2.95-1.07,5.89-1.69,8.81-.14.67-.16,1.8-1.27,1.57a2.21,2.21,0,0,1-1.9-1.58,2.07,2.07,0,0,0-.15-.5c-.43-.84.18-2.64-1.2-2.43s-.85,1.81-.68,2.88c.3,2-.53,4.09.78,5.95a1,1,0,0,1-.22.9c-.41.41-.87.11-1.08-.26a13.35,13.35,0,0,1-1.41-3c-.28-1.16-.59-2.93-1.66-2.57-1.26.42-3,.6-3.8,2.26a7.49,7.49,0,0,1-3.15,3.18A16.94,16.94,0,0,0,16.22,279c-.29.42-.54,1.14-1.11.65-1-.87-1,0-.9.51.37,1.49-.49,2.12-1.45,3.08-2.69,2.7-5.14,5.66-5.66,9.68-.22,1.68-2,2.26-2.55,3.82a22.66,22.66,0,0,0-1.26,6.15c0,.66.06,1.4-.84,1.89-1.21-1.78-.5-3.66-.2-5.3a13.87,13.87,0,0,1,3-6.93c1-1.09.67-2.63,1.24-4,2.11-4.88,5.26-8.95,8.63-12.94,3-3.55,6.74-6.42,9.12-10.52.85-1.46,2.93-1.4,4-3,1.51-2.43,1.55-5.25,2.61-7.8.94-2.24,1.48-4.57,3-6.59.88-1.14.73-2.93,1.49-4.31.23-.42-.37-1-.86-1.13-3.17-.56-4.51-3-5.14-5.62s-3.15-4.15-2.71-7.2c.57-4,1.28-7.78,3.85-11,.64-.79,1.32-1.33.88-2.44A1.34,1.34,0,0,1,32,214.5c2-.56,1.65-2.39,2.16-4.11,2,3,2.62-.41,4-.62.05,0,.66-1.19-.49-1.29-.55,0-.7-.42-.55-.92,2.09.76,1.34-3.64,4.27-2.23,1,.49,2-1.83,2.09-3.43-.87-.4-1,1.48-2.17.43s-.58-1.78-.17-2.48c1.68-2.81,2.67-6,5.19-8.37A9,9,0,0,0,48,188.63c2.24-4.73,6.42-7.78,9.86-11.48,4-4.32,9.28-6.91,13.84-10.44,2.3-1.77,4.89-3.6,6.3-6.61,1.07-2.26,4.15-2.31,6.2-3.57,3.21-2,7-2.57,10.28-4.35a22.72,22.72,0,0,1,7.25-2.42c1.5-.24,1.94-1,1.73-2.49-.34-2.46-2.14-3.65-3.87-4.94-4.9-3.63-9.46-.82-14,.92a4.9,4.9,0,0,1-2.51.68c-3.26-.43-6.62.79-9.77-.13-6.59-1.93-13-4.09-15.46-11.81-1-3.17-1.84-6-.45-9.06s2.42-6.38,4.47-9.35,4.08-5.68,6.17-8.49a17.42,17.42,0,0,1,4.39-4.28c3.68-2.33,3.27-5.61,2.78-8.89a51.45,51.45,0,0,1,.41-16.66,14.41,14.41,0,0,0,.22-2.06c0-.78.09-1.75-.68-2.11s-1.1.65-1.63,1a104.25,104.25,0,0,1-13.94,8.22,34.81,34.81,0,0,0-7.72,4.72c-3.26,3-7.56,4.18-11,6.82-.61.47-1.26.89-1.81,1.41-1.65,1.59-2.12,1.67-3.46-.22-1.09-1.53-1.85-3.25-3.71-4.12a1.37,1.37,0,0,1-.65-1.81c1.77-2.59,1.05-6,2.77-8.5,1.31-1.88,2.2-3.94,3.39-5.84,1.92-3.07,3.66-6.25,6.24-8.89,1-1.06,2.28-1.78,3.34-.93s.49,2.11-.27,3.27C44.21,70.06,41.15,73.49,39,77.5a13.47,13.47,0,0,0-1.53,3.8c-.21,1-1.61,2.2-.56,3s2.7,0,3.57-.61A19.44,19.44,0,0,1,47,81.33c5.78-1.37,10.65-4.47,15.5-7.6C66.67,71,71,68.4,74.07,64.23c2-2.8,2.8-6.23,4.49-9.2.31-.56.13-1.88,1.32-1.48,1,.33,1.28,1.38,1.48,2.31.15.76-.77,1.38-.44,2.25a1,1,0,0,0,1.46-.52c.34-1.59,2.34-1.7,2.69-3.26a.82.82,0,0,1,1.28-.43A.8.8,0,0,1,86.66,55c-.85,1.54-.31,2.29,1.25,2.91,1.88.76.6,1.84,0,2.82-1.78,3.15-4.55,5.88-5,9.63-.52,4.32-1.36,8.66-.83,13,.34,2.78-.67,5.65.64,8.5,3.32-1.7,6.29-3.91,9.42-5.87a110.36,110.36,0,0,1,9.52-5.87c2.72-1.35,5.27-3.41,8-5,4-2.37,7.84-5,11.68-7.57,1.32-.89,2.2-.44,2.74.7.66,1.37,2.24,2.31,3,2,2-.79,4-.06,5.91-.73,1-.36.53-1.43.19-2-1.82-3.24-3.58-6.52-5.67-9.58-1.13-1.65-1.84-3.62-3.28-5-3.07-2.88-6.25-5.72-10.21-7.32A49,49,0,0,0,95,42a54.74,54.74,0,0,0-20.84,4.23,71.13,71.13,0,0,0-23.7,16.49c-.55.57-1.19,2-2.08,1.11s.35-1.82,1.11-2.51,1.81-1.59,2.67-2.43a4.12,4.12,0,0,0,1.43-4.36,1.3,1.3,0,0,1,.63-1.76.78.78,0,0,1,.7.13c.62.53.23,1.1,0,1.64A1.55,1.55,0,0,0,54.62,56c2.2-.34.64-2.27,1.32-3.25.85.29.3,1.4,1.12,1.62,3.16-2.32,6.11-5,9.69-6.82,2.71-1.4,5.57-2.45,8.17-4.19,1.49-1,3.84-.93,5.8-1.58,8-2.66,16.33-2.59,24.65-1.35,11.52,1.73,19.55,8.26,24.94,18.27,1.66,3.09,4.2,5.68,5.11,9.22.36,1.39,1.88,1.5,3,1.53a33.26,33.26,0,0,0,3.81.17c4.95-.51,9.42,1.66,14,2.57,6.94,1.38,13.77,4,18.08,10.37,2.61,3.89,6.23,6.92,8.93,10.73.54.76,1,1.65.13,2.29s-1.35-.25-1.83-.86-1-1-1.36-1.56-.77-.61-1.42-.2-1,.43-.69,1.28a12.05,12.05,0,0,1-1.92,11.82c-3.09,3.56-2.67,7.38-3.09,11.21a36.81,36.81,0,0,1-2.45,8.87c2-1,3.3-1.58,4.5-2.33A17.2,17.2,0,0,1,185.78,121c1.41.12,2-.31,2.27-1.36.6-2.39,1.47-4.68,1.91-7.16.78-4.37.12-8.59-.11-12.87,0-.76-.12-1.75.84-2,1.11-.24,1.18.89,1.34,1.55a36.29,36.29,0,0,1,.89,4.83c.4,3.57-.39,7.17.24,10.77a6.35,6.35,0,0,1-.77,3.48,6.68,6.68,0,0,0,1,7.17c1,1.31,2.41,2.45,2.66,4.42-1.36.05-1.37-1.72-2.71-1.57,0,2.43,2,4.07,2.22,6.59.94-1.17,0-2.26.68-3.53,1.19,1.79.82,3.57.66,5.22-.18,2,.71,2.15,2.13,1.45,4-2,6.86-4.93,7.72-9.43.52-2.78,1.54-5.5,1.09-8.42a13.22,13.22,0,0,0-1.13-4.22,13.73,13.73,0,0,1-1.15-6.26,20.51,20.51,0,0,0-1.86-8.9c-1.34-2.69-1.25-5.52.4-7.24,1,.33.65,1.24.77,1.93.63,3.39,2.36,4.77,5.67,3.86,2.11-.58,4.12-.23,6.15-.16,5.77.19,10.42-1.83,13.79-6.56a3.36,3.36,0,0,0-.14-4.61c-.3,3.15-2.46,3.56-4.6,4-.62.14-1.23.22-1.59-.45a1.44,1.44,0,0,1,.23-1.7c.8-.9,1.67-1.75,2.5-2.63,3.56-3.81,4.35-11.18,1.72-15.63a10.77,10.77,0,0,0-3.41-3.14c-.82-.57-1.42-1.25-.8-2.12.74-1,1.56-.17,2.21.32,1.64,1.23,3.28,2.6,4,4.53.79,2.15,1.64,1,2.19.14,1.36-2.18,3.08-2.63,5.53-2.07,1.29.3,2.3.57,2.88,1.79a3.82,3.82,0,0,0,4.18,2.34,6.17,6.17,0,0,1,2,.3c3.33.8,4.17.29,4.64-3.12a9.22,9.22,0,0,0-.07-3.1c-.44-2.18-.15-3.64,2.55-3.44.86.06,1-.45.84-1.18-1.34-4.71-2.05-9.55-4.2-14.1-1.76-3.72-4.34-5-8-4.79-3.39.23-6.6-1.11-10-.89A1.27,1.27,0,0,1,231.76,42c0-.92.81-1,1.48-1.12,2.71-.59,5.8-.82,8,.31,3.58,1.81,6.21.23,8.33-1.63a16.26,16.26,0,0,0,5.47-8.63c.39-1.8-.17-3.43-.56-5.1-.23-1-1.07-1.09-2-1.19-4.94-.5-9.84.21-14.75.41-1.38.06-2.76.23-4.13.17A2.1,2.1,0,0,1,231.43,23c0-1.38,1.26-1,2.2-1,7.41-.33,14.82.16,22.25-.34,4.37-.29,8-2.4,12.2-2.84.33,0,.63-.3.63-1.05-4.21-.49-8.39-1.74-12.73-.5-5,1.42-6.17.78-8.15-3.88-2.13-5-3.72-7.43-11.07-6.89-1.95.14-3.73-.69-5.4-1.21s-3,.15-4.31.42c-1,.22-1,2.05-.76,3.46a25.92,25.92,0,0,1,.26,5.44,91.68,91.68,0,0,0,1,12.54c.42,3.56.1,7.07.53,10.56.11.88-.06,1.77-1.05,1.7-1.33-.08-2.55-1.07-2.13-2.37,1.1-3.44.39-6.86.5-10.29.16-5-1-9.91-1.06-14.9,0-1.63-.36-3.26-.28-4.87.07-1.77-1.14-1.78-2.19-1.77-1.49,0-.77,1.14-.77,1.93,0,3.52-.2,7,0,10.55.3,5.3-.4,10.65,1,15.93.61,2.27.23,4.81.27,7.22a1.23,1.23,0,0,1-1.28,1.35c-1,0-.75-.79-.83-1.31-.51-3.5-1.19-7-.65-10.55.18-1.22-.54-2.29-.65-3.51-.61-6.62.31-13.26-.49-19.87-.17-1.4-.64-1.63-1.82-1.62-5,.07-9.91.08-14.86.11-.69,0-1.38,0-2.07,0a.86.86,0,0,1-.77-.9c0-.46.15-1,.62-1a53.4,53.4,0,0,0,9-.61c.56-.06,1.19.52,1.83.83-.13-3.52-.05-3.2,3.37-3.6A39.57,39.57,0,0,1,225.4.86c3.3.59,7.06-.46,10,2.06.18.14.65,0,1-.08,4.21-1.08,7.6.88,10.77,3.13,2.73,2,5.32,4.16,6.75,7.36.49,1.1,1.27,1.31,2.5,1.25a40.92,40.92,0,0,1,15.79,2c1,.33,2.26.52,2.26,1.79s-1.38.68-2,1.1a27.94,27.94,0,0,1-6.14,2.55c-.59.2-1.16.44-1.35,1.09-.49,1.65-1.69,1.69-3.1,1.51-3.25-.42-3.49,0-3.33,3.14a34.3,34.3,0,0,1-.35,8.48c-.75,3.71-4.07,5-7.23,6.13a7.5,7.5,0,0,1-.88.25,1.32,1.32,0,0,0,.55,1.24c3.69,3.82,6.57,8.09,7.3,13.49.14,1.06.86,1.31,1.62,1.78,3.28,2,7.23,2.94,10.1,5.73.42.41,1.16.62.74,1.38-.31.54-.92.35-1.42.27-3.25-.52-6.27.5-9.3,1.37a2.75,2.75,0,0,0-1.74,2.13,37.73,37.73,0,0,0-1.64,6.52A8.61,8.61,0,0,1,252.28,83a12.18,12.18,0,0,0-3.87,4.65,20.91,20.91,0,0,1-14,10.24c-1.75.42-3.67.64-4.89,2.42-.8,1.16-2.39,1-3.56,1.12-5.61.54-11.23.94-16.86,1.15-2.11.08-2.94.49-2.07,2.66.64,1.59.55,3.43,1.65,4.88.05.06.16.16.14.2-1.1,2.61,1.21,4.55,1.4,7a68.76,68.76,0,0,1,0,8.25c-.14,3.81-2.67,6.86-3.66,10.41-1.22,4.36-3.58,7.57-8.12,8.94a2.42,2.42,0,0,0-1.81,2.3c-.17,5.53-3.44,9.67-7,13.21-2.72,2.71-6.91,3.32-10.82,3.52-1.52.07-3.08-.62-4.6-.56-2.61.1-1.81-1.68-1.81-3,0-.79.47-1,1.24-.57,3.64,1.82,7.48,1.21,11.12.31,6.4-1.57,9.82-6.75,9.44-13.87-.58,2-1.1,3.76-1.56,5.5-.22.84-.34,2-1.44,1.64-.75-.25-.94-1.33-.51-2.26,2.17-4.64,2.11-9.57,1.71-14.5-.45-5.38-3.57-8.84-8.43-10.8-1.14-.46-2.52-1.05-3.2.87-.12.34-.84.56-1.32.67-3.6.79-6.77,2.89-10.49,3.37-1.25.16-1.38,1.14-.77,2.18,2.37,4,3,8.33,3.11,12.85,0,1.94,2.64,4.59,4.91,5.06.74.15,1.66-.06,1.83,1s-.7,1.51-1.42,2c-1,.63-2.08,1.24-3.16,1.77a3.11,3.11,0,0,0-1.84,3.13c.27,2.49-.39,4.78-.84,7.14s-.75,4.39,1.4,6.38a6.28,6.28,0,0,1,1.57,3.94,5.85,5.85,0,0,1-2.14,4.71c-1.44,1.34-1.44,3.25-1.59,5.06-.52,6.2.28,12.45-.59,18.64-.38,2.71-.2,5.49-1.47,8.14.12-3.3.25-6.59.38-9.89-.46,4.09-1,8.17-.67,12.3.06.71.27,1.07,1,1.16,3.09.35,5.66,2.11,8,3.85a43.06,43.06,0,0,1,6.28,5.25,5.11,5.11,0,0,0,6.72,1,1.09,1.09,0,0,1,1.18-.23c3.2,1.64,5.36-2.05,8.32-1.64.12,0,.28-.39.44-.59,2.75-3.56,6.5-3.54,9.37.09a2.47,2.47,0,0,0,2.81.78c1.79-.45,3.3-.78,4.9,1,1.26,1.37,3.05-.14,4.24-.8,2.32-1.28,4.94-1.14,7.31-2.11,1.54-.64,4.42,2.22,4.42,4.47,0,2.92,1.36,3.1,3.64,2.64a3,3,0,0,1,2.5.28c1.64,1.26,2.19.42,2.62-1.16,1.23-4.55,1.78-4.91,6.25-4.64,1.16.06,2.1,0,2.23-1.68a131.42,131.42,0,0,1,1.62-14.57c1.15-6,3.42-11.53,9.47-14.3,1.11-.5,1.38-1.39,2-2.11,1.18.28.51,1.34.91,1.91s0,1.61,1.26,1.07c.7-.32,1.24-.07,1.24.75a1.23,1.23,0,0,1-1.12,1.24c-2.92.53-4.22,2.09-3.36,5.13.29,1-.48,1.57-1.18,2.12-3.91,3.09-4.87,6.94-2.71,11.42,1.56,3.22-.1,6.27-.24,9.39,0,.86-1,.83-1.68.57a5.07,5.07,0,0,1-2.61-2.47c-.6,1.63.72,2.41.83,3.53s.62,2.08-.48,2.8-1.83.15-2.74-.61c-2.73-2.3-4.69-2-5.76.66-.48,1.16-.29,1.65.93,2.11,2.95,1.11,6,2.18,7.51,5.33.23.46.76.92.71,1.33-.46,3.46,1.89,6.14,2.53,9.3.32,1.62,1.3,2.45,3.26,2.6s4,.77,5.9-.56c1.64-1.14,1.93-3.11,2.66-4.65,1.23-2.63.94-5.71.8-8.64a1,1,0,0,0-.19-.48c-2.44-3.4-2.48-3.42-.05-6.85a36.71,36.71,0,0,0,6.26-13.19c.74-3.27-.11-6.8,1.71-9.88.07-.11-.16-.4-.26-.61-1.7,1.15-1.64-.68-1.75-1.28-.61-3.53-3.37-4.89-6.08-6.33-.83-.44-2-.65-1.52-1.95s1.44-.19,2.19-.16,1.68,0,2.7-.06a4.85,4.85,0,0,0-5.15-3.42c-.56,0-1.43,1-1.54-.25a1.72,1.72,0,0,1,1.62-2c1.35-.19,2.38.74,3.19,1.22,1.67,1,3.67,1.51,4.52,4.18s1,6.08,4,7.84a3.37,3.37,0,0,1,1.08,2c1.12,4.73,1.5,9.42-.77,14-.79,1.6-.31,3.64-1.35,5.21a22.33,22.33,0,0,1-2.75,3.75c-2.73,2.72-3,5.71-1.62,9.14,2.14,5.16,1.39,9.88-2.55,13.93-.48.49-.44,1.07-.74,1.58-1.86,3.11-4.85,3.09-7.87,2.85-1.72-.14-3.33.18-5.21-.31a10.51,10.51,0,0,1-6.51-5c-.85-1.32-1.65-2.2-3.28-1.15a1.74,1.74,0,0,1-1.24.21c-5.25-1.39-10,.62-14.91,2-1.31.37-1.44,1-1.34,2a7.32,7.32,0,0,1-2.69,6.51c-1.83,1.68-3.4,2-5.77.66-2.87-1.58-6.21-2.22-9-4.18s-6.13-3.44-8.82-5.74A1.84,1.84,0,0,0,202,250c-1.72.48-3.35.37-5.29-1.59.5,1.55,1.57,2-.31,3-2.26,1.16-5.21,2.18-6.68,5.05-1.12,2.19-7.8,3.47-10.4,3-2.2-.37-4,1.21-5.5,2.65-4,3.77-8.1,7.33-13.4,9.14-2.37.8-2.37,2.35-1.68,4.31.58-.23-.37-1.63.92-1.17,2.34.83,4.81,1.32,6.1,4a24,24,0,0,1,2.41,5.73c.22,1.14,2.25.87,1.47,2.15-1.41,2.34-.64,5.43-2.82,7.5-1.13,1.07-2,2.39-3.45,3.15-1.76.89-2.46,2.93-2.94,4.56-1.09,3.66-.84,3.73-3.22,6,1.76.64,3.76.42,5.25,1.73.83.72,1-.17,1.13-.58.18-.62-.35-1.33.17-2,1.73.46,2.06,2.35,3.21,3.42s2.42,1.25,3.58,1.93c5.1,3,11.34,4.4,14.8,9.91a2,2,0,0,0,1,.82c5.37,1.61,8.46,5.9,11.85,9.88a7.67,7.67,0,0,1,1.06,2.59,13.83,13.83,0,0,0,6.73,7.43c2.2,1.17,2.26,3.52,2.57,5.63.21,1.43-.06,3,1.18,4.12a1.35,1.35,0,0,1,.25,1.21c-1.31,2.95-.34,5.12,2,7,2.11,1.69,1.86,4.38,2.32,6.68a18.29,18.29,0,0,1-3,14.4c-1.35,2-.35,4-.25,6,.16,3.15,1.2,6.33-.44,9.41-.27.5-.29,1.05-1,1.38-1.2.57-1.43,1.6-.62,2.75a3.93,3.93,0,0,1,.29.42c2.79,4.82,2.12,8.55-2.29,12a4.86,4.86,0,0,0-2.3,4.34c.15,2.24-1.37,3.86-2.6,5.19a29.2,29.2,0,0,1-7,5.38,13.61,13.61,0,0,0-5,5.93c-.46,1-.75,2-2.17,1.64a1,1,0,0,0-1.17.34c-1.92,3.07-5.14,3.67-8.28,4.38-4.28,1-8.33,2.44-11.74,5.28-2.34,1.94-5.28,1.37-7.91,2-5.63,1.45-11.37,2.51-16.89,4.4-.4.14-.8.55-1.18.28-3.37-2.39-6.39.66-9.59.58a31.61,31.61,0,0,1-3.47-.29,27,27,0,0,0-5.07-.14,3.09,3.09,0,0,1-3.08-1.78,4.64,4.64,0,0,0-5.4-2.76,9.76,9.76,0,0,1-3.05-.1c-1-.13-2.06-.23-1.91,1.51.12,1.44-1,1.74-1.79.75-1.5-1.85-4.28-1.76-5.52-4.06-.56-1-2.35,0-3.51-1.32-.89-1.05-1.7-1.79-1.41-3.76-.82,1.24-1.06,2.05-2.59,1.36-2.88-1.29-5.1-3.65-7.72-4.88-4.41-2.08-5-6.29-7.22-9.56a16.26,16.26,0,0,0-3.29-4,16.13,16.13,0,0,1-5.4-7.45c-.81-2.29-.28-4.93.07-7.37a6.46,6.46,0,0,0-2-6c-2.63-2.55-3.64-9.65-2.12-12.9a29.82,29.82,0,0,0,1.62-5.3,1.72,1.72,0,0,0-.27-1.46,7.15,7.15,0,0,1-2.38-6.23c.47-2.88-2-6.56.78-8.33,1.93-1.21,1.34-4.16,4.31-4.5,1.13-.13,1.78-3.25,1.57-5.13-.73-6.76,2.89-11.27,8-14.37,3.42-2.07,4-5.34,5.39-8.32a9.81,9.81,0,0,1,4.89-5.25,9,9,0,0,0,5.54-5.9c1.36-4.56,4.13-6.33,8.59-7.2,3.09-.61,6.65-1,9.56-2.75,1.72-1,3.68-1.33,5.49-2.07a2.86,2.86,0,0,1,3.45,1.16c-2.86-2.89-.69-5.73-.27-8.46a7.32,7.32,0,0,0,.08-3.26c-1.19-4.31,0-8.78-.78-13.14-.36-2,1.65-2.49,2.92-3.18s2.5.54,3.63,1.16c.41.22.62.81,1,1.41.07-1,.1-1.87.19-2.72.06-.62,0-1.11-.78-.95-1.3.27-1.79-.83-2.49-1.48-2.85-2.63-2.82-2.64-5.85-.6a1.9,1.9,0,0,0-.57.74c-.52.82.55,2.24-.62,2.54a23.31,23.31,0,0,1-4.67.32c-2.15.09-3.88-1.77-5.54-1.89-2.92-.21-5-1.69-7-3.17-1.73-1.33-4-2.58-4.13-5.51-.09-2.32-2.41-3.14-4.18-3.68-2-.59-3.64-2-5.86-1.83a1.67,1.67,0,0,1-1.37-.48c-1.62-3-5-4.75-5.8-8.32-.32-1.5-1.44-2.81-.06-4.58.73-.93.33-2.83.42-4.14.36-5.93,4.8-9.79,6.81-14.82.4-1,1.37-3,3.38-3.19.25,0,.32-1,.68-1.26.92-.75-.08-3.7,2.65-2.36.13-2.64,3.49-2.8,4-5s3.23-3.34,2.26-6.05c-.22-.59.76-.75,1.36-.88,1.34-.27,2.65-.55,1-2.2a1.82,1.82,0,0,1-.41-1.43c.56-3.11-.57-6.14-.35-9.2.09-1.23-1-1.91-1-2.91,0-1.56-.66-2.95.64-4.77s-.45-4.46-.49-6.79a6.19,6.19,0,0,0-.92-4c-.37-.48-.59-1.25-1.34-.82s.07.8.27,1.16c.52.92-.34,1.21-.75,1.68s-.81.29-1.17-.24-.89-1.08-1.7-.43a1.8,1.8,0,0,1-2.87-.32c.18.27.35.54.54.8.49.68,2,.72,1.36,2.09-.59,1.16-1.7,1.29-2.9,1.24s-2.32-.62-3.44.21a1,1,0,0,1-.92-.27c-2.38-3.26-7.15-2.75-9.61-6.22-.76-1.08-3.61-.31-4.88.66-4.73,3.61-7.68,8.58-9.7,14.12-.52,1.45-.61,2.13,1.57,2.9a15.36,15.36,0,0,1,10.44,11.66c.48,2.14.53,4.3,1,6.42.31,1.35-.56,2.53-1.09,3.49a12,12,0,0,1-5.48,5.46c-1.3.57-1.15,2.42-2.63,2.74-.93-.24-1.18-1.19-1.81-1.75a2.16,2.16,0,0,0-2.59-.48c-1.2.6-.16,1.42-.17,2.16,0,1.56,2.1,3,.3,4.7-.29.28.11.93.82.93,3,0,4.11-1.22,3.61-4.27-.06-.41-.08-.83-.12-1.24M100.33,88a1.4,1.4,0,0,1,1.65.48c1.14,2.43,5.46.37,5.74,4.12,0,.45,1.63,1.32,2.16,1.12,2.29-.89,2.93,1.53,4.6,1.74a1.31,1.31,0,0,1-1.83.85c-4-1.26-6.55,1.65-9.4,3.48-1.28.83-1.63,1.63.31,2.67,1.7.9,3.78-.33,5.07,1.68.41-.83-1.34-1.49.27-2a8.09,8.09,0,0,0,3.27-1.88c2-2,3.69-4.26,5.78-6.2.69-.65,1.65-.37,2.2-1.36,1.34-2.43,3.58-4.28,4.23-7.21.55-2.42,1.74-2.59,3.33-.77s6.56,2.22,8.32.64c.46-.42,1-.7,1.31-.25,1.51,2,3.63,1.56,5.65,1.56,3.95,0,7.79,1.07,11.84.5,4.45-.63,8.27,1.46,11.62,4.31a2.4,2.4,0,0,1,.79,1.31c.56,3.65,3.22,6.29,4.67,10.24.89-2.61,2.45-4.22,3-6.43a3.75,3.75,0,0,0-.13-2.76c-2.93-5.73-6.09-11.29-12.71-13.47-1.48-.48-2.24-2.24-3.62-2.21-4.61.11-8.61-2.28-13.14-2.8s-9,.44-13.56-.64c-2.47-.59-5.7.62-8.48.19-1.39-.21-1.81.13-2.27,1.1-.84-.77.33-1.64-.45-2.22a12.41,12.41,0,0,1-5.34,3.52,10.81,10.81,0,0,0-3.15,1.57c-2.47,1.64-5.16,3-7.67,4.59-1.58,1-4.88,1.16-4,4.54-.75-.12-1.79-.6-2.2-.28-1.9,1.47-4.4,1.92-6.13,3.54-3.21,3-3.1,3.34-.08,5.48,1.75,1.24,3-.15,4.26-.7a18.75,18.75,0,0,0,3.21-2.12c1-.68,2.34-1.17,2.86-2.11.83-1.51-1.51-1.8-1.73-3.06a6.87,6.87,0,0,0-.19-.75m59.45,140.67c-.37,0-.37,1.21-1.26,1-.7-.19-1.06,1.6-1.85.56a1.69,1.69,0,0,1,.63-2.47c1.55-.62,2.26-2,3.34-3,2.31-2.14,5.19-3.95,5.09-7.84q-.36-14-.36-28c0-1.67-1-2.43-2.05-2.45-4-.09-4.7-3.5-6.21-6-1-1.57-.52-3.2.15-5,1.14-3,.29-7.22,5.33-7.43a.84.84,0,0,0,.6-1.22c-2.32-3.27-.3-9.71-7.1-9.73a2.92,2.92,0,0,1-1.56-.88A50.28,50.28,0,0,1,150,152c-1-1.1-1.69-1-2.55-.11-1.81,1.85-3.7,1.43-5.62.23-.57-.36-1.1-1-1.7-1.07-1.78-.24-1.59-.13-1.31-2,.18-1.18,1.45-3.66-1.88-2.82a1.75,1.75,0,0,1-1.6-.33,4.29,4.29,0,0,0-3.55-.55,15.78,15.78,0,0,1-9.21,1.41c-3.46-.47-4.48,1.23-5.93,3.43-1.86,2.85-3.56,5.8-5.5,8.61-.91,1.31-3.24,2-2.53,4.58,3.26-1.89,6.92-1.36,10.25-2.18a42.37,42.37,0,0,0,17.35-9.14c.37-.32.64-.89,1.35-.53.41,1.09-.43,1.66-1,2.39a19.56,19.56,0,0,1-9.09,6.47c-1.51.52-2.64,1.9-2.33,3.05.89,3.34.51,6.79,1.25,10.11.1.47.1,1.26.82,1.06,1.32-.37,1.89.6,2.62,1.27,1.44,1.33,4.05,1,4.76.72,3.43-1.45,6.74-2.88,10.53-2.42a2.93,2.93,0,0,0,1.64-.3c3.65-1.44,5.8-.83,7.15,1.91.69,1.39.67,2.84-1.24,2.68-4.19-.36-8.08,1.13-12.12,1.63-3.51.43-7.24,1-9.93,3.69-1.05,1.05-1.08-.68-1.67-.37-.35.87.79,2.13-.11,2.41-2.81.89-.4,1.77.09,2.64-1.09.36-2,.64-2.87,1-.21.08-.74,0-.4.54.85,1.42-.31,2-1.18,1.74-1.92-.67-2,.65-2.11,1.7a16.55,16.55,0,0,0,.08,3.37,26.46,26.46,0,0,1-7.58,20.74,8.79,8.79,0,0,1-6.31,2.74c-3.18.05-3.36.25-3,3.26a3.93,3.93,0,0,1-.48,2.72,11.4,11.4,0,0,0-2,4.19c-.41,2.88-2.5,3.91-4.66,4.85a4.35,4.35,0,0,0-1.76,1.15,23.47,23.47,0,0,0-6.21,11.62c-.78,3.93-2.16,7.68-.93,11.8,1.78,5.95,3.55,9.8,9.47,10.35,2.32.22,4.67-.42,7,.37.22.08.63-.21.88-.42,3.37-2.74,7.37-1.57,11.13-1.8,1-.07,1.37.92,1.9,1.58,2,2.53,3.8,5.24,6.74,7a14.65,14.65,0,0,1,4.32,4.34c1.34,2.08,1.44,4.89,3.1,6.95,1,1.23.11,4.42,3.4,3.29,0,1.07,2.22.43,1.54,1.69a1.79,1.79,0,0,1-2.62.79c-.07-.05-.12-.13-.19-.18-1.57-1-2-.14-2.06,1.26a4.7,4.7,0,0,0,1.21,3.07c.49.57,1.93.69,1,1.88s-1.78.46-2.52-.11c-1-.76-1.6-.28-1.57.59.05,1.5-1.16,2.24-1.6,3.39-.79,2-3.19,3.72-1.39,6.37,1.06,1.56,2.18,3,2,5.26-.12,1.24,1.61,2,3.07,2.06,3.37.13,6.2-1.81,9.3-2.66,2.93-.81,6.13-2,8.19-4.7,1.34-1.73,3.37-2.67,4.07-5.21.81-3,1.48-6,2.25-9,.44-1.71.94-3.06,3-3.73s4.36-2.4,3.89-4.72-.87-4.72-2.79-6.44c-1.58-1.41-5.8-.92-7.28.29-1,.85-1.51,3-3.2,2.42a2.88,2.88,0,0,1-2.22-2.81,5,5,0,0,1,3.18-4.63c1.53-.63,2.46,0,2.94,1.6,0-1.11,1-2.1.28-2.91-1.91-2.17-2.11-5.24-4.57-7.27-2.13-1.77-2.57-5-4.26-7.39s-2.72-5.07-4.36-7.4c-1.25-1.77-2.74-3.79-4.6-4.59s-4.13-1.08-5.95-2.63c-.82-.7-2.49-.6-2-2.24.43-1.44,1.81-1.56,3.2-1.65,5.92-.41,9.15,3.8,12.72,7.36a16,16,0,0,1,2.24,3.43c.8,1.41,1.57,1.49,3.13.82,2.81-1.21,5.27-3.85,8.84-2.65.67.23,1.08-.47,1.53-.83,4-3.24,8.57-3.4,11.28.9,2.52,4,5.29,3.45,8.71,2.74.68-.14,1.47-.75,2.14.11.48.61,1,.4,1.17-.18.35-1,1.3-1,2.06-1.35,2.24-1,4.74-1.74,6.65-3.21,4.7-3.61,9.16-3.87,14.06-.38,2.49,1.78,5.5,2.4,8.22,3.66,1.16.54,2.93-.22,3.19,2.08,1.51-2.81,1.51-2.81.25-5.49a5.41,5.41,0,0,1-.39-1.24c-.8-4.27-.5-8.36,2.1-12a2.67,2.67,0,0,0,.44-2.35c-.57-2.69-2.44-1.08-3.71-1.49-1.9-.61-2.36.45-2.14,1.73.48,2.86-2.05,3.76-3.25,5.51a1.11,1.11,0,0,1-1.63.22c-.67-.47-.37-1,0-1.57.69-1.19,1.32-2.42,2-3.63.35-.64,1.32-1.45.54-2s-2.59-.41-2.81.34c-.74,2.59-4.06,2.73-4.66,5.32-.12.52-1.24,1.14-1.15.29.23-2.12-1.08-4.27-.14-6.17.76-1.54,1.07-3.44,2.7-4.52.61-.41,1.08-1.27.12-1.62-1.76-.65-3.64-1.9-5.48-.09-1,1-2.17,1.74-2.81,3a2.46,2.46,0,0,1-2.84,1.31,3.63,3.63,0,0,0-2.42.3c-2,.77-2.81.11-2.82-2.27-.59.73-.12,2.09-.82,2.16-2.7.24-3.92,2.7-6.1,3.71-2.88,1.33-6.09,1.79-8.7,3.73a1.86,1.86,0,0,0-1.8-1.17.86.86,0,0,1-.6-.41c-.47-1.07-2.62-2.07,0-3.33.39-.19.73-1.37,1.46-1.47,1.1-.14-.07,1.54,1.11,1.59.26-1,1-1.4,1.8-2,2.89-2.15,2.8-2.42.49-5.16-2.07-2.45-5.28-2.68-7.79-4.25-.91-.56-1.43,0-1.71,1.17A46.8,46.8,0,0,0,167,229c-1-.27-1.82-2-2.53.22-.31.95-1.95,1.77-3.22,1.73s0-1.78-1.42-2.34M104.4,133.55c1,.84-.56,2.88,1.52,3.35,1.64.38,3.37,1,4.9,1.22,4.64.63,9.2,2,13.94,2,1.27,0,2.42-.65,3.81-.19,5.61,1.87,11-.09,16-2.1,3.9-1.56,8-3.25,11.23-6.2.4-.37,1-1.08,1.51-.31s-.44,1-.76,1.42-1.83,1.06-.71,1.65,3.24,1,4,.32c1.5-1.26,3.2-2.59,3.77-4.79a61,61,0,0,1,2.66-8.62c1.18-2.8,1.62-5.74,2.4-8.62s-1.68-5.47.31-8.11c.23-.31-.21-.91-.61-1.32a5.78,5.78,0,0,1-1.29-1.89c-1.3-3.34-4.16-4.82-7.1-6.34s-6.3-.9-9.45-2c-5.52-1.9-5.67-1.49-7.54,3.64-.2.54-.23,1.39-1.06,1.18a1.38,1.38,0,0,1-.9-1.69c.32-1.45.8-2.87,1.24-4.4-1.11.14-1.44.95-2,1.41-1.72,1.31-2.79,3.33-4.8,4.33-.45.22-.94.65-1.37.11-.31-.39,0-.82.25-1.19A13.63,13.63,0,0,1,137.4,93c.4-.33.88-.71.61-1.29a1.06,1.06,0,0,0-1.34-.52c-1.36.41-2.52-.14-3.74-.61-2.61-1-4.6-1-6.49,1.91a57,57,0,0,1-8.58,10,150,150,0,0,1-18.07,15.21c-1.17.81-2.91.92-3.47,2.46-.4,1.1-1.2,1.18-2.08,1.51-1.38.52-3.69.39-3.82,2-.17,2.08-1.47,2.42-2.76,2.82-3,.94-3.49,2.16-2.06,5.13.49,1,1.75,1.92,1.1,3.6a7.47,7.47,0,0,1-1.48-1.34c-.32-.57-.22-1.4-1.11-1.55-.43,2.2,1.57,4.4,4.54,4.85-.45-1.17-1.89-2-1-3.45,2.48,3.41,5.65,4,9.71,1.69.77-.43,1.49-1,2.39-.49a1.27,1.27,0,0,1,.4,1.64c-1.05,2.56.37,3.41,2.49,4.14.74.26,1.53.64,2.52,1-2-2.63-4.78-5.18-.73-8.13M166.63,369.1c.07,1.62,0,3.2,2.15,2.94.76-.09,1.65.2,1.48,1.32s-1.1.76-1.67.68c-4-.62-7.59.54-11.22,2a3.93,3.93,0,0,1-4.68-1c-.48-.56-1.42-1.28-2-.55-.86,1.13-2.73,1.1-3,2.67-.33,1.93,3.61,7.86,5.52,8.47a.52.52,0,0,0,.37,0c1-.54,1-.51,1.73.1a11.22,11.22,0,0,0,1.5,1c3.57,2.11,7.41,3.74,9.4,7.91a25.07,25.07,0,0,0,3.08,4.59c3.12,3.92,3.44,5.78,1.13,10-1.85,3.44-6.71,5.3-10.36,4.29-2-.54-3.49-1.76-5.25-2.59-1.34-.63-1.73-3.45-4.09-1.87-.28.18.36-1.21-.57-.51-.55.41-1.09.85-.34,1.65a4.39,4.39,0,0,1,.85,4.32c-.81,2.66.58,5.64-1.34,8.1-.29.39.14,1,.53,1.37a1.47,1.47,0,0,1,0,2.44c-.78.71-.65,1.75-1,2.62a1.17,1.17,0,0,0,.62,1.54c.6.29,1-.11,1.31-.53,1.27-1.64,3.27-1.85,5-2.43a18.44,18.44,0,0,0,8.34-4.95c.18-.15.77.14.92,0,.78-.79,1.79-1.2,2.57-2.12,1.33-1.55,1.89-4.42,3.59-4.65,2.1-.3,2.59-1.64,3.55-2.75,3.05-3.52,4.71-7.89,6-12.15,1.1-3.57,2.4-7.29,1.9-11.38a50.86,50.86,0,0,0-2-9.45c-.72-2.28-2.93-3.32-4.4-5-.42-.48-1.42-.86-.78-1.6s1.7-.17,2,.36c1.17,2,3.65,2.48,4.75,4.89.58,1.27-.13,3,1.2,3.93a1.45,1.45,0,0,0,.59-1.92c-1.83-4.49-.32-9.32-1.75-14-1.5-4.88-1.94-10.12-3.54-15-.89-2.71-3-4.69-4.46-7-2.13-3.29-5.31-5.37-8.46-7.49-.61-.42-1.4-.84-1.62.19-.3,1.43-1.12,1-2.06,1.05-3.83.34-7.65.8-10.9,3.16-.8.58-1.54,1.56-2.47.05s.26-1.78,1.09-2.3c2.19-1.38,4.9-.7,7.21-1.85.71-.35,1.18-2,2.54-.92.49.4,1.36.27,1.45-.41s-.25-2.12-.81-1.92c-2,.68-3.25-1.12-5.07-1a45,45,0,0,1-7.61-.17c-1.34-.14-1.49.88-1.32,1.33.94,2.38.21,4.79.34,7.17.13,2.69.89,4.51,4,5.27a8.2,8.2,0,0,1,5.79,5.13c.43,1.2.2,2.85,1.79,3a4.18,4.18,0,0,0,4-1.93,6.86,6.86,0,0,1,7.08-3.14c2.07.35,5.47,2.71,5.16,4.1-.52,2.36,1,4.29,1,6.51,0,1-.06,2.22-.91,2.39-1.1.22-1.64-1.29-1.51-2,.37-1.87-1.23-3.5-.28-5.48.49-1-2.75-4-3.84-3.47-2,1-4.51,1.11-6.1,3a6.21,6.21,0,0,1-3,2.34c-1.57.39-1.79,1.32-1.95,2.82-.44,4.13-.7,8.4-4,11.86,3.66,1.65,6.71-1.32,10.08-1,1.05.09,1.23-1.49,2.56-2M99.06,186.68c.75-.27.58-.71.61-1.13a2.22,2.22,0,0,1,1.5-2.2c1.1-.25,1.63.77,2.08,1.62a10.11,10.11,0,0,1,.8,1.89c.61,2.16,1.29,4.31,1.72,6.5,1,5.33,2,10.66,1.6,16.16-.18,2.84-1.63,5.59-.91,8.69a17.61,17.61,0,0,0,5.42-4.38,52.45,52.45,0,0,0,7.84-14.49c1-2.56-.59-7-2.89-8.58A6.91,6.91,0,0,1,114,183c.63-2.46,1.45-4.87.85-7.58s-1.4-5.66-2.17-8.48c-.51-1.86-1.34-1.64-2.39-1.13-1.75.85-3.41,1.92-5.09,2.91a1.92,1.92,0,0,1-2.41-.19c-.71-.65.11-1.25.28-1.87,1.23-4.27,4.65-7.23,6.66-11a1.72,1.72,0,0,0-.13-2.29c-3-4.4-6.72-.52-10-1.06a.5.5,0,0,0-.61.21c-1.54,2-4.23,2.19-6,4.06-2.31,2.39-4.91,4.56-7.25,7a1.87,1.87,0,0,0-.63,1.59,4.55,4.55,0,0,1-1.73,3.71c-4.08,3.95-4.82,10.32-1.81,14,2.15,2.65,5.3,3.55,8.32,4.23a10.08,10.08,0,0,0,8.71-2.45c.76.64-.16,1.46.51,2.08M65.7,230.09c3-.54,6.46,0,7.85-3.74.69-1.85,0-4.11,1.65-5.7.1-.09,0-.33-.18-.56-2.31-2.35-2.06-6.31-5.35-8.21a6.65,6.65,0,0,1-2.18-1.27,5,5,0,0,0-7-.52c-.42.4-.6,1.14-1.39.77s-.73-1.08-.74-1.78c0-4,.09-7.81,2.35-11.43,3.39-5.45,6.6-11,12.86-13.64,1.61-.68,1.64-1.75,1-2.81a12.75,12.75,0,0,1-1.79-5.06c-.16-1.13-.59-1.47-2-1.17s-2.61,1.62-4.11,1.47c-1.27-.13-1.56.28-1.87,1.43-.53,1.93-3,3.27-5,3-.54-.07-.76.28-.82.77s0,1.49-.28,1.72c-2.63,1.77-4.28,4.29-5.89,6.93s-4.11,4.54-5.34,7.34c-1,2.36-1.69,4.9-2.51,7.35-.23.68-.61,1.06.27,1.9,1.13,1.09,1.25,2.78-1,3.16-3.31.56-5.57,3.35-6.9,5.47-2.61,4.17-3.72,9.29-5.43,14A.75.75,0,0,0,32,230c1.91-.13.94,1.58,1.48,2.31,1.18,1.58,1.31,3.78,3.06,5,1,.72,2.23,1,2.45-.39.5-3.12,2.79-5.26,3.88-8.05,1.88-4.78,4.56-6.46,9.56-6.23,1.54.07,2.41-.5,2.56-1.88.34-3,2.91-2.7,4.73-3.19,1-.27.44,1.69,1.32,2.2-2.89,1.62-.39,3.75-.25,5.47.21,2.48,3.28,4.88,4.94,4.84m49.53,121.7a1.43,1.43,0,0,1,.2.44c.15,1.75.14,1.74,1.9,1.33.18-.05.42.21.65.28,2.37.68,3.48,2.35,2.77,4.75-.57,1.94.09,3.54.69,5.25.52,1.49,2.13,1.94,2.83,3.29,1.44,2.77,5.26,1.18,6.92,3.64,4.36-.92,8.77.87,13.22-.52,2.91-.91,6.05-4,6.78-6.76s-1.07-4.06-1.63-6.05a9.56,9.56,0,0,0-5.69-6.32c-.76-.35-1.44-.76-2.08,0-1.94,2.33-3.23.72-4.66-.66-1-1-2-1.91-3-2.83-2-1.77-1.56-3.25.75-4.8a2.37,2.37,0,0,0,.66-2.52c-.24-.68-.55-1.68-1.23-1.36-1.66.79-3.36-.4-4.9.32-.8.38-1.86-.53-2.38.48-1.29,2.55-3.77,4.55-3.62,7.8,0,.79.07,1.83-1,2.12s-1.72-.39-2.3-1.24-1.38-2.12-1.77-2c-3.7,1-5.94-.38-7.17-3.84,0-.05-.15-.08-.23-.1-1.51-.29-1.31-1.49-1.53-2.6-.91-4.6,3.1-7.74,3.45-11.85-2.75.63-4.57,2.24-6.42,4.58-3.09,3.94-3.7,7.67-1.76,12.08.15.34.5.73.06,1.15-.88.85-.88.88.27,1.53a2.55,2.55,0,0,1,1.23,1.66c1.4,3.9,5.58,5.08,9,2.76m.71,75.3c-3.74-12.33,3.59-20.43,10.22-29.12-1,.28-1.53.4-2.06.61-.82.32-1.53,1.36-2.52.38-.17-.16-.36-.59-.3-.65a4.77,4.77,0,0,1,2.43-1.16c1.1-.25,2.4-1.68,3.37-1.88,2.37-.49,1.28-1.95,1.54-3.06-1.55,1.79-3.77,1.17-5.61,1.76a6.11,6.11,0,0,1-6.14-.91,2.85,2.85,0,0,0-3.69-.34c-6.27,3.13-12.08,7-18.06,10.68-2.69,1.63-2.37,3.16-.52,5.76,1.57,2.21,3.13,1.57,4.9.91.86-.32,1.62-.32,2,.52.3.66-.3,1.2-.87,1.36-2.46.71-1.57,1.9-.58,3.22,4.12,5.52,9.68,9,15.9,11.92M88.87,378.65c-.82.76-.37,1.77-.46,2.68-.23,2.26,1,4.55.56,6.62a17,17,0,0,0-.17,6.79c.46,2.74.2,5.69,2.15,8.09.76.94,1,1.79,2.07.16,1.83-2.92,5.11-4.26,7.84-6,4-2.55,8.31-4.72,12.33-7.33.63-.41,1.16-.85.82-1.66s-.55-1.54-1.53-1.56a14.12,14.12,0,0,0-2.84.08c-.87.18-1.6.4-1.62-.82s.76-.69,1.43-.69c1.21,0,2.62-.51,2.92-1.56s-1.33-1.33-2.05-2c0-.06-.16-.07-.24-.09-3.74-.9-7.13-3-11.11-3.17-.56,0-2,0-1.66-1.37.29-1.11,1.43-1,2.18-.78a9.12,9.12,0,0,0,4.14.21c-2.08-.76-.45-2.69-1.26-3.24-1.44-1-2.09-2.74-3.63-3.43-1.89-.84-2.6-2.39-3-4.32-2.71,2.14-.8,3.45.54,4.84.3.31,1.15.31.58,1.06a1.06,1.06,0,0,1-1.18.27A2.31,2.31,0,0,1,94,370a4.81,4.81,0,0,1-.1-4.47c.67-1.19-.32-1.82-.84-2.45-.34-.41-.6.93-1.32.66a100.34,100.34,0,0,1-3.06,12.48c2-.85,3.73-1.59,5.78-1,.87.26,2.17-.14,1.92,1.26-.23,1.25-1.42.42-2.19.46-1.17,0-2.68-.36-3.17,1a3,3,0,0,0,1.45,3.55c2.41,1.41,4.53,3.22,7.65,3.41a23.58,23.58,0,0,0,6.11,0c.73-.14,1.23.09,1.29.84a1,1,0,0,1-.93,1.06c-1.81.19-3.52.73-5.46.47-3.38-.44-6.19-2.14-8.88-3.8-1.49-.93-3.46-2.4-3.39-4.85M81.22,101.22c1.16,2.55-.49,3-2.14,3.19a3.24,3.24,0,0,0-2.75,1.91c-.88,1.66-1.63,4-3.31,4.46-2.24.63-2.4,2-2.65,3.64a11.64,11.64,0,0,1-1,2.35c-.75,2-3.25,3.7-2.21,5.81s.5,3.89.74,5.75.64,3.62,2,5a19.19,19.19,0,0,0,11.84,5.75c.89.1,2.08.53,2.62-.46s-.6-1.51-1.07-2.16c-3.16-4.46-3.21-12.31,3-15.28.94-.45,1.94-1.12,1.63-2.35-.5-2,.58-3.07,2-4.06s2.23-2.62,3.78-3.48a.76.76,0,0,0,.32-1.1c-.54-1-3-1.41-3.84-.69-2.86,2.47-6.12,4.44-8.75,7.19-.53.55-1.36,1.13-2,.42s0-1.6.57-2c2.49-1.46,3.91-4.16,6.53-5.44,1.3-.63,2.28-1.51,1.18-3s-2.22-1.08-3.45,0c-3.66,3.3-7.39,6.5-10.39,10.46-.41.53-.94,1.63-1.8,1s-.4-1.48.12-2.3c2.55-4,6.12-7,9.58-10,2.46-2.19,2.54-2.19-.55-4.65m87,303.9c0-1.17.41-2.18-.09-3.2-2.16-4.49-4.66-8.75-9.71-10.44a21.16,21.16,0,0,1-6.47-3.61c-1.4-1.11-2.22-.87-2.47.81a29.07,29.07,0,0,1-1.48,5.73c-.29.78-.79,1.77,0,2.43,1.61,1.34,1.13,3.61,2.82,5.12,2.91,2.6,4.09,6.76,8.24,8.49a8.42,8.42,0,0,0,6.6.36,4.46,4.46,0,0,0,2.56-5.69m69.61-168.73c-1.22-.07-.47-1.77-1.42-1.34-2.4,1.07-4.41-.26-6.55-.76s-4.84.32-5.41,2a46.16,46.16,0,0,0-1.53,6c-.34,1.89,1.22,4.67,2.55,4.63a56.81,56.81,0,0,0,14.82-2c2-.59,4.35-2.81,6.3.3.33.52.93.27,1.44.17,2.66-.5,3.29-1.42,3.23-5.18-.37,1.09-1.31,1.74-1.82,2.7a2.93,2.93,0,0,1-2.49,1.6c-.14,0-.45-.3-.46-.48-.06-1.26,1.17-1.3,1.83-1.91,2.63-2.46,3.87-5.69-.89-7.21-.68-.22-1.28-1.65-2.08-.29-1.34,2.32-4,.36-5.61,1.85a.85.85,0,0,1-.59-.34c-1-3-1.11.23-1.32.23m-89.32,172.1c.43-2.41-.55-4.51-1.44-6.64s-2-3.81-4.6-1.87a4.83,4.83,0,0,1-2.44.71c-2.44.2-3,1.69-2.73,3.78.35,2.78-.07,5.55.44,8.4.42,2.39.2,4.88,1.6,7.06.23.36.51.91-.2.92-1.36,0-.81.83-.67,1.41a25.73,25.73,0,0,0,1,3.21c.59,1.52,1.76,3,3.32,2.76s3.37-.73,3.79-3.13a113.21,113.21,0,0,0,2-16.61m-28.59,18.37c1,.76,1.13-.11,1.64-.72,5.63-6.72,8.3-15.14,12.91-22.44.84-1.32,0-2.75-1-3.63s-2.11-1.79-3.65-.52a34.32,34.32,0,0,0-7.66,8.5c-1.28,2.09-1.66,4.53-3,6.56-2.55,3.94-1.35,8-.48,12.06.19.89.75.31,1.2.19M151.5,149c.16,1.33,1.64,2.2,2.58,3.32,1.46,1.71,3.39,3.2,5.8,2.46a5,5,0,0,1,3.44.22c1.8.63,3.68.82,5-.88.91-1.21,1.63-1.9,3.08-.92a1.21,1.21,0,0,0,1.65-.24c.44-.58-.36-.85-.54-1.28-.88-2-3.81-2.29-4-4.91,0-.42-.89-.75-1.3-1.18a7.7,7.7,0,0,1-1.49-1.75c-1.14-2.27-3.2-3.51-5.18-4.88-.68-.47-1.22-.56-1.83,0a15.92,15.92,0,0,1-5.91,3.35,2.24,2.24,0,0,0-1.37,2.77,5.82,5.82,0,0,1,.15,3.9m-11,280.29c-1.61-1-2-2.52-2.69-4-1.64-3.53-1.42-7.42-2.48-11.07-.47-1.62-.89-3.77.31-5.52.38-.55.83-.84-.17-1.27s-2-.07-1.86.57c.48,2.93-1.82,4.71-2.68,7.06a29.22,29.22,0,0,1-3.24,7c-1,1.33-2.51,2.25-3.06,4-.42,1.33-.28,2,1.34,1.83,1.94-.16,4.24-.82,5.76,0,2.08,1.07,4.54,0,6.36,1.71a1.76,1.76,0,0,0,2.41-.27m-26.78-60.91c1.26,0,3.37-.12,2.45-1.76-1.57-2.77-1.53-6.72-5.41-8.06-1-.36-2.62-.34-3-2,0-.13-.77-1.2-1.64-.43a.89.89,0,0,1-1.36-.27c-.93-2.07-4-2.26-4.24-5,0-.59-1-1.1-1.69-.82s-.23,1,0,1.53a35.78,35.78,0,0,0,7.14,12.85c2,2.2,4.4,4.21,7.81,3.94m3.91-28.86c1.85-.3,2.51-1.87,3.7-2.7,1.8-1.24,4-1.09,5.75-2.53,2.58-2.08,5.21-3.81,5.64-7.42a.73.73,0,0,1,.52-.5c.95,0,1.11-.44.92-1.32s-.92-1.14-1.73-1.16-1.6.3-2.07-.61c-1.48-2.85-2.33-1-3.31.41-2.61,3.9-5,7.95-8.71,11-.53.44-1,.9-.46,1.46,1.1,1.15.36,2.18-.25,3.34m40.1-159.94c.68,2.13,2.8,1.06,3.26,2.57.76,2.51,2.41,1.94,4,1.06,1.18-.64,3.58.14,3.16-2.54,0-.08.42-.35.63-.33,2.32.22,1.13-1.56,1.48-2.49.47-1.25,1.47-2.37.54-3.86-1-1.67-2.2-3.27-4.35-3.1-4.42.36-6.78,3.13-6.59,7.58.06,1.46-.09,2.38-2.16,1.11m-35.92,9.93c1.24-1,.35-3.17,1.8-3.15,3.36.06,3.31-2.77,4.36-4.61s-.79-3-1.44-4.37c-.24-.53-.76-.66-1.52-.38a17.52,17.52,0,0,0-7.59,5.56c-1.24,1.51-.24,2.74.19,4.09s1.5,1.29,2.47.91c2-.78,1.64.63,1.73,2M239.91,77.2c-.28-1.46-.54-2.55-.67-3.66a2.18,2.18,0,0,0-1.7-2,2.47,2.47,0,0,0-2.68,1.14,6.73,6.73,0,0,0-1.06,2.61c-.67,3.76.27,7.75-1.74,11.33-.57,1,.56,1.41,1.22,1.93s1.09.21,1.52-.28c2.85-3.28,4.17-7.22,5.11-11M52.28,239.4c-.29,2.38.76,2.38,2.46,1.66s2.83-2.08,4.07-3.4,1.68-2.23.56-3.73-2.3-2.54-3.25-3.94-1.41-.6-1.87.3c-1.48,2.89-1.53,6.09-2,9.11m62.45-75c.32,1.75,2,2.65,2.36,4.29a29.76,29.76,0,0,1,1.13,5,.9.9,0,0,0,1,.91c1.55-.33,3.32-.31,3.36-2.73s-.76-4.76-.87-7.17c0-.57-.32-1.11-.94-1-2,.41-4.1-.17-6.09.65m125.06-74.8c3.13-1.06,6.93-5.75,7.31-8.84a4.61,4.61,0,0,1,.52-2.21c.85-1.25.36-2.12-.92-2.62s-2.64-.38-2.83,1.18c-.53,4.36-2.25,8.33-4.08,12.49M163,260.46c-1.6.82-1.89,2.77-3.42,3.7a34.85,34.85,0,0,0-4.15,3.47c-.35.3-.67.62-.41,1.08a.83.83,0,0,0,.61.35c2.89.24,4.32-3,7.12-3-.81-2.05,1.15-1.39,1.87-1.81,1.23-.73,2.66-1.11,3.62-2.28.64-.77-.07-1.42-.44-1.13-1.46,1.13-1.78-.77-2.8-.95.2,1.22.49,2.81-.77,3-1.73.24,0-1.76-1.23-2.43M164.13,163a17.91,17.91,0,0,0,.06,1.93c.12,1-.34,2.54,1,2.55s2.74,0,3.13-2.19c.42-2.35-.3-4.58,0-6.87.09-.74-.52-1.26-1.62-1-2.82.66-3,.94-2.55,5.58m-73-64.34a5.86,5.86,0,0,0-.27-.62,4.37,4.37,0,0,0-6.32-1.44c-2.55,1.91-2.64,3.56-.35,5.37a1.83,1.83,0,0,0,2.72,0A17.07,17.07,0,0,1,90,100a2,2,0,0,0,1.18-1.36M107.44,95c-3-2.71-3-2.71-5.88-.56-1.31,1-2.61,2-4,2.9-.52.36-1.56.22-1.32,1.23.17.72,1,.9,1.6,1.2a2.69,2.69,0,0,0,2.72-.26c2.31-1.44,4.54-3,6.83-4.51m-3.13,13.85c.56-3.17-2.83-6.78-5.08-5.78a31.6,31.6,0,0,0-7.06,4.57c2.89.87,5.13,1.83,7.68-.39s3.17-1.91,4.46,1.6M120.6,379.61c.05,2.11-.37,4.37.26,6.29,1,3,5.25,4.87,8.44,4.35a1.56,1.56,0,0,0,1.44-1.25c.22-.91-.57-1.31-1.11-1.51a5,5,0,0,0-2.27-.08c-1.82.29-2.93-.46-4.17-1.83-1.61-1.79-1.11-4.09-2.59-6M90.47,106.41c1.89-1.32,3.9-2.68,5.86-4.11a.66.66,0,0,0-.16-1.1c-1.32-.65-2.59-1.81-4.17-.42-.9.8-1.92,1.44-2.88,2.16-.64.49-1.78.81-1.21,1.91.44.84,1.43,1.15,2.56,1.56m21.73,45.86c1-1.53,1.88-2.84,2.68-4.2.42-.72.56-1.65-.62-1.71-2.09-.12-4.26-1.15-6.48.29a34,34,0,0,1,4.42,5.62m36.48-7.71a5.91,5.91,0,0,0-.93.08c-1.47.45-3.46,2.85-3.72-1.12-.06-.86-1.22-.07-1.83-.43-.3-.18-.7.12-.71.52,0,.81.84.42,1.12.73.58.62,1.7,1.21.47,2.26a1.75,1.75,0,0,0-.57,1.65c.1.71-.16,1.57,1,1.85s1.25-.36,1.48-1.18a2.44,2.44,0,0,1,1.91-1.57c1.25-.37,1.75-1.27,1.82-2.79"/><path d="M48.42,460.87c-.53-1-1.68-1-2.49-1-1.9,0-3.73.3-5.39-1.17a1.65,1.65,0,0,0-2.29.9c-.77,1.93-2.17,1.35-3.7,1,1.29-.64,2.32-1.32,1.46-2.86,2.68-2.65,6-2.75,9.47-2.46.62.05,1.63.48,1.77-.47A1.64,1.64,0,0,0,45.7,453a6.93,6.93,0,0,0-1.29-.06c-5.16,0-10.34-.3-15.46.13-2,.18-4.42-.76-6.24,1.35,2.77-1.32,4.49,5.84,7.71.68,0-.07.35,0,.48,0,1,.64,2.18.34,3.29.36,1.41,0,2.08.7,1.79,2.15-1,2.38-3.43,1.42-4.9,1.58-4.49.5-9.09.14-13.64.07-1.33,0-1.81-1-1.79-2.1,0-1.55,1.31-.8,2-.75a6.59,6.59,0,0,0,4.19-.69c-2.56,0-4.8-1.64-7.41-1.22-.72.12-.86-.34-.87-.94,0-.87-.81-.61-1.17-.6a6.42,6.42,0,0,1-3.6-1.25c-.72-.63-.58-1,.2-1.27.46-.17.82-1.55,1.46-.15.47,1,.8,1,1.83.26,1.67-1.24,7-.9,8.67.21.64.43.82,0,1.23-.34,1.17-1.07,2.53-1.67,3.9-.39.53.5.87.29,1.36.14a18.06,18.06,0,0,1,7.91-.63,49.1,49.1,0,0,0,7.93-.1c2-.09,3.95,0,5.91-.06,3.15,0,6.08.78,9.09,1.16a17.64,17.64,0,0,0,5.65-.81,5.71,5.71,0,0,1,3.53.19c.76.29,1.84,1.34,2.59-.51.46-1.14,1.75.32,2.68,0,0,.9.54,2.13-.66,2.46-.73.2-.85.64-.81,1,.09.8.74.37,1.21.38,1.87,0,3.82.84,5.44.81,3,0,6.16-.05,9.24-.39,4.21-.46,8,1.69,12,2.43a1.34,1.34,0,0,1-.24,2.6c-.51.06-1.45-1-1.41.45,0,1.22,1.51.95,1.79.86,2.77-.9,5.81.15,8.48-1.2,1.39-.71,2.71-1.31,3.77,1.2,1-4.7,4.11-2.49,6.06-2.54,1.45,0,2.75,0,3.88-.77.91.54.26,1.68,1.15,2.05a3.5,3.5,0,0,1,4.72-1.54c2,.91,3.68.12,5.48-.29,1.2-.26,2.43-.84,3.5.37.67.75.4-.29.64-.4.59-.27,1.42-.55,1.23.37-.46,2.18,1.17,1.32,2.19,1.88-.22-1.05-1.72-1.6-.54-2.55a1.41,1.41,0,0,1,2.25.35c.83,1.43,1.74.2,2.51.13,1.59-.17,3-.5,4.1,1.2.32.5,1.62,0,1.94-.45a1.47,1.47,0,0,1,1.81-.53c2.58.86,5.17,0,7.74.19,1.69.12,3.27,1.06,5.13.13,1-.53.6,1.11,1.09,1.6l.46-.24c1.44-.79.08-3.33,1.54-3.44,3.52-.28,7.11-1.78,10.58-.44,1.71.66,3.11-.74,4.52.22.6-1-1-2.56,1.06-2.78.1,0,.29-.28.26-.38-1.26-4.67,2.77-2.83,4.55-3.59a38.12,38.12,0,0,1,4.74-1.15c2.17-.61,4.36-.06,6.55-.21s4.29-1.35,5.72-1.16c3,.39,5.74-1,8.58-.18,1.56.42,3.43-.92,4.79.86.15.19,1,.15,1.22-.07,2.39-1.89,4.94-.93,7.54-.7,3,.26,6.16.11,9.09.5s6.31,0,9.14,1.73c1.08.65,2.44-1.29,3.51.27,1.77-1.57,3.12-1.17,4.42.71.42.61,1.24.55.78-.62a.51.51,0,0,1,0-.47c1-1,6.09.05,6.63,1.38s-1.22,3.74-3,3.52c-4-.5-8.16.87-12.08-1.55-.88-.54-4-.67-5.41,1.2-.65.86-1.22.72-2.15.69a20.44,20.44,0,0,0-6.4.56,4.94,4.94,0,0,1-4-.31c-.26-.15-.56-.67-.83-.23-1.37,2.25-3.8,1.06-5.64,1.8-1.34.54-3.33,0-3.43,2.35l-.21.52a15.13,15.13,0,0,1-.26,1.79,5.85,5.85,0,0,1-.59,1.42c-.19.33-7.38.19-7.59-.13a1.64,1.64,0,0,1,.26-2.31,1,1,0,0,0,.2-1.39c-.1-.14-.48-.11-.73-.08-.8.1-.47.65-.5,1.15-.13,2.27-1.24,3.67-3.63,3.8-.34,0-.83.1-1-.08-2.3-2.75-4.39-.54-6.57.21-.93.32-1.89.37-2.44-.77a15.54,15.54,0,0,0-1.49-2.53c.61,2.14,0,3.2-2.24,2.74a1,1,0,0,0,.92,1c2,.35,1.67,1.92,1.58,3.2-.11,1.7-1.71,1.19-2.42,1-5.67-1.66-11.43-1.33-17.22-1.35-3.89,0-7.83.25-11.62,0-4-.23-8.26-.63-12.07-.19-3.41.39-7-.71-10.34.85-1.06.49-3,1.7-3.81-.79-.09-.25-.36-.53-.51-.28-1.67,3-4.61-.22-6.6,1.35a1.51,1.51,0,0,1-1.39-.29c-.89-2.31-2.88-1-4.91-1.77,1.93,1.89.66,2.52-.52,3.46-.52-2.3-1.75-3.4-4.12-2.87-1.51.33-2.4-.49-2.47-2.19-1.43,1.47-2.71,1.65-4.63,1.64-6.38,0-12.78-2.28-19.18.06-.82.3-2.06-.34-3-.73s-1.62.39-2.47.47c-1.33.13-3-.49-4.08,1.11-.44.65-1.27.56-1.74-.17-1.72-2.67-5-2.13-7.33-3.63a10.1,10.1,0,0,1-2.14-1.26c-1.76-1.84-3.91-1.55-6.21-1.67s-4.29,1.29-6.39,0a.7.7,0,0,0-.44-.14c-1.39.26-2.42,2.83-4.19.64.09,2-1.6.8-2.34,1.29a4.46,4.46,0,0,1-3.95.45c-.12-.08-.24-.18-.35-.27"/><path d="M210.55,42.67c.51-.55.89-1.38,1.89-.93s.1,1,.16,1.49a8.54,8.54,0,0,0,.73,1.9c.19.49.45,1.09,1,1,.86-.17.49-.91.5-1.49,0-1-1.08-2.45.76-2.7.92-.13,2.17-.84,2.94.15s-.91,1.09-.94,1.85a17.52,17.52,0,0,0,0,3.62c.86,4.66-.18,9.25-.35,13.87-.06,1.78-.28,3.64,1.22,5.08.83.08.83-.77,1.28-1.1,1.12-.8,2.31-1.81,3.7-.85,1,.67.19,3.4-1.3,4.11a5.87,5.87,0,0,0-3.4,5.4c-.1,1.54.25,2.94,2,3.53a3.37,3.37,0,0,1,2.39,3.32c-.05,1.55-1.28,2.07-2.88,2.33s-3.24,1.3-2.86,3.57c.12.72,0,1.49-.73,1.77s-1.21-.47-1.58-1c-.54-.78-1-1.62-1.5-2.43a7.2,7.2,0,0,0-.83-1.3c-1.9-1.94-10-2.63-12.77-1.13-3,1.64-5.14,6.36-4.51,10.07.17,1,.62,2.68-.61,2.45s-3.64.13-3.39-2.43c.36-3.8,0-7.81,3.11-10.87,1-.93.76-1.57-.79-1.71a5.65,5.65,0,0,0-5.95,5A12.93,12.93,0,0,0,190,94.06c.53.74,1.16,1.54.25,2.25s-1.54-.1-2.29-.81c-2.62-2.48-2.52-6.13-4.12-9-.41-.73.19-1.57.85-2.27,2.51-2.66,2.62-4.69.52-7.5-1.17-1.56-2.2-3.3-3.36-4.79a13.15,13.15,0,0,0-11.81-5.07c-1.9.15-2.39-1.14-3.06-2.23-.83-1.36.35-2,1.29-2.63a23,23,0,0,1,5.94-2.56c1.42-.49,2-1.2,2.46-3,.69-3,1-6.38,3.3-8.81,1.53-1.66.69-2.07-.84-2.58-5.08-1.69-6.76-6.29-8.85-10.52-.1-.19.22-.58.42-1,1,.48.46,1.76,1.41,2.21.91-2.38,3-4.25,2.9-7.29,1.49,2.41,5.41,2.67,4.93,6.79-.19,1.67,1,3.55,1.76,5.27a2.67,2.67,0,0,0,2.73,1.62,23.92,23.92,0,0,0,4.35-.13c4.38-1,8.66-.15,13-.06,2.15,0,4.36-.7,6.62-.65,1.12,0,1.84.28,2.09,1.42-3.69-.82-7.27.46-10.9.64-1.91.1-3.93,0-5.88,1.43a27.49,27.49,0,0,1-6.9,3.65,9.76,9.76,0,0,0-6.74,8.72c-.13,2.11-1,2.6-2.44,3.22-1.75.73-3.7,1.15-5.37,3,4.84.12,9.25,0,13.64.08a63,63,0,0,0,13.54-1.51,10.1,10.1,0,0,1,6,.53,1.66,1.66,0,0,1,1.08,2.1c-.35.91-1.18.33-1.82.28a15.11,15.11,0,0,0-2.84-.14c-6.11.76-12.16,2.26-18.4,1.29-1.6-.24-1.85.44-1.28,2s2.16,2.6,2.91,4.11c1.57,3.14,4.27,4.29,7.59,4.9,4.39.8,8.57-.8,12.86-.58a1.38,1.38,0,0,0,1.61-1.3c.26-1.44.59-2.87.73-4.32q1.35-14,2.63-28"/><path d="M193.84.89c-.39,1.33-1.89,1.87-1.09,2.87.65.81,1.76.31,2.65,0a2.35,2.35,0,0,1,2.23,0,1,1,0,0,1,.47,1.12c-.29,1-1.12.85-1.9.94-4,.44-8.12.12-12,1.6A10.64,10.64,0,0,0,178,16.32,11.13,11.13,0,0,1,177.2,19c-.4,1.41.61,2.58,1.94,2.11,3.74-1.33,7.54-.34,11.31-.44,3-.07,6.07.42,9-.42a1.22,1.22,0,0,1,1.67.76c.23.75-.5,1-1.09,1.16-2.88.84-5.85.27-8.74.34-6.88.17-13.74.08-20.49,1.62-.76.18-1.14.1-1.43-.55-.37-.84.35-1,.82-1.34,1-.73,2.24-.3,3.22-.76.79-.36,2.3-.48,1.87-2s-1.57-1.15-2.58-.8A26.92,26.92,0,0,0,162.15,25c-.38.39-.8.74-.63,1.31.23.76.92.7,1.52.65,2.55-.23,5.1-.5,7.65-.75a3.4,3.4,0,0,1,3.13.82,1.42,1.42,0,0,1,.46,1.41c-.23.69-.79.44-1.3.37a16.22,16.22,0,0,0-6.69.29c-2.82.82-5-.58-6.78-2.29-1.56-1.49-.35-3.07.9-4.17,2.35-2.06,5.31-3.07,8.15-4.25,2.6-1.08,5.21-1.78,5.67-5.49.14-1.13,2.22-2.64,3.43-4,4.26-4.63,9.86-6.69,16.18-8.06"/><path d="M250.35,378.37a1.81,1.81,0,0,1-.79-1.92c-.09-5.86,1.42-11.48,2.42-17.18,1-5.93,1.14-11.82-.88-17.6-.08-.24-.14-.5-.21-.75-.28-1-1.81-1.53-1.2-2.92,1.45.82,1.43-1.71,2.56-1.2,1.59.7,3.79.95,4.07,3.15.66,5,2.71,9.81,1.51,15-.89,3.81-1.33,7.72-2.69,11.42-1,2.7-1.72,5.49-2.72,8.18a32.21,32.21,0,0,1-2.07,3.84"/><path d="M241.81,377.47c-1.72-1.18-2.7-1.18-2.65.53.06,2.06-2.27,3-1.74,5.12-1.38-.14-1.18-.94-1.07-1.41a91.55,91.55,0,0,0,1.27-10.16,6.07,6.07,0,0,0-.23-2,11.68,11.68,0,0,1-.17-6.46c.72-2.34-1-4.73-1.7-7.06-1.1-3.78-2.39-7.58-5.11-10.64-.91-1-.34-1.81.51-2.64,1.21-1.18,2.48-1.31,3.69-.28,2.76,2.32,4.1,5.5,4.94,8.9a51.13,51.13,0,0,1,.63,21.68c-.24,1.28-.13,1.41,1.63,4.44"/><path d="M34.53,406.6c-2.39-.17-3.07-2-3.74-3-1.21-1.91-2.46-4-2.58-6.41-.29-5.5-.41-11,.8-16.44a9.05,9.05,0,0,0,.31-3.07c-.3-2.68,1.55-4.49,2.84-6.47,1-1.54.94-3.5,2.3-4.87A3.24,3.24,0,0,1,36.83,365c.69,0,1.43-.13,1.9.55.62.88-.32,1.15-.69,1.65-3.57,4.81-4.4,10.61-5.66,16.21a100.42,100.42,0,0,0-1.38,10c-.58,4.68,1.23,8.79,3.53,13.24"/><path d="M47,398.56c-3.24-.42-3.4-3.23-3.81-5.17-.37-1.74-1.11-3.88,0-5.8.36-.62-.17-1.11-.39-1.67-.6-1.53-1-3.12,0-4.69a3.57,3.57,0,0,0,.33-2.49c-.36-2.9-.23-5.75,1.45-8.29.89-1.36,0-3.34,1.71-4.46,1-.65,1.8-1.44,2.95-.58a2.28,2.28,0,0,1,.45,3.24c-3.8,6.68-4,14.13-4.67,21.48a13.21,13.21,0,0,0,2,8.43"/><path d="M219.16,457.58c.39-.32,1-1,1.15-.91,2.38,1.12,4.6-.73,7-.24s5.2-.66,7.74.08c1.9.55,4.67-.69,5.54,2.36.13.46.45.36.8.18.69-.36,1.5-.38,1.78.39a3,3,0,0,1-.43,2.71,1.29,1.29,0,0,1-1.86.28c-2-1.25-5.19-.25-6.6-4,.36,3-1.17,3.25-2.49,2.76-2.27-.83-4.69-.19-6.91-1-.46-.17-.74.35-1.1.53-3.28,1.63-4.35,1.05-4.87-2.59l.21-.52"/><path d="M4.5,444.57c6.61-1.16,13.37.46,20-.45,3.1-.42,6.07.7,9.08-.05.8-.2.91.48.92.87,0,.63-.41,1.32-1.08,1.19-.85-.15-1.7-.11-2.54-.2-5.39-.55-10.68.94-16.06.78-4.51-.14-9,.06-13.54.18-.57,0-1.06.08-1.23-.54A1,1,0,0,1,1,445.06c1.16-.08,2.26-.82,3.52-.49"/><path d="M48.77,461.14c1.23.73,1.13,1.5-.11,2-.78.31-1.65.38-2.23,1.11.37.49.83.33,1.19.22.84-.28,1.62-.43,1.64.78,0,.95-.48,2-1.5,1.62-2.42-.88-4.68-.16-7,.18a1.62,1.62,0,0,1-2-1.86c.31-1.77,2.12-1.87,3.39-1.8,1.12.06,2.5,1.49,1.63-1.13-.09-.28.14-1,.38-.8,1.63,1.09,2.72-1.23,4.23-.59.11.09.23.19.35.27"/><path d="M71.43,468.33l-10.05-.66c-1.14-.07-1.83-.53-1.54-1.8s1.18-.85,2-.62c3.45.95,7,.28,10.53.94.65.12,1.79-.63,1.69.69,0,.67-.45,2.05-1.88,1.14-.12-.08-.45.17-.77.31"/><path d="M158.61,193.5c-.85,2.42-2.16,3.35-4.72,3.22-3.77-.2-7.64-.87-11.34.64a.57.57,0,0,1-.26,0,23.78,23.78,0,0,0-7.65,1.2c-.39.16-.92.47-1.18.33-2.07-1.12-3.6-.43-5,1.22-.89,1.08-1.71,0-2.56-.16-1.06-.19-.62-1.07-.67-1.67-.09-1,.68-1.1,1.43-1.45,4.67-2.23,9.81-2,14.71-3a60.29,60.29,0,0,0,6.09-1.54c1.65-.53,6.92.36,8,1.7.5.61.57.64,1,0a1.75,1.75,0,0,1,2.09-.51"/><path d="M142.54,114.87c-1.27-2.94-1.74-5.84-.73-8.66,1.2-3.3,2.76-6.5,5.69-8.7,1.71-1.29,4.68-.5,6.14,2.07a16.4,16.4,0,0,1,2,8.9c-.23,6.73-5.75,7.44-10.24,8.91a14.7,14.7,0,0,1-13.69-2.29c-1.21-.89-2.11-.71-2.89.67-1.11,2-3,3-5,3.73-.57.22-1.13.62-1.62,0s-.05-1.32.48-1.78c2.09-1.8,4.11-3.58,5.13-6.33.81-2.19.9-4-1.09-5.52a4.61,4.61,0,0,1-.9-.92c-.51-.73,0-1.33.37-1.89a1,1,0,0,1,1.57,0c1.72,1.94,4.24,3.39,4,6.57-.15,2.17,1.77,2.81,3.18,3.69,2.28,1.43,4.74,2.35,7.62,1.56m5.89-2.19c1.63,0,2.25-1,2.94-2,2.1-3,1.09-6.11.64-9.24-.12-.79-.15-1.57-1.07-1.87s-1.41.3-2,.79c-3.49,2.76-4,6.81-4.63,10.77a4.42,4.42,0,0,0,.31,2,1.14,1.14,0,0,0,1.15.87c.67,0,.74-.58.83-1.11.35-2,.68-4.07,1.1-6.09a1.62,1.62,0,0,1,2.32-1.32c1.28.52.85,1.68.22,2.36-1.26,1.37-1.3,3.06-1.78,4.79"/></g></g></svg>