<svg xmlns="http://www.w3.org/2000/svg" viewBox="0 0 234.51 75.57"><g id="레이어_2" data-name="레이어 2"><g id="레이어_1-2" data-name="레이어 1"><path d="M226.48,38c0,8.14-3.74,12.32-13.08,12.32h-6.17V25.74h6.49c8.8,0,12.76,4.18,12.76,12.21m8-2.64v-13c0-8-1.54-12.43-6-16.61-3.52-3.3-8.47-4.62-14.3-4.62h-15V74.47h7.92V58h6.49c9.24,0,12.65-2.42,15.29-4.95,3.19-3,5.61-5.94,5.61-17.71m-41.35,9V1.1H185v33c0,8.36-1,10.23-3.3,12.65a9.75,9.75,0,0,1-7.26,3,10,10,0,0,1-7-3c-3.08-3.3-3.63-5.28-3.63-12.43V1.1h-8V50.71c0,8.58.11,14,5.83,19.47a18.35,18.35,0,0,0,12.65,5.39c4.95,0,9-1.1,13.64-5.5,5-4.73,5.28-8.58,5.28-25.74M131.34,74.47V50.27H120.23c-8.36,0-14.3-4.84-14.3-12.32s5.28-12.65,14.52-12.65h10.89V1.1c-8,.33-11.88,1.43-16.72,5.72-5.83,5.17-7.37,11-8.36,16.94h-.33V1.1h-8V74.47h8V52h.33c.77,7.48,3.63,13.31,8,16.83,5.28,4.18,8.36,5.61,17,5.61m-39.6-20V42.13H84.37a11.48,11.48,0,0,1-11.11,7.7A12.07,12.07,0,0,1,60.94,37.62a12.24,12.24,0,0,1,12.54-12.1,11.58,11.58,0,0,1,10.89,7.26h7.37V21C91.74,10.23,89.43,8.69,85.8,5A18.22,18.22,0,0,0,73.26,0,19.4,19.4,0,0,0,59.62,5.61c-4.18,4.18-5.17,6.49-5.17,15.84V53.68c0,9.35,1.43,12.76,5.61,16.61a20.14,20.14,0,0,0,13,5.28A18.68,18.68,0,0,0,86.57,70c4.07-4,5.17-9.13,5.17-15.51M48.29,1.1h-8V74.47h8ZM27.28,38c0,8.14-3.74,12.32-13.09,12.32H8V25.74h6.49c8.8,0,12.76,4.18,12.76,12.21m8-2.64v-13c0-8-1.54-12.43-6.05-16.61C25.74,2.42,20.79,1.1,15,1.1H0V74.47H7.92V58h6.49C23.65,58,27.06,55.55,29.7,53c3.19-3,5.61-5.94,5.61-17.71"/></g></g></svg>