<svg xmlns="http://www.w3.org/2000/svg" viewBox="0 0 591.98 156.04"><defs><style>.cls-1{fill:#000001;stroke:#1c1c1b;stroke-miterlimit:10;}</style></defs><g id="레이어_2" data-name="레이어 2"><g id="Layer_1" data-name="Layer 1"><path class="cls-1" d="M39.31,53.18l-.21.73c3.4,0,4.92.65,4.92,2.46a13.59,13.59,0,0,1-1.52,4.71l-16.86,37L25,60.43c-.08-5,.43-6.52,5.86-6.52l.21-.73H18l-.21.73c3,0,3.4.5,3.47,6.52l.15,10.23-14,27.7L6.68,60c-.08-5.22.43-6.09,5.28-6.09l.22-.73H.89l-.22.73c1.88,0,2.1.65,2.24,7.17l.73,41.84H6.17l15.27-30,.51,30h2.53L44,60.21c2.46-5.36,3.25-6.3,5.71-6.3l.22-.73ZM65.87,72.32c0-3.7-2.89-5.07-5.5-5.07-9.26,0-19,17.55-19,27.84,0,6,3.4,8.41,7.16,8.41,5.79,0,8.69-5.73,10.93-10.73l-.51-.14C56.32,97.2,53.35,100,50,100c-2.67,0-5.28-1.74-5.28-7.11a26.58,26.58,0,0,1,1.16-7.17c12.23-.51,20-7.26,20-13.35m-6.15-4.27c1.74,0,2.6.94,2.6,3.11,0,6-6.36,12.84-16.13,13.71,2.6-8.27,8.39-16.82,13.53-16.82"/><path class="cls-1" d="M39.31,53.18l-.21.73c3.4,0,4.92.65,4.92,2.46a13.59,13.59,0,0,1-1.52,4.71l-16.86,37L25,60.43c-.08-5,.43-6.52,5.86-6.52l.21-.73H18l-.21.73c3,0,3.4.5,3.47,6.52l.15,10.23-14,27.7L6.68,60c-.08-5.22.43-6.09,5.28-6.09l.22-.73H.89l-.22.73c1.88,0,2.1.65,2.24,7.17l.73,41.84H6.17l15.27-30,.51,30h2.53L44,60.21c2.46-5.36,3.25-6.3,5.71-6.3l.22-.73ZM65.87,72.32c0-3.7-2.89-5.07-5.5-5.07-9.26,0-19,17.55-19,27.84,0,6,3.4,8.41,7.16,8.41,5.79,0,8.69-5.73,10.93-10.73l-.51-.14C56.32,97.2,53.35,100,50,100c-2.67,0-5.28-1.74-5.28-7.11a26.58,26.58,0,0,1,1.16-7.17c12.23-.51,20-7.26,20-13.35m-6.15-4.27c1.74,0,2.6.94,2.6,3.11,0,6-6.36,12.84-16.13,13.71,2.6-8.27,8.39-16.82,13.53-16.82"/><path class="cls-1" d="M113.61,52.89C122.39,52.89,127,47.6,127,41c0-5.36-2-8.76-5.47-12.67l-4.25-4.84c-3.24-3.69-5.47-6.66-5.47-11.29s2.88-9.77,9.86-9.77c6.56,0,11.6,3.55,9.36,15.63h.58l4.54-15.7h-.43c-.72,1.37-1.66,2.31-2.6,2.31-1.51,0-4.39-3-11.45-3-8.78,0-13.39,5.28-13.39,11.94,0,5.35,2.16,8.61,5.62,12.52L118.14,31c3.24,3.69,5.33,6.8,5.33,11.43s-2.88,9.77-9.86,9.77c-7.56,0-11.45-5-9.15-17.51h-.57l-5,17.58h.44c.93-1.66,1.65-2.31,2.59-2.31,1.58,0,4.46,3,11.74,3M147.89,19.6h7.85l.21-.72h-7.7l3.24-7.45-4.32.43-2.31,7h-6.62l-.22.72h6.7l-9.65,24.1a12,12,0,0,0-1.16,4.63c0,3,1.81,4.19,4,4.19,4.39,0,7.2-5,10.15-10.71l-.72-.21c-3.46,5.71-5.18,7.74-7.34,7.74-1.37,0-2-.65-2-1.88a14.27,14.27,0,0,1,.94-3.69ZM176,49.34c-1.37,0-1.8-1.16-.65-4.56L185,16.13H181.3l-.94,2.53a5.7,5.7,0,0,0-3.53-1.08c-8.56,0-22.89,19.31-22.89,29,0,4.34,2.16,6.3,5.32,6.3,5.84,0,11.17-9.41,18.44-23.3h.72c-5.19,11.14-7.71,16.64-7.71,19.17,0,2.9,1.52,3.76,3.24,3.76,3.68,0,6.41-4.92,8.57-9.91l-.64-.22c-2.52,5-4.25,7-5.91,7m-15.34-.43c-1.37,0-2.81-.58-2.81-3.26,0-10.78,12.68-26.77,16.71-27a7.74,7.74,0,0,1,5.83,4.41c-9.86,19.25-15.26,25.84-19.73,25.84m34.06,4c5.76,0,8.65-5.72,10.88-10.71l-.51-.15c-2.59,4.56-5.54,7.31-8.85,7.31-2.67,0-5.26-1.74-5.26-6.87,0-8.54,7.56-24.75,14.47-24.89.72,2,.51,3.76.94,5.35s1.3,2.53,2.81,2.53c2,0,3.17-1.45,3.17-3.47,0-3.11-2.45-5.28-6.05-5.28-8.79,0-18.73,17.51-18.73,27.56,0,6.23,3.39,8.62,7.13,8.62m42.92-8.69A2.54,2.54,0,0,0,235.09,46c-.64,1.52-.64,3.33-1.72,5.86-2.31-.94-6.41-8.82-7.93-17.8,9.51-.79,17-4.92,17-11.5,0-4.2-3.1-5.86-6.12-5.86-6.48,0-11.09,7.67-18.51,24.16h-.5c4.46-10.92,7-17.58,8.78-23L231.85.5h-.21l-9.8,2.1L221.7,3l2.52-.14C226.81,2.67,227,4.19,226,7.3L211,51.87h3.53a173.35,173.35,0,0,1,7.13-17.58c2.66,11.22,6.69,18.09,12.24,18.09,3.1,0,6.19-2,6.19-5.35,0-1.52-.65-2.83-2.45-2.83M234.8,19.1a3.87,3.87,0,0,1,4,4.19c0,5.28-6.63,10.13-16.93,10.57C226.52,24.52,231,19.1,234.8,19.1m31.33,33.79c5.47,0,9.94-7.1,17-23.3h.65c-5.11,14.32-6,17.15-6,19.46,0,2.82,1.65,3.47,3.31,3.47,3.53,0,6.26-4.92,8.5-10.2L289,42.1c-2.59,5.29-4.32,7.24-6,7.24-.93,0-1.44-.51-1.44-1.66a15.71,15.71,0,0,1,.86-4.13l7.71-26h-3.39c-5.9,16.93-13,32.12-19.51,32.12-1.94,0-2.59-1.3-2.59-2.89a11.38,11.38,0,0,1,1.37-5l6.84-15.12c1-2.24,1.94-4.48,1.94-6.44,0-3-2.16-3.54-3.67-3.54-3.82,0-6.27,4.77-8.43,9.91l.8.22c2.66-5.5,4-6.95,5.76-6.95,1,0,1.65.58,1.65,1.81A11.59,11.59,0,0,1,269.59,26l-6.85,15.12c-1.36,2.9-1.94,4.85-1.94,6.52,0,3.61,2.45,5.21,5.33,5.21m32.62-1a10.87,10.87,0,0,0,2.74.36c9.65,0,19.51-14.18,19.51-26.41,0-5.86-2.73-9.11-6.41-9.11A7.85,7.85,0,0,0,308.76,20l2.81-9-3.67.36-3.31,10.42-7.21,1.59-1.08,2.89,8.14-4L292.49,59.9c-1.59,5.07-2.88,6.15-6.48,6.15l-.22.73h15.63l.28-.73c-5.76,0-7.12-1.08-5.54-6.07Zm13.61-32.41c2.74,0,4.54,2.39,4.54,7.23,0,10.42-6.55,24.82-15.48,24.82a3.49,3.49,0,0,1-2.31-.79l9.51-30.32a10.11,10.11,0,0,1,3.74-.94"/><path class="cls-1" d="M113.61,52.89C122.39,52.89,127,47.6,127,41c0-5.36-2-8.76-5.47-12.67l-4.25-4.84c-3.24-3.69-5.47-6.66-5.47-11.29s2.88-9.77,9.86-9.77c6.56,0,11.6,3.55,9.36,15.63h.58l4.54-15.7h-.43c-.72,1.37-1.66,2.31-2.6,2.31-1.51,0-4.39-3-11.45-3-8.78,0-13.39,5.28-13.39,11.94,0,5.35,2.16,8.61,5.62,12.52L118.14,31c3.24,3.69,5.33,6.8,5.33,11.43s-2.88,9.77-9.86,9.77c-7.56,0-11.45-5-9.15-17.51h-.57l-5,17.58h.44c.93-1.66,1.65-2.31,2.59-2.31,1.58,0,4.46,3,11.74,3M147.89,19.6h7.85l.21-.72h-7.7l3.24-7.45-4.32.43-2.31,7h-6.62l-.22.72h6.7l-9.65,24.1a12,12,0,0,0-1.16,4.63c0,3,1.81,4.19,4,4.19,4.39,0,7.2-5,10.15-10.71l-.72-.21c-3.46,5.71-5.18,7.74-7.34,7.74-1.37,0-2-.65-2-1.88a14.27,14.27,0,0,1,.94-3.69ZM176,49.34c-1.37,0-1.8-1.16-.65-4.56L185,16.13H181.3l-.94,2.53a5.7,5.7,0,0,0-3.53-1.08c-8.56,0-22.89,19.31-22.89,29,0,4.34,2.16,6.3,5.32,6.3,5.84,0,11.17-9.41,18.44-23.3h.72c-5.19,11.14-7.71,16.64-7.71,19.17,0,2.9,1.52,3.76,3.24,3.76,3.68,0,6.41-4.92,8.57-9.91l-.64-.22c-2.52,5-4.25,7-5.91,7m-15.34-.43c-1.37,0-2.81-.58-2.81-3.26,0-10.78,12.68-26.77,16.71-27a7.74,7.74,0,0,1,5.83,4.41c-9.86,19.25-15.26,25.84-19.73,25.84m34.06,4c5.76,0,8.65-5.72,10.88-10.71l-.51-.15c-2.59,4.56-5.54,7.31-8.85,7.31-2.67,0-5.26-1.74-5.26-6.87,0-8.54,7.56-24.75,14.47-24.89.72,2,.51,3.76.94,5.35s1.3,2.53,2.81,2.53c2,0,3.17-1.45,3.17-3.47,0-3.11-2.45-5.28-6.05-5.28-8.79,0-18.73,17.51-18.73,27.56,0,6.23,3.39,8.62,7.13,8.62m42.92-8.69A2.54,2.54,0,0,0,235.09,46c-.64,1.52-.64,3.33-1.72,5.86-2.31-.94-6.41-8.82-7.93-17.8,9.51-.79,17-4.92,17-11.5,0-4.2-3.1-5.86-6.12-5.86-6.48,0-11.09,7.67-18.51,24.16h-.5c4.46-10.92,7-17.58,8.78-23L231.85.5h-.21l-9.8,2.1L221.7,3l2.52-.14C226.81,2.67,227,4.19,226,7.3L211,51.87h3.53a173.35,173.35,0,0,1,7.13-17.58c2.66,11.22,6.69,18.09,12.24,18.09,3.1,0,6.19-2,6.19-5.35,0-1.52-.65-2.83-2.45-2.83M234.8,19.1a3.87,3.87,0,0,1,4,4.19c0,5.28-6.63,10.13-16.93,10.57C226.52,24.52,231,19.1,234.8,19.1m31.33,33.79c5.47,0,9.94-7.1,17-23.3h.65c-5.11,14.32-6,17.15-6,19.46,0,2.82,1.65,3.47,3.31,3.47,3.53,0,6.26-4.92,8.5-10.2L289,42.1c-2.59,5.29-4.32,7.24-6,7.24-.93,0-1.44-.51-1.44-1.66a15.71,15.71,0,0,1,.86-4.13l7.71-26h-3.39c-5.9,16.93-13,32.12-19.51,32.12-1.94,0-2.59-1.3-2.59-2.89a11.38,11.38,0,0,1,1.37-5l6.84-15.12c1-2.24,1.94-4.48,1.94-6.44,0-3-2.16-3.54-3.67-3.54-3.82,0-6.27,4.77-8.43,9.91l.8.22c2.66-5.5,4-6.95,5.76-6.95,1,0,1.65.58,1.65,1.81A11.59,11.59,0,0,1,269.59,26l-6.85,15.12c-1.36,2.9-1.94,4.85-1.94,6.52,0,3.61,2.45,5.21,5.33,5.21m32.62-1a10.87,10.87,0,0,0,2.74.36c9.65,0,19.51-14.18,19.51-26.41,0-5.86-2.73-9.11-6.41-9.11A7.85,7.85,0,0,0,308.76,20l2.81-9-3.67.36-3.31,10.42-7.21,1.59-1.08,2.89,8.14-4L292.49,59.9c-1.59,5.07-2.88,6.15-6.48,6.15l-.22.73h15.63l.28-.73c-5.76,0-7.12-1.08-5.54-6.07Zm13.61-32.41c2.74,0,4.54,2.39,4.54,7.23,0,10.42-6.55,24.82-15.48,24.82a3.49,3.49,0,0,1-2.31-.79l9.51-30.32a10.11,10.11,0,0,1,3.74-.94"/><path class="cls-1" d="M493,105.23l-22.78,45-.08-45h-8.79l-.22.73c4.55,0,5,1.3,3.54,5.36L451.79,146.4c-2.37,6.6-4.25,7.4-7.42,7.4l-.22.72h13.63l.21-.72c-6.05,0-7.28-1.53-5.11-7.4L466,110.23l.43,44.44H469l23.29-45.74-5.7,39.57c-.65,4.5-2.74,5.3-7.42,5.3l-.22.72H494l.21-.72c-4.39,0-4.39-1.45-3.89-4.93L495.48,111c.58-4.42,1.73-5,5.33-5l.22-.73Zm25.95,6.16a3.41,3.41,0,1,0-3.39-3.4,3.31,3.31,0,0,0,3.39,3.4M506.8,155.17c3.75,0,6.2-4.42,8.5-9.93l-.72-.21c-2.31,5.07-4.25,6.95-6.27,6.95s-1.3-2.75-.22-5.21l7.43-17.26c.79-1.88,1.87-4.49,1.87-6.52,0-2.75-1.73-3.7-3.38-3.7-3.75,0-6.2,4.42-8.51,9.93l.72.22c2.31-5.07,4.25-7,6.27-7s1.23,2.76.15,5.22L505.21,145a18.86,18.86,0,0,0-1.8,6.53c0,2.75,1.73,3.69,3.39,3.69m35,0c3.89,0,6.27-4.78,8.43-10.14l-.72-.22c-2.74,5.72-4.11,7.17-5.84,7.17-1.08,0-1.65-.58-1.65-1.74a10,10,0,0,1,.93-3.62L549.76,131a18.08,18.08,0,0,0,1.73-6.59c0-3.41-2.09-5.08-5.26-5.08-5.19,0-10.24,7.25-17.3,24.21h-.58c4-11,6.13-18,6.13-20.73a3.17,3.17,0,0,0-3.32-3.48c-3.75,0-5.91,4.42-8.07,9.93l.72.15c2.09-5,3.89-6.89,5.55-6.89a1.53,1.53,0,0,1,1.73,1.74,13.42,13.42,0,0,1-.79,3.63l-8,26.67h3.45c5.92-17,12.69-32,19.47-32,1.95,0,2.59,1.23,2.59,2.83a14.28,14.28,0,0,1-1.29,5.07l-6.13,13.92c-.94,2.1-2.24,5.08-2.24,7.18a3.41,3.41,0,0,0,3.68,3.69M577,152c-1.37,0-1.8-1.16-.65-4.56l14.92-44.36h-.14l-11.1,2-.15.36,2.81-.15c3-.14,3.9.8,2.67,4.5l-3.82,11.6a5.92,5.92,0,0,0-3.68-1.24c-8.57,0-22.92,19.36-22.92,29.07,0,4.35,2.16,6.31,5.33,6.31,5.84,0,11.18-9.43,18.46-23.34h.72c-5.19,11.16-7.71,16.67-7.71,19.2,0,2.9,1.51,3.77,3.24,3.77,3.68,0,6.42-4.93,8.65-9.93L583,145c-2.59,5-4.32,6.95-6,6.95m-15.36-.43c-1.37,0-2.81-.58-2.81-3.26,0-10.8,12.69-26.82,16.73-27a7.76,7.76,0,0,1,5.84,4.42c-9.88,19.28-15.29,25.88-19.76,25.88"/><path class="cls-1" d="M493,105.23l-22.78,45-.08-45h-8.79l-.22.73c4.55,0,5,1.3,3.54,5.36L451.79,146.4c-2.37,6.6-4.25,7.4-7.42,7.4l-.22.72h13.63l.21-.72c-6.05,0-7.28-1.53-5.11-7.4L466,110.23l.43,44.44H469l23.29-45.74-5.7,39.57c-.65,4.5-2.74,5.3-7.42,5.3l-.22.72H494l.21-.72c-4.39,0-4.39-1.45-3.89-4.93L495.48,111c.58-4.42,1.73-5,5.33-5l.22-.73Zm25.95,6.16a3.41,3.41,0,1,0-3.39-3.4,3.31,3.31,0,0,0,3.39,3.4M506.8,155.17c3.75,0,6.2-4.42,8.5-9.93l-.72-.21c-2.31,5.07-4.25,6.95-6.27,6.95s-1.3-2.75-.22-5.21l7.43-17.26c.79-1.88,1.87-4.49,1.87-6.52,0-2.75-1.73-3.7-3.38-3.7-3.75,0-6.2,4.42-8.51,9.93l.72.22c2.31-5.07,4.25-7,6.27-7s1.23,2.76.15,5.22L505.21,145a18.86,18.86,0,0,0-1.8,6.53c0,2.75,1.73,3.69,3.39,3.69m35,0c3.89,0,6.27-4.78,8.43-10.14l-.72-.22c-2.74,5.72-4.11,7.17-5.84,7.17-1.08,0-1.65-.58-1.65-1.74a10,10,0,0,1,.93-3.62L549.76,131a18.08,18.08,0,0,0,1.73-6.59c0-3.41-2.09-5.08-5.26-5.08-5.19,0-10.24,7.25-17.3,24.21h-.58c4-11,6.13-18,6.13-20.73a3.17,3.17,0,0,0-3.32-3.48c-3.75,0-5.91,4.42-8.07,9.93l.72.15c2.09-5,3.89-6.89,5.55-6.89a1.53,1.53,0,0,1,1.73,1.74,13.42,13.42,0,0,1-.79,3.63l-8,26.67h3.45c5.92-17,12.69-32,19.47-32,1.95,0,2.59,1.23,2.59,2.83a14.28,14.28,0,0,1-1.29,5.07l-6.13,13.92c-.94,2.1-2.24,5.08-2.24,7.18a3.41,3.41,0,0,0,3.68,3.69M577,152c-1.37,0-1.8-1.16-.65-4.56l14.92-44.36h-.14l-11.1,2-.15.36,2.81-.15c3-.14,3.9.8,2.67,4.5l-3.82,11.6a5.92,5.92,0,0,0-3.68-1.24c-8.57,0-22.92,19.36-22.92,29.07,0,4.35,2.16,6.31,5.33,6.31,5.84,0,11.18-9.43,18.46-23.34h.72c-5.19,11.16-7.71,16.67-7.71,19.2,0,2.9,1.51,3.77,3.24,3.77,3.68,0,6.42-4.93,8.65-9.93L583,145c-2.59,5-4.32,6.95-6,6.95m-15.36-.43c-1.37,0-2.81-.58-2.81-3.26,0-10.8,12.69-26.82,16.73-27a7.76,7.76,0,0,1,5.84,4.42c-9.88,19.28-15.29,25.88-19.76,25.88"/><path class="cls-1" d="M318.3,155.54a19.75,19.75,0,0,0,12-3.77l3.46-12.47c1.66-5.87,2.52-7.54,5.62-7.54l.22-.72H322.48l-.22.72c5.77,0,8.37.44,8.37,3.77a15.46,15.46,0,0,1-.73,3.84l-1.58,5.8c-1.52,6.74-4.4,9.64-10.39,9.64-5.48,0-11.1-4.57-11.1-17.61,0-14.86,6.27-32.26,19.9-32.26,7.14,0,10,3.84,10,10.87a38.86,38.86,0,0,1-.36,4.79H337l4.47-15.73H341c-.65,1.38-1.44,2.32-2.52,2.32-1.66,0-5-3-11.76-3-14.71,0-24.8,15.51-24.8,32.91,0,12.25,7.93,18.41,16.37,18.41m32.3,0c4.4,0,8.22-2.47,11.68-7.76s6-12.47,6-18.63c0-6.52-2.81-9.86-7.93-9.86-4.4,0-8.22,2.47-11.68,7.76s-6,12.47-6,18.63c0,6.52,2.81,9.86,7.93,9.86m-.15-.73c-2.23,0-4.1-1.67-4.1-5.94S348.29,137.42,351,131c2.52-5.95,5.63-11,9.45-11,2.23,0,4.11,1.67,4.11,5.94s-1.95,11.46-4.69,17.83c-2.52,6-5.62,11-9.45,11m30.07.73c4.4,0,8.22-2.47,11.68-7.76s6-12.47,6-18.63c0-6.52-2.81-9.86-7.93-9.86-4.4,0-8.22,2.47-11.68,7.76s-6,12.47-6,18.63c0,6.52,2.81,9.86,7.93,9.86m-.14-.73c-2.24,0-4.11-1.67-4.11-5.94s2-11.45,4.68-17.83c2.53-5.95,5.63-11,9.45-11,2.24,0,4.11,1.67,4.11,5.94s-1.95,11.46-4.69,17.83c-2.52,6-5.62,11-9.44,11m43-2.83c-1.37,0-1.8-1.15-.65-4.56l14.93-44.36h-.14l-11.11,2-.14.36,2.81-.15c3-.14,3.89.8,2.67,4.5l-3.82,11.6a5.92,5.92,0,0,0-3.68-1.24c-8.58,0-22.93,19.36-22.93,29.07,0,4.35,2.16,6.31,5.33,6.31,5.85,0,11.18-9.43,18.46-23.34h.73c-5.2,11.16-7.72,16.67-7.72,19.21,0,2.89,1.51,3.76,3.24,3.76,3.68,0,6.42-4.93,8.66-9.93l-.65-.21c-2.6,5-4.33,6.95-6,6.95M408,151.55c-1.37,0-2.81-.58-2.81-3.26,0-10.8,12.69-26.82,16.73-27a7.73,7.73,0,0,1,5.84,4.42C417.87,145,412.47,151.55,408,151.55"/><path class="cls-1" d="M318.3,155.54a19.75,19.75,0,0,0,12-3.77l3.46-12.47c1.66-5.87,2.52-7.54,5.62-7.54l.22-.72H322.48l-.22.72c5.77,0,8.37.44,8.37,3.77a15.46,15.46,0,0,1-.73,3.84l-1.58,5.8c-1.52,6.74-4.4,9.64-10.39,9.64-5.48,0-11.1-4.57-11.1-17.61,0-14.86,6.27-32.26,19.9-32.26,7.14,0,10,3.84,10,10.87a38.86,38.86,0,0,1-.36,4.79H337l4.47-15.73H341c-.65,1.38-1.44,2.32-2.52,2.32-1.66,0-5-3-11.76-3-14.71,0-24.8,15.51-24.8,32.91,0,12.25,7.93,18.41,16.37,18.41m32.3,0c4.4,0,8.22-2.47,11.68-7.76s6-12.47,6-18.63c0-6.52-2.81-9.86-7.93-9.86-4.4,0-8.22,2.47-11.68,7.76s-6,12.47-6,18.63c0,6.52,2.81,9.86,7.93,9.86m-.15-.73c-2.23,0-4.1-1.67-4.1-5.94S348.29,137.42,351,131c2.52-5.95,5.63-11,9.45-11,2.23,0,4.11,1.67,4.11,5.94s-1.95,11.46-4.69,17.83c-2.52,6-5.62,11-9.45,11m30.07.73c4.4,0,8.22-2.47,11.68-7.76s6-12.47,6-18.63c0-6.52-2.81-9.86-7.93-9.86-4.4,0-8.22,2.47-11.68,7.76s-6,12.47-6,18.63c0,6.52,2.81,9.86,7.93,9.86m-.14-.73c-2.24,0-4.11-1.67-4.11-5.94s2-11.45,4.68-17.83c2.53-5.95,5.63-11,9.45-11,2.24,0,4.11,1.67,4.11,5.94s-1.95,11.46-4.69,17.83c-2.52,6-5.62,11-9.44,11m43-2.83c-1.37,0-1.8-1.15-.65-4.56l14.93-44.36h-.14l-11.11,2-.14.36,2.81-.15c3-.14,3.89.8,2.67,4.5l-3.82,11.6a5.92,5.92,0,0,0-3.68-1.24c-8.58,0-22.93,19.36-22.93,29.07,0,4.35,2.16,6.31,5.33,6.31,5.85,0,11.18-9.43,18.46-23.34h.73c-5.2,11.16-7.72,16.67-7.72,19.21,0,2.89,1.51,3.76,3.24,3.76,3.68,0,6.42-4.93,8.66-9.93l-.65-.21c-2.6,5-4.33,6.95-6,6.95M408,151.55c-1.37,0-2.81-.58-2.81-3.26,0-10.8,12.69-26.82,16.73-27a7.73,7.73,0,0,1,5.84,4.42C417.87,145,412.47,151.55,408,151.55"/></g></g></svg>