<svg xmlns="http://www.w3.org/2000/svg" viewBox="0 0 589.53 275.08"><defs><style>.cls-1{fill:#000001;stroke:#1c1c1b;stroke-miterlimit:10;}</style></defs><g id="레이어_2" data-name="레이어 2"><g id="Layer_1" data-name="Layer 1"><path class="cls-1" d="M39.31,53.18l-.21.73c3.4,0,4.92.65,4.92,2.46a13.59,13.59,0,0,1-1.52,4.71l-16.86,37L25,60.43c-.08-5,.43-6.52,5.86-6.52l.21-.73H18l-.21.73c3,0,3.4.5,3.47,6.52l.15,10.23-14,27.7L6.68,60c-.08-5.22.43-6.09,5.28-6.09l.22-.73H.89l-.22.73c1.88,0,2.1.65,2.24,7.17l.73,41.84H6.17l15.27-30,.51,30h2.53L44,60.21c2.46-5.36,3.25-6.3,5.71-6.3l.22-.73ZM65.87,72.32c0-3.7-2.89-5.07-5.5-5.07-9.26,0-19,17.55-19,27.84,0,6,3.4,8.41,7.16,8.41,5.79,0,8.69-5.73,10.93-10.73l-.51-.14C56.32,97.2,53.35,100,50,100c-2.68,0-5.28-1.74-5.28-7.11a26.58,26.58,0,0,1,1.16-7.17c12.23-.51,20-7.26,20-13.35m-6.15-4.27c1.74,0,2.6.94,2.6,3.11,0,6-6.36,12.84-16.13,13.71,2.6-8.27,8.39-16.82,13.53-16.82"/><path class="cls-1" d="M39.31,53.18l-.21.73c3.4,0,4.92.65,4.92,2.46a13.59,13.59,0,0,1-1.52,4.71l-16.86,37L25,60.43c-.08-5,.43-6.52,5.86-6.52l.21-.73H18l-.21.73c3,0,3.4.5,3.47,6.52l.15,10.23-14,27.7L6.68,60c-.08-5.22.43-6.09,5.28-6.09l.22-.73H.89l-.22.73c1.88,0,2.1.65,2.24,7.17l.73,41.84H6.17l15.27-30,.51,30h2.53L44,60.21c2.46-5.36,3.25-6.3,5.71-6.3l.22-.73ZM65.87,72.32c0-3.7-2.89-5.07-5.5-5.07-9.26,0-19,17.55-19,27.84,0,6,3.4,8.41,7.16,8.41,5.79,0,8.69-5.73,10.93-10.73l-.51-.14C56.32,97.2,53.35,100,50,100c-2.68,0-5.28-1.74-5.28-7.11a26.58,26.58,0,0,1,1.16-7.17c12.23-.51,20-7.26,20-13.35m-6.15-4.27c1.74,0,2.6.94,2.6,3.11,0,6-6.36,12.84-16.13,13.71,2.6-8.27,8.39-16.82,13.53-16.82"/><path class="cls-1" d="M157.88,1.15l-22.8,45-.07-45H126.2l-.21.73c4.54,0,5,1.3,3.53,5.36l-12.84,35.1c-2.38,6.6-4.26,7.39-7.44,7.39l-.21.73h13.64l.21-.73c-6.06,0-7.28-1.52-5.12-7.39L130.89,6.15l.44,44.45h2.52L157.16,4.85l-5.7,39.59c-.65,4.5-2.74,5.29-7.43,5.29l-.22.73h15.08l.22-.73c-4.4,0-4.4-1.45-3.9-4.93l5.2-37.92c.57-4.42,1.73-5,5.34-5l.22-.73Zm26,6.17a3.31,3.31,0,0,0,3.39-3.41,3.39,3.39,0,1,0-6.78,0,3.31,3.31,0,0,0,3.39,3.41M171.74,51.11c3.75,0,6.2-4.42,8.51-9.93l-.72-.22c-2.31,5.08-4.26,7-6.28,7S172,45.17,173,42.7l7.43-17.26c.79-1.88,1.87-4.49,1.87-6.52,0-2.76-1.73-3.7-3.39-3.7-3.75,0-6.2,4.42-8.51,9.93l.72.22c2.31-5.08,4.26-7,6.28-7s1.22,2.76.14,5.22l-7.43,17.26a18.75,18.75,0,0,0-1.8,6.52c0,2.76,1.73,3.7,3.39,3.7M216,15.22c-2.31,0-5.77,2.17-13.2,15.3l-1.59-8.41c-.8-4.43-1.66-6.89-4.48-6.89-3.46,0-5.84,5.29-7.5,9.79l.65.22c2-4.5,3.53-7.18,5.12-7.18s2.17,1.3,3,5.72l1.95,10.59c-6.71,11.24-9.67,14.14-10.54,14.29-.29-1.82.51-3.85.51-5.73,0-.73-.43-1.16-1.52-1.16-2,0-4.25,3.12-4.25,6.23a2.71,2.71,0,0,0,2.95,2.9c2.24,0,5.71-2.17,13.14-15.15l1.59,8.48c.79,4.43,1.66,6.89,4.47,6.89,3.46,0,5.84-5.29,7.5-9.79l-.65-.22c-2,4.5-3.53,7.18-5.12,7.18-1.44,0-2.16-1.3-3-5.72L203,31.9c6.79-11.31,9.82-14.29,10.68-14.43.29,1.81-.5,3.84-.5,5.73,0,.72.43,1.16,1.51,1.16,2,0,4.26-3.12,4.26-6.24a2.72,2.72,0,0,0-3-2.9"/><path class="cls-1" d="M157.88,1.15l-22.8,45-.07-45H126.2l-.21.73c4.54,0,5,1.3,3.53,5.36l-12.84,35.1c-2.38,6.6-4.26,7.39-7.44,7.39l-.21.73h13.64l.21-.73c-6.06,0-7.28-1.52-5.12-7.39L130.89,6.15l.44,44.45h2.52L157.16,4.85l-5.7,39.59c-.65,4.5-2.74,5.29-7.43,5.29l-.22.73h15.08l.22-.73c-4.4,0-4.4-1.45-3.9-4.93l5.2-37.92c.57-4.42,1.73-5,5.34-5l.22-.73Zm26,6.17a3.31,3.31,0,0,0,3.39-3.41,3.39,3.39,0,1,0-6.78,0,3.31,3.31,0,0,0,3.39,3.41M171.74,51.11c3.75,0,6.2-4.42,8.51-9.93l-.72-.22c-2.31,5.08-4.26,7-6.28,7S172,45.17,173,42.7l7.43-17.26c.79-1.88,1.87-4.49,1.87-6.52,0-2.76-1.73-3.7-3.39-3.7-3.75,0-6.2,4.42-8.51,9.93l.72.22c2.31-5.08,4.26-7,6.28-7s1.22,2.76.14,5.22l-7.43,17.26a18.75,18.75,0,0,0-1.8,6.52c0,2.76,1.73,3.7,3.39,3.7M216,15.22c-2.31,0-5.77,2.17-13.2,15.3l-1.59-8.41c-.8-4.43-1.66-6.89-4.48-6.89-3.46,0-5.84,5.29-7.5,9.79l.65.22c2-4.5,3.53-7.18,5.12-7.18s2.17,1.3,3,5.72l1.95,10.59c-6.71,11.24-9.67,14.14-10.54,14.29-.29-1.82.51-3.85.51-5.73,0-.73-.43-1.16-1.52-1.16-2,0-4.25,3.12-4.25,6.23a2.71,2.71,0,0,0,2.95,2.9c2.24,0,5.71-2.17,13.14-15.15l1.59,8.48c.79,4.43,1.66,6.89,4.47,6.89,3.46,0,5.84-5.29,7.5-9.79l-.65-.22c-2,4.5-3.53,7.18-5.12,7.18-1.44,0-2.16-1.3-3-5.72L203,31.9c6.79-11.31,9.82-14.29,10.68-14.43.29,1.81-.5,3.84-.5,5.73,0,.72.43,1.16,1.51,1.16,2,0,4.26-3.12,4.26-6.24a2.72,2.72,0,0,0-3-2.9"/><path class="cls-1" d="M309.16,173.47l-.21.72c2.81,0,4.61.15,4.61,2.4a17.67,17.67,0,0,1-.94,4.42l-10.3,36.24c-1.16,4.13-2.74,4.79-7,4.79l-.21.72h18.52l.22-.72c-5.55,0-7.57-.73-7.57-3.48a14.94,14.94,0,0,1,.72-3.7l4.76-17h6.49c4.4,0,7.21.43,7.21,4.49a15.8,15.8,0,0,1-.65,4h.72l4.83-17.54h-.58c-1.94,6.52-4.83,8.33-10.67,8.33H312l6.41-23h8.8c7.42,0,9.95,1.82,9.95,6.75a29,29,0,0,1-.58,5h.58l3.6-12.47Zm27.9,49.29h3.46c5.92-17.4,12.55-30.3,15.72-32.62.87,1.67.79,3.05,1.23,4.13a2.14,2.14,0,0,0,2,1.09,3.42,3.42,0,0,0,3.24-3.62c0-3.12-1.88-4.21-3.89-4.21s-3.54,1.31-5.48,4.06c-1.73,2.54-5.41,9.5-9.66,20.15h-.58c4-11.09,6.13-18.12,6.13-20.73a3.16,3.16,0,0,0-3.25-3.48c-3.82,0-6,4.42-8.14,9.93l.72.15c2.09-5,4-6.89,5.55-6.89,1.15,0,1.73.51,1.73,1.74a16.91,16.91,0,0,1-1,4.42Zm48.31-30.15c0-3.7-2.89-5.08-5.48-5.08-9.23,0-19,17.54-19,27.84,0,6,3.39,8.4,7.13,8.4,5.77,0,8.66-5.72,10.89-10.72l-.5-.15c-2.6,4.57-5.55,7.32-8.87,7.32-2.67,0-5.26-1.74-5.26-7.1a27.07,27.07,0,0,1,1.15-7.18c12.18-.5,19.9-7.25,19.9-13.33m-6.13-4.28c1.73,0,2.6.94,2.6,3.12,0,5.94-6.35,12.83-16.08,13.7,2.59-8.27,8.36-16.82,13.48-16.82m12.61,35.44c4.26,0,9.38-3.47,9.38-8.91,0-2.25-.72-4.79-2.53-9.42l-1.44-3.34c-1.58-3.91-2.3-6.52-2.3-8.26a5.29,5.29,0,0,1,5.33-5.58c1.15,1.59,1.44,3.26,2.16,4.71.51,1.08,1,2.1,2.74,2.1s2.74-1.38,2.74-3.12c0-2.9-2.67-4.42-6.77-4.42-4.26,0-9.38,3.48-9.38,8.92,0,2.24.72,4.78,2.53,9.42l1.44,3.33c1.58,3.92,2.31,6.53,2.31,8.27a5.3,5.3,0,0,1-5.34,5.58c-1.15-1.59-1.44-3.26-2.16-4.71-.51-1.09-1-2.1-2.74-2.1s-2.74,1.37-2.74,3.11c0,2.9,2.67,4.42,6.77,4.42m30.14,0c7.79,0,16.36-18.48,16.36-27.83,0-5.73-2.45-8.41-6.63-8.41-5.91,0-10.45,7.61-17.88,24.21h-.57c4.47-10.94,7.06-17.61,8.29-21.45l6.34-19h-.14l-9.88,2.11-.14.36,2.52-.15c2.31-.14,2.88,1,1.73,4.5l-15,44.65h3.54c6.34-17.61,14-32,20-32,2.59,0,4,2.68,4,6.67,0,9.28-6.84,23.85-11.6,25.73-.87-2.39,1.22-7.17-2.38-7.17-2,0-3.1,1.74-3.1,3.69,0,2.4,1.44,4.13,4.54,4.13"/><path class="cls-1" d="M309.16,173.47l-.21.72c2.81,0,4.61.15,4.61,2.4a17.67,17.67,0,0,1-.94,4.42l-10.3,36.24c-1.16,4.13-2.74,4.79-7,4.79l-.21.72h18.52l.22-.72c-5.55,0-7.57-.73-7.57-3.48a14.94,14.94,0,0,1,.72-3.7l4.76-17h6.49c4.4,0,7.21.43,7.21,4.49a15.8,15.8,0,0,1-.65,4h.72l4.83-17.54h-.58c-1.94,6.52-4.83,8.33-10.67,8.33H312l6.41-23h8.8c7.42,0,9.95,1.82,9.95,6.75a29,29,0,0,1-.58,5h.58l3.6-12.47Zm27.9,49.29h3.46c5.92-17.4,12.55-30.3,15.72-32.62.87,1.67.79,3.05,1.23,4.13a2.14,2.14,0,0,0,2,1.09,3.42,3.42,0,0,0,3.24-3.62c0-3.12-1.88-4.21-3.89-4.21s-3.54,1.31-5.48,4.06c-1.73,2.54-5.41,9.5-9.66,20.15h-.58c4-11.09,6.13-18.12,6.13-20.73a3.16,3.16,0,0,0-3.25-3.48c-3.82,0-6,4.42-8.14,9.93l.72.15c2.09-5,4-6.89,5.55-6.89,1.15,0,1.73.51,1.73,1.74a16.91,16.91,0,0,1-1,4.42Zm48.31-30.15c0-3.7-2.89-5.08-5.48-5.08-9.23,0-19,17.54-19,27.84,0,6,3.39,8.4,7.13,8.4,5.77,0,8.66-5.72,10.89-10.72l-.5-.15c-2.6,4.57-5.55,7.32-8.87,7.32-2.67,0-5.26-1.74-5.26-7.1a27.07,27.07,0,0,1,1.15-7.18c12.18-.5,19.9-7.25,19.9-13.33m-6.13-4.28c1.73,0,2.6.94,2.6,3.12,0,5.94-6.35,12.83-16.08,13.7,2.59-8.27,8.36-16.82,13.48-16.82m12.61,35.44c4.26,0,9.38-3.47,9.38-8.91,0-2.25-.72-4.79-2.53-9.42l-1.44-3.34c-1.58-3.91-2.3-6.52-2.3-8.26a5.29,5.29,0,0,1,5.33-5.58c1.15,1.59,1.44,3.26,2.16,4.71.51,1.08,1,2.1,2.74,2.1s2.74-1.38,2.74-3.12c0-2.9-2.67-4.42-6.77-4.42-4.26,0-9.38,3.48-9.38,8.92,0,2.24.72,4.78,2.53,9.42l1.44,3.33c1.58,3.92,2.31,6.53,2.31,8.27a5.3,5.3,0,0,1-5.34,5.58c-1.15-1.59-1.44-3.26-2.16-4.71-.51-1.09-1-2.1-2.74-2.1s-2.74,1.37-2.74,3.11c0,2.9,2.67,4.42,6.77,4.42m30.14,0c7.79,0,16.36-18.48,16.36-27.83,0-5.73-2.45-8.41-6.63-8.41-5.91,0-10.45,7.61-17.88,24.21h-.57c4.47-10.94,7.06-17.61,8.29-21.45l6.34-19h-.14l-9.88,2.11-.14.36,2.52-.15c2.31-.14,2.88,1,1.73,4.5l-15,44.65h3.54c6.34-17.61,14-32,20-32,2.59,0,4,2.68,4,6.67,0,9.28-6.84,23.85-11.6,25.73-.87-2.39,1.22-7.17-2.38-7.17-2,0-3.1,1.74-3.1,3.69,0,2.4,1.44,4.13,4.54,4.13"/><path class="cls-1" d="M506.51,222.82c-.43,1.24-1.08,1.45-2.45,1.45H475.79c-1.38,0-1.88-.21-1.59-1.45h-.43l-4.84,14.65h.58c4.4-9.57,7-12.47,12.84-12.47h5l-11.62,42c-1.37,4.93-3.1,5.87-8.58,5.87l-.22.73h18.47l.22-.73c-4.12,0-6.14-.94-6.14-3.76a12.85,12.85,0,0,1,.51-2.9L491.22,225h5.56c5,0,6.56,2.32,6.56,7a45,45,0,0,1-.5,5.51h.57L507,222.82Zm10.82,7.62a3.41,3.41,0,1,0-3.39-3.41,3.31,3.31,0,0,0,3.39,3.41m-12.12,43.78c3.75,0,6.21-4.42,8.52-9.93l-.73-.22c-2.3,5.08-4.25,7-6.27,7s-1.3-2.75-.22-5.22l7.43-17.25c.8-1.89,1.88-4.5,1.88-6.53,0-2.75-1.73-3.69-3.39-3.69-3.75,0-6.21,4.42-8.51,9.93l.72.22c2.31-5.08,4.25-7,6.27-7s1.23,2.75.15,5.22L503.63,264a18.61,18.61,0,0,0-1.81,6.52c0,2.76,1.73,3.7,3.39,3.7m45.66,0c4,0,6.28-4.78,8.44-10.15l-.72-.21c-2.74,5.72-4.11,7.17-5.91,7.17-1.23,0-1.73-.72-1.73-1.88a10,10,0,0,1,1.15-4l7.43-15.88c.86-1.81,2.09-4.64,2.09-6.88a3.75,3.75,0,0,0-3.89-4.06c-5.34,0-10.32,8.55-17.32,24.21h-.57c4.18-11,6.56-18,6.56-20.66a3.32,3.32,0,0,0-3.61-3.55c-5,0-8.29,7.1-15.43,24.21h-.58c4.33-12.18,6.13-18.41,6.13-20.73,0-2.61-1.58-3.48-3.24-3.48-3.83,0-6,4.42-8.16,9.93l.73.14c2.09-5,3.89-6.88,5.77-6.88,1.15,0,1.51.72,1.51,1.74a14.21,14.21,0,0,1-.79,3.69l-8,26.61h3.46c6.14-17.69,13.13-32,17.39-32a1.48,1.48,0,0,1,1.66,1.66,17.72,17.72,0,0,1-1.08,4.5l-8.52,25.88h3.47c6.42-18.34,14.78-32,19.18-32a1.58,1.58,0,0,1,1.73,1.81,13,13,0,0,1-1.44,4.57l-6.92,14.86c-.87,1.88-2.45,5.87-2.45,7.75a3.39,3.39,0,0,0,3.67,3.7M589,243.41c0-3.7-2.88-5.07-5.48-5.07-9.23,0-19,17.54-19,27.84,0,6,3.39,8.4,7.14,8.4,5.77,0,8.65-5.72,10.89-10.72l-.5-.15c-2.6,4.57-5.56,7.32-8.88,7.32-2.67,0-5.26-1.74-5.26-7.1a27,27,0,0,1,1.15-7.18c12.19-.51,19.91-7.25,19.91-13.34m-6.13-4.28c1.73,0,2.6,1,2.6,3.12,0,5.95-6.35,12.83-16.09,13.7,2.6-8.26,8.37-16.82,13.49-16.82"/><path class="cls-1" d="M506.51,222.82c-.43,1.24-1.08,1.45-2.45,1.45H475.79c-1.38,0-1.88-.21-1.59-1.45h-.43l-4.84,14.65h.58c4.4-9.57,7-12.47,12.84-12.47h5l-11.62,42c-1.37,4.93-3.1,5.87-8.58,5.87l-.22.73h18.47l.22-.73c-4.12,0-6.14-.94-6.14-3.76a12.85,12.85,0,0,1,.51-2.9L491.22,225h5.56c5,0,6.56,2.32,6.56,7a45,45,0,0,1-.5,5.51h.57L507,222.82Zm10.82,7.62a3.41,3.41,0,1,0-3.39-3.41,3.31,3.31,0,0,0,3.39,3.41m-12.12,43.78c3.75,0,6.21-4.42,8.52-9.93l-.73-.22c-2.3,5.08-4.25,7-6.27,7s-1.3-2.75-.22-5.22l7.43-17.25c.8-1.89,1.88-4.5,1.88-6.53,0-2.75-1.73-3.69-3.39-3.69-3.75,0-6.21,4.42-8.51,9.93l.72.22c2.31-5.08,4.25-7,6.27-7s1.23,2.75.15,5.22L503.63,264a18.61,18.61,0,0,0-1.81,6.52c0,2.76,1.73,3.7,3.39,3.7m45.66,0c4,0,6.28-4.78,8.44-10.15l-.72-.21c-2.74,5.72-4.11,7.17-5.91,7.17-1.23,0-1.73-.72-1.73-1.88a10,10,0,0,1,1.15-4l7.43-15.88c.86-1.81,2.09-4.64,2.09-6.88a3.75,3.75,0,0,0-3.89-4.06c-5.34,0-10.32,8.55-17.32,24.21h-.57c4.18-11,6.56-18,6.56-20.66a3.32,3.32,0,0,0-3.61-3.55c-5,0-8.29,7.1-15.43,24.21h-.58c4.33-12.18,6.13-18.41,6.13-20.73,0-2.61-1.58-3.48-3.24-3.48-3.83,0-6,4.42-8.16,9.93l.73.14c2.09-5,3.89-6.88,5.77-6.88,1.15,0,1.51.72,1.51,1.74a14.21,14.21,0,0,1-.79,3.69l-8,26.61h3.46c6.14-17.69,13.13-32,17.39-32a1.48,1.48,0,0,1,1.66,1.66,17.72,17.72,0,0,1-1.08,4.5l-8.52,25.88h3.47c6.42-18.34,14.78-32,19.18-32a1.58,1.58,0,0,1,1.73,1.81,13,13,0,0,1-1.44,4.57l-6.92,14.86c-.87,1.88-2.45,5.87-2.45,7.75a3.39,3.39,0,0,0,3.67,3.7M589,243.41c0-3.7-2.88-5.07-5.48-5.07-9.23,0-19,17.54-19,27.84,0,6,3.39,8.4,7.14,8.4,5.77,0,8.65-5.72,10.89-10.72l-.5-.15c-2.6,4.57-5.56,7.32-8.88,7.32-2.67,0-5.26-1.74-5.26-7.1a27,27,0,0,1,1.15-7.18c12.19-.51,19.91-7.25,19.91-13.34m-6.13-4.28c1.73,0,2.6,1,2.6,3.12,0,5.95-6.35,12.83-16.09,13.7,2.6-8.26,8.37-16.82,13.49-16.82"/></g></g></svg>